{
.appVersion = "1352";
copyright = "Copyright 2014-2021 The Neonderthaw Project Authors (https://github.com/googlefonts/neonderthaw)";
customParameters = (
{
name = panose;
value = (
2,
0,
5,
7,
0,
0,
0,
2,
0,
2
);
},
{
name = licenseURL;
value = "https://scripts.sil.org/OFL";
},
{
name = license;
value = "This Font Software is licensed under the SIL Open Font License, Version 1.1. This license is available with a FAQ at: https://scripts.sil.org/OFL";
},
{
name = vendorID;
value = GOOG;
},
{
name = "Disable Subroutines";
value = 1;
},
{
name = glyphOrder;
value = (
.notdef,
CR,
NULL,
space,
nbspace
);
},
{
name = fsType;
value = (
);
},
{
name = "Use Typo Metrics";
value = 1;
}
);
date = "2021-11-10 00:30:08 +0000";
designer = "Robert E. Leuschke";
designerURL = www.typesetit.com;
disablesNiceNames = 1;
familyName = Neonderthaw;
featurePrefixes = (
{
automatic = 1;
code = "languagesystem DFLT dflt;\012\012languagesystem latn dflt;\012languagesystem latn AZE;\012languagesystem latn CRT;\012languagesystem latn KAZ;\012languagesystem latn TAT;\012languagesystem latn TRK;\012languagesystem latn ROM;\012languagesystem latn MOL;\012languagesystem latn CAT;\012";
name = Languagesystems;
}
);
features = (
{
automatic = 1;
code = "feature locl;\012feature sups;\012feature frac;\012feature ordn;\012";
name = aalt;
},
{
automatic = 1;

glyphs = (
{
glyphname = .notdef;
lastChange = "2021-09-30 04:42:11 +0000";
layers = (
{
layerId = "6B4F01CB-8044-4D82-912B-2C5A8D883AAC";
paths = (
{
closed = 1;
nodes = (
"48 0 LINE",
"457 0 LINE",
"465 8 LINE",
"465 602 LINE",
"457 611 LINE",
"48 611 LINE",
"40 601 LINE",
"40 9 LINE"
);
},
{
closed = 1;
nodes = (
"57 595 LINE",
"449 595 LINE",
"449 16 LINE",
"57 16 LINE"
);
},
{
closed = 1;
nodes = (
"91 48 LINE",
"416 48 LINE",
"416 561 LINE",
"91 561 LINE"
);
},
{
closed = 1;
nodes = (
"141 146 LINE",
"228 307 LINE",
"141 465 LINE",
"159 499 LINE",
"247 340 LINE",
"336 499 LINE",
"354 465 LINE",
"266 305 LINE",
"354 146 LINE",
"336 112 LINE",
"247 271 LINE",
"159 112 LINE"
);
}
);
width = 505;
}
);
note = .notdef;
},
{
glyphname = A;
lastChange = "2021-09-30 04:29:27 +0000";
layers = (
{
hints = (
{
horizontal = 1;
place = "{-10, 20}";
type = Stem;
},
{
horizontal = 1;
place = "{14, 20}";
type = Stem;
},
{
horizontal = 1;
place = "{65, 20}";
type = Stem;
},
{
horizontal = 1;
place = "{228, 20}";
type = Stem;
},
{
horizontal = 1;
place = "{414, -20}";
target = down;
type = TopGhost;
},
{
horizontal = 1;
place = "{529, -20}";
target = down;
type = TopGhost;
},
{
horizontal = 1;
place = "{657, -20}";
target = down;
type = TopGhost;
},
{
horizontal = 1;
place = "{716, -20}";
target = down;
type = TopGhost;
},
{
place = "{-53, 20}";
type = Stem;
},
{
place = "{16, 18}";
type = Stem;
},
{
place = "{611, 20}";
type = Stem;
},
{
place = "{809, 20}";
type = Stem;
},
{
place = "{906, 19}";
type = Stem;
},
{
place = "{1187, 20}";
type = Stem;
}
);
layerId = "6B4F01CB-8044-4D82-912B-2C5A8D883AAC";
paths = (
{
closed = 1;
nodes = (
"1112 601 OFFCURVE",
"1100 617 OFFCURVE",
"1090 609 CURVE SMOOTH",
"1029 561 OFFCURVE",
"754 348 OFFCURVE",
"694 296 CURVE SMOOTH",
"565 183 OFFCURVE",
"359 34 OFFCURVE",
"201 34 CURVE SMOOTH",
"-107 34 OFFCURVE",
"46 348 OFFCURVE",
"380 348 CURVE SMOOTH",
"449 348 OFFCURVE",
"506 328 OFFCURVE",
"556 283 CURVE SMOOTH",
"565 274 OFFCURVE",
"586 249 OFFCURVE",
"600 249 CURVE SMOOTH",
"620 249 OFFCURVE",
"628 269 OFFCURVE",
"630 278 CURVE SMOOTH",
"653 388 OFFCURVE",
"441 414 OFFCURVE",
"374 414 CURVE SMOOTH",
"191 414 OFFCURVE",
"-15 317 OFFCURVE",
"-49 157 CURVE SMOOTH",
"-80 10 OFFCURVE",
"77 -39 OFFCURVE",
"186 -39 CURVE SMOOTH",
"362 -39 OFFCURVE",
"549 80 OFFCURVE",
"664 178 CURVE",
"836 178 LINE SMOOTH",
"849 178 OFFCURVE",
"849 198 OFFCURVE",
"836 198 CURVE SMOOTH",
"660 198 LINE SMOOTH",
"659 198 OFFCURVE",
"654 196 OFFCURVE",
"654 196 CURVE",
"540 98 OFFCURVE",
"356 -19 OFFCURVE",
"186 -19 CURVE SMOOTH",
"74 -19 OFFCURVE",
"-55 30 OFFCURVE",
"-29 153 CURVE SMOOTH",
"2 299 OFFCURVE",
"195 394 OFFCURVE",
"374 394 CURVE SMOOTH",
"427 394 OFFCURVE",
"629 372 OFFCURVE",
"610 283 CURVE SMOOTH",
"608 274 OFFCURVE",
"604 269 OFFCURVE",
"601 269 CURVE",
"596 271 OFFCURVE",
"590 278 OFFCURVE",
"586 281 CURVE",
"527 340 OFFCURVE",
"469 368 OFFCURVE",
"380 368 CURVE SMOOTH",
"249 368 OFFCURVE",
"47 300 OFFCURVE",
"20 171 CURVE SMOOTH",
"-6 46 OFFCURVE",
"107 14 OFFCURVE",
"201 14 CURVE SMOOTH",
"368 14 OFFCURVE",
"579 169 OFFCURVE",
"707 281 CURVE SMOOTH",
"767 333 OFFCURVE",
"1042 545 OFFCURVE",
"1102 593 CURVE SMOOTH"
);
},
{
closed = 1;
nodes = (
"1092 57 OFFCURVE",
"1081 74 OFFCURVE",
"1070 67 CURVE SMOOTH",
"1023 36 OFFCURVE",
"971 10 OFFCURVE",
"922 10 CURVE SMOOTH",
"875 10 OFFCURVE",
"807 37 OFFCURVE",
"836 126 CURVE SMOOTH",
"840 139 OFFCURVE",
"821 145 OFFCURVE",
"817 132 CURVE SMOOTH",
"782 23 OFFCURVE",
"871 -10 OFFCURVE",
"922 -10 CURVE SMOOTH",
"977 -10 OFFCURVE",
"1033 19 OFFCURVE",
"1081 50 CURVE SMOOTH"
);
},
{
closed = 1;
nodes = (
"998 465 OFFCURVE",
"985 480 OFFCURVE",
"975 472 CURVE SMOOTH",
"907 413 OFFCURVE",
"805 328 OFFCURVE",
"759 290 CURVE SMOOTH",
"748 281 OFFCURVE",
"761 266 OFFCURVE",
"771 274 CURVE SMOOTH",
"818 313 OFFCURVE",
"920 397 OFFCURVE",
"988 456 CURVE SMOOTH"
);
},
{
closed = 1;
nodes = (
"1101 517 OFFCURVE",
"1087 531 OFFCURVE",
"1078 522 CURVE SMOOTH",
"1043 490 OFFCURVE",
"970 396 OFFCURVE",
"902 304 CURVE SMOOTH",
"879 272 OFFCURVE",
"859 259 OFFCURVE",
"833 253 CURVE SMOOTH",
"796 244 OFFCURVE",
"754 248 OFFCURVE",
"717 248 CURVE SMOOTH",
"703 248 OFFCURVE",
"703 228 OFFCURVE",
"717 228 CURVE SMOOTH",
"799 228 OFFCURVE",
"862 215 OFFCURVE",
"918 292 CURVE SMOOTH",
"986 384 OFFCURVE",
"1058 476 OFFCURVE",
"1091 508 CURVE SMOOTH"
);
},
{
closed = 1;
nodes = (
"1181 191 OFFCURVE",
"1167 206 OFFCURVE",
"1158 194 CURVE SMOOTH",
"1107 129 OFFCURVE",
"1020 85 OFFCURVE",
"964 85 CURVE SMOOTH",
"816 85 OFFCURVE",
"1141 495 OFFCURVE",
"1165 525 CURVE SMOOTH",
"1173 535 OFFCURVE",
"1157 548 OFFCURVE",
"1149 537 CURVE SMOOTH",
"1086 457 OFFCURVE",
"1004 342 OFFCURVE",
"965 275 CURVE SMOOTH",
"940 233 OFFCURVE",
"847 65 OFFCURVE",
"964 65 CURVE SMOOTH",
"1029 65 OFFCURVE",
"1122 114 OFFCURVE",
"1173 181 CURVE SMOOTH"
);
},
{
closed = 1;
nodes = (
"1253 716 OFFCURVE",
"833 716 OFFCURVE",
"791 716 CURVE SMOOTH",
"596 716 OFFCURVE",
"400 665 OFFCURVE",
"375 549 CURVE SMOOTH",
"372 533 OFFCURVE",
"376 509 OFFCURVE",
"398 509 CURVE SMOOTH",
"412 509 OFFCURVE",
"424 518 OFFCURVE",
"433 528 CURVE SMOOTH",
"531 626 OFFCURVE",
"637 637 OFFCURVE",
"766 637 CURVE SMOOTH",
"929 637 OFFCURVE",
"995 617 OFFCURVE",
"1033 605 CURVE SMOOTH",
"1045 601 OFFCURVE",
"1051 621 OFFCURVE",
"1039 625 CURVE SMOOTH",
"999 637 OFFCURVE",
"931 657 OFFCURVE",
"766 657 CURVE SMOOTH",
"652 657 OFFCURVE",
"524 649 OFFCURVE",
"426 550 CURVE SMOOTH",
"420 543 OFFCURVE",
"407 529 OFFCURVE",
"398 529 CURVE SMOOTH",
"393 529 OFFCURVE",
"394 542 OFFCURVE",
"395 545 CURVE SMOOTH",
"416 643 OFFCURVE",
"591 696 OFFCURVE",
"791 696 CURVE SMOOTH",
"830 696 OFFCURVE",
"1222 690 OFFCURVE",
"1185 596 CURVE SMOOTH",
"1180 583 OFFCURVE",
"1198 576 OFFCURVE",
"1203 588 CURVE SMOOTH"
);
}
);
width = 1166;
}
);
note = A;
unicode = 0041;
},
{
glyphname = AE;
layers = (
{
hints = (
{
horizontal = 1;
place = "{-14, 20}";
type = Stem;
},
{
horizontal = 1;
place = "{14, 20}";
type = Stem;
},
{
horizontal = 1;
place = "{44, 20}";
type = Stem;
},
{
horizontal = 1;
place = "{228, 20}";
type = Stem;
},
{
horizontal = 1;
place = "{374, -20}";
target = down;
type = TopGhost;
},
{
horizontal = 1;
place = "{414, -20}";
target = down;
type = TopGhost;
},
{
horizontal = 1;
place = "{599, -20}";
target = down;
type = TopGhost;
},
{
horizontal = 1;
place = "{694, -20}";
target = down;
type = TopGhost;
},
{
horizontal = 1;
place = "{750, -20}";
target = down;
type = TopGhost;
},
{
place = "{-53, 20}";
type = Stem;
},
{
place = "{14, 20}";
type = Stem;
},
{
place = "{611, 20}";
type = Stem;
},
{
place = "{781, 21}";
type = Stem;
},
{
place = "{885, 20}";
type = Stem;
},
{
place = "{1235, 20}";
type = Stem;
},
{
place = "{1488, 20}";
type = Stem;
}
);
layerId = "6B4F01CB-8044-4D82-912B-2C5A8D883AAC";
paths = (
{
closed = 1;
nodes = (
"1401 604 OFFCURVE",
"1321 605 OFFCURVE",
"1247 621 CURVE SMOOTH",
"1094 654 OFFCURVE",
"680 785 OFFCURVE",
"612 585 CURVE SMOOTH",
"610 579 OFFCURVE",
"588 561 OFFCURVE",
"583 568 CURVE SMOOTH",
"582 569 OFFCURVE",
"580 573 OFFCURVE",
"583 585 CURVE SMOOTH",
"631 810 OFFCURVE",
"1006 716 OFFCURVE",
"1158 681 CURVE SMOOTH",
"1243 662 OFFCURVE",
"1373 621 OFFCURVE",
"1452 672 CURVE SMOOTH",
"1489 696 OFFCURVE",
"1503 663 OFFCURVE",
"1468 643 CURVE SMOOTH"
);
},
{
closed = 1;
nodes = (
"1112 601 OFFCURVE",
"1100 617 OFFCURVE",
"1090 609 CURVE SMOOTH",
"1029 561 OFFCURVE",
"754 348 OFFCURVE",
"694 296 CURVE SMOOTH",
"565 183 OFFCURVE",
"359 34 OFFCURVE",
"201 34 CURVE SMOOTH",
"-107 34 OFFCURVE",
"46 348 OFFCURVE",
"380 348 CURVE SMOOTH",
"449 348 OFFCURVE",
"506 328 OFFCURVE",
"556 283 CURVE SMOOTH",
"565 274 OFFCURVE",
"586 249 OFFCURVE",
"600 249 CURVE SMOOTH",
"620 249 OFFCURVE",
"628 269 OFFCURVE",
"630 278 CURVE SMOOTH",
"653 388 OFFCURVE",
"441 414 OFFCURVE",
"374 414 CURVE SMOOTH",
"191 414 OFFCURVE",
"-15 317 OFFCURVE",
"-49 157 CURVE SMOOTH",
"-80 10 OFFCURVE",
"77 -39 OFFCURVE",
"186 -39 CURVE SMOOTH",
"362 -39 OFFCURVE",
"549 80 OFFCURVE",
"664 178 CURVE",
"836 178 LINE SMOOTH",
"849 178 OFFCURVE",
"849 198 OFFCURVE",
"836 198 CURVE SMOOTH",
"660 198 LINE SMOOTH",
"659 198 OFFCURVE",
"654 196 OFFCURVE",
"654 196 CURVE",
"540 98 OFFCURVE",
"356 -19 OFFCURVE",
"186 -19 CURVE SMOOTH",
"74 -19 OFFCURVE",
"-55 30 OFFCURVE",
"-29 153 CURVE SMOOTH",
"2 299 OFFCURVE",
"195 394 OFFCURVE",
"374 394 CURVE SMOOTH",
"427 394 OFFCURVE",
"629 372 OFFCURVE",
"610 283 CURVE SMOOTH",
"608 274 OFFCURVE",
"604 269 OFFCURVE",
"601 269 CURVE",
"596 271 OFFCURVE",
"590 278 OFFCURVE",
"586 281 CURVE",
"527 340 OFFCURVE",
"469 368 OFFCURVE",
"380 368 CURVE SMOOTH",
"13 368 OFFCURVE",
"-132 14 OFFCURVE",
"201 14 CURVE SMOOTH",
"368 14 OFFCURVE",
"579 169 OFFCURVE",
"707 281 CURVE SMOOTH",
"767 333 OFFCURVE",
"1042 545 OFFCURVE",
"1102 593 CURVE SMOOTH"
);
},
{
closed = 1;
nodes = (
"998 465 OFFCURVE",
"985 480 OFFCURVE",
"975 472 CURVE SMOOTH",
"907 413 OFFCURVE",
"805 328 OFFCURVE",
"759 290 CURVE SMOOTH",
"748 281 OFFCURVE",
"761 266 OFFCURVE",
"771 274 CURVE SMOOTH",
"818 313 OFFCURVE",
"920 397 OFFCURVE",
"988 456 CURVE SMOOTH"
);
},
{
closed = 1;
nodes = (
"1447 360 OFFCURVE",
"1410 339 OFFCURVE",
"1397 335 CURVE SMOOTH",
"1302 305 OFFCURVE",
"1066 305 OFFCURVE",
"1012 306 CURVE SMOOTH",
"1010 306 OFFCURVE",
"1005 304 OFFCURVE",
"1004 303 CURVE SMOOTH",
"971 265 OFFCURVE",
"804 69 OFFCURVE",
"936 46 CURVE SMOOTH",
"999 35 OFFCURVE",
"1238 76 OFFCURVE",
"1290 97 CURVE SMOOTH",
"1303 102 OFFCURVE",
"1309 101 OFFCURVE",
"1311 100 CURVE",
"1316 86 OFFCURVE",
"1296 66 OFFCURVE",
"1284 62 CURVE SMOOTH",
"1174 22 OFFCURVE",
"1003 6 OFFCURVE",
"905 6 CURVE SMOOTH",
"780 6 OFFCURVE",
"787 65 OFFCURVE",
"829 145 CURVE SMOOTH",
"835 157 OFFCURVE",
"817 166 OFFCURVE",
"811 154 CURVE SMOOTH",
"799 131 OFFCURVE",
"789 109 OFFCURVE",
"784 91 CURVE SMOOTH",
"760 2 OFFCURVE",
"847 -14 OFFCURVE",
"905 -14 CURVE SMOOTH",
"1004 -14 OFFCURVE",
"1177 3 OFFCURVE",
"1291 44 CURVE SMOOTH",
"1341 62 OFFCURVE",
"1351 143 OFFCURVE",
"1282 115 CURVE SMOOTH",
"1235 96 OFFCURVE",
"998 55 OFFCURVE",
"939 65 CURVE SMOOTH",
"912 70 OFFCURVE",
"900 82 OFFCURVE",
"908 113 CURVE SMOOTH",
"925 174 OFFCURVE",
"969 231 OFFCURVE",
"1016 286 CURVE",
"1077 285 OFFCURVE",
"1307 286 OFFCURVE",
"1403 316 CURVE SMOOTH",
"1476 339 OFFCURVE",
"1486 421 OFFCURVE",
"1419 397 CURVE SMOOTH",
"1338 369 OFFCURVE",
"1146 374 OFFCURVE",
"1056 374 CURVE SMOOTH",
"1042 374 OFFCURVE",
"1042 354 OFFCURVE",
"1056 354 CURVE SMOOTH",
"1149 354 OFFCURVE",
"1341 349 OFFCURVE",
"1425 378 CURVE SMOOTH",
"1439 383 OFFCURVE",
"1444 381 OFFCURVE",
"1444 381 CURVE"
);
},
{
closed = 1;
nodes = (
"1281 567 OFFCURVE",
"1224 616 OFFCURVE",
"1186 593 CURVE SMOOTH",
"1147 570 OFFCURVE",
"975 393 OFFCURVE",
"935 342 CURVE SMOOTH",
"860 245 OFFCURVE",
"825 248 OFFCURVE",
"717 248 CURVE SMOOTH",
"703 248 OFFCURVE",
"703 228 OFFCURVE",
"717 228 CURVE SMOOTH",
"831 228 OFFCURVE",
"871 227 OFFCURVE",
"951 330 CURVE SMOOTH",
"991 381 OFFCURVE",
"1161 555 OFFCURVE",
"1197 576 CURVE SMOOTH",
"1213 586 OFFCURVE",
"1248 567 OFFCURVE",
"1229 551 CURVE SMOOTH",
"1182 514 OFFCURVE",
"1133 452 OFFCURVE",
"1087 408 CURVE SMOOTH",
"1077 399 OFFCURVE",
"1091 385 OFFCURVE",
"1101 394 CURVE SMOOTH",
"1136 427 OFFCURVE",
"1160 454 OFFCURVE",
"1182 477 CURVE SMOOTH",
"1203 500 OFFCURVE",
"1220 519 OFFCURVE",
"1241 535 CURVE SMOOTH"
);
},
{
closed = 1;
nodes = (
"1537 660 OFFCURVE",
"1501 727 OFFCURVE",
"1442 689 CURVE SMOOTH",
"1391 657 OFFCURVE",
"1315 667 OFFCURVE",
"1259 679 CURVE SMOOTH",
"1078 717 OFFCURVE",
"620 858 OFFCURVE",
"563 589 CURVE SMOOTH",
"560 575 OFFCURVE",
"561 564 OFFCURVE",
"567 555 CURVE SMOOTH",
"584 533 OFFCURVE",
"624 558 OFFCURVE",
"631 579 CURVE SMOOTH",
"693 759 OFFCURVE",
"1102 632 OFFCURVE",
"1243 602 CURVE SMOOTH",
"1322 585 OFFCURVE",
"1406 585 OFFCURVE",
"1478 626 CURVE SMOOTH"
);
}
);
width = 1354;
}
);
note = AE;
unicode = 00C6;
},
{
glyphname = B;
layers = (
{
hints = (
{
horizontal = 1;
place = "{-15, 20}";
type = Stem;
},
{
horizontal = 1;
place = "{38, 18}";
type = Stem;
},
{
horizontal = 1;
place = "{385, -20}";
target = down;
type = TopGhost;
},
{
horizontal = 1;
place = "{529, -20}";
target = down;
type = TopGhost;
},
{
horizontal = 1;
place = "{662, -20}";
target = down;
type = TopGhost;
},
{
horizontal = 1;
place = "{720, -20}";
target = down;
type = TopGhost;
},
{
place = "{21, 20}";
type = Stem;
},
{
place = "{90, 19}";
type = Stem;
},
{
place = "{584, 20}";
type = Stem;
},
{
place = "{1070, 20}";
type = Stem;
},
{
place = "{1107, 20}";
type = Stem;
},
{
place = "{1158, 20}";
type = Stem;
},
{
place = "{1197, 20}";
type = Stem;
}
);
layerId = "6B4F01CB-8044-4D82-912B-2C5A8D883AAC";
paths = (
{
closed = 1;
nodes = (
"1113 240 OFFCURVE",
"1066 287 OFFCURVE",
"1002 309 CURVE SMOOTH",
"939 330 OFFCURVE",
"855 330 OFFCURVE",
"800 314 CURVE",
"799 313 OFFCURVE",
"795 310 OFFCURVE",
"794 310 CURVE",
"682 160 OFFCURVE",
"478 -19 OFFCURVE",
"260 -19 CURVE SMOOTH",
"148 -19 OFFCURVE",
"19 30 OFFCURVE",
"45 153 CURVE SMOOTH",
"77 300 OFFCURVE",
"243 394 OFFCURVE",
"374 394 CURVE SMOOTH",
"426 394 OFFCURVE",
"578 369 OFFCURVE",
"584 299 CURVE",
"581 293 OFFCURVE",
"574 287 OFFCURVE",
"568 284 CURVE",
"548 324 OFFCURVE",
"446 368 OFFCURVE",
"362 368 CURVE SMOOTH",
"281 368 OFFCURVE",
"121 299 OFFCURVE",
"94 171 CURVE SMOOTH",
"67 46 OFFCURVE",
"181 14 OFFCURVE",
"275 14 CURVE SMOOTH",
"442 14 OFFCURVE",
"648 212 OFFCURVE",
"751 346 CURVE SMOOTH",
"798 408 OFFCURVE",
"893 529 OFFCURVE",
"932 589 CURVE SMOOTH",
"939 600 OFFCURVE",
"924 611 OFFCURVE",
"916 599 CURVE SMOOTH",
"878 541 OFFCURVE",
"782 420 OFFCURVE",
"735 358 CURVE SMOOTH",
"632 223 OFFCURVE",
"432 34 OFFCURVE",
"275 34 CURVE SMOOTH",
"-39 34 OFFCURVE",
"152 348 OFFCURVE",
"362 348 CURVE SMOOTH",
"451 348 OFFCURVE",
"546 299 OFFCURVE",
"552 273 CURVE SMOOTH",
"559 246 OFFCURVE",
"605 280 OFFCURVE",
"604 299 CURVE SMOOTH",
"599 385 OFFCURVE",
"438 414 OFFCURVE",
"374 414 CURVE SMOOTH",
"236 414 OFFCURVE",
"59 316 OFFCURVE",
"25 157 CURVE SMOOTH",
"-6 10 OFFCURVE",
"150 -39 OFFCURVE",
"260 -39 CURVE SMOOTH",
"486 -39 OFFCURVE",
"695 145 OFFCURVE",
"808 295 CURVE",
"860 310 OFFCURVE",
"938 310 OFFCURVE",
"996 290 CURVE SMOOTH",
"1216 214 OFFCURVE",
"893 -53 OFFCURVE",
"734 104 CURVE SMOOTH",
"725 113 OFFCURVE",
"711 99 OFFCURVE",
"720 90 CURVE SMOOTH",
"808 2 OFFCURVE",
"1016 24 OFFCURVE",
"1078 163 CURVE SMOOTH"
);
},
{
closed = 1;
nodes = (
"1203 279 OFFCURVE",
"1128 342 OFFCURVE",
"1012 356 CURVE SMOOTH",
"998 358 OFFCURVE",
"996 338 OFFCURVE",
"1009 336 CURVE SMOOTH",
"1120 322 OFFCURVE",
"1179 267 OFFCURVE",
"1151 169 CURVE SMOOTH",
"1095 -27 OFFCURVE",
"783 -34 OFFCURVE",
"671 77 CURVE SMOOTH",
"662 86 OFFCURVE",
"647 72 OFFCURVE",
"657 63 CURVE SMOOTH",
"774 -54 OFFCURVE",
"1108 -53 OFFCURVE",
"1170 163 CURVE SMOOTH"
);
},
{
closed = 1;
nodes = (
"1232 606 OFFCURVE",
"1182 659 OFFCURVE",
"1112 687 CURVE SMOOTH",
"957 748 OFFCURVE",
"490 737 OFFCURVE",
"449 549 CURVE SMOOTH",
"446 533 OFFCURVE",
"449 509 OFFCURVE",
"472 509 CURVE SMOOTH",
"486 509 OFFCURVE",
"497 518 OFFCURVE",
"507 528 CURVE SMOOTH",
"592 614 OFFCURVE",
"765 641 OFFCURVE",
"874 642 CURVE SMOOTH",
"1248 646 OFFCURVE",
"1103 391 OFFCURVE",
"916 385 CURVE SMOOTH",
"903 385 OFFCURVE",
"903 365 OFFCURVE",
"917 365 CURVE SMOOTH",
"1130 372 OFFCURVE",
"1275 666 OFFCURVE",
"874 662 CURVE SMOOTH",
"733 661 OFFCURVE",
"569 620 OFFCURVE",
"500 550 CURVE SMOOTH",
"494 543 OFFCURVE",
"481 529 OFFCURVE",
"472 529 CURVE SMOOTH",
"466 529 OFFCURVE",
"468 542 OFFCURVE",
"469 545 CURVE SMOOTH",
"492 654 OFFCURVE",
"698 703 OFFCURVE",
"890 700 CURVE SMOOTH",
"1001 698 OFFCURVE",
"1230 687 OFFCURVE",
"1193 514 CURVE SMOOTH",
"1182 461 OFFCURVE",
"1139 412 OFFCURVE",
"1094 395 CURVE SMOOTH",
"1082 391 OFFCURVE",
"1089 372 OFFCURVE",
"1101 377 CURVE SMOOTH",
"1153 396 OFFCURVE",
"1199 451 OFFCURVE",
"1212 510 CURVE SMOOTH"
);
},
{
closed = 1;
nodes = (
"1001 587 OFFCURVE",
"985 598 OFFCURVE",
"977 587 CURVE SMOOTH",
"932 518 OFFCURVE",
"873 430 OFFCURVE",
"848 389 CURVE SMOOTH",
"841 378 OFFCURVE",
"858 367 OFFCURVE",
"865 379 CURVE SMOOTH",
"890 420 OFFCURVE",
"949 508 OFFCURVE",
"994 576 CURVE SMOOTH"
);
}
);
width = 1220;
}
);
note = B;
unicode = 0042;
},
{
glyphname = C;
layers = (
{
hints = (
{
horizontal = 1;
place = "{-34, 20}";
type = Stem;
},
{
horizontal = 1;
place = "{24, 20}";
type = Stem;
},
{
horizontal = 1;
place = "{227, 20}";
type = Stem;
},
{
horizontal = 1;
place = "{439, -20}";
target = down;
type = TopGhost;
},
{
horizontal = 1;
place = "{681, -20}";
target = down;
type = TopGhost;
},
{
horizontal = 1;
place = "{731, -20}";
target = down;
type = TopGhost;
},
{
place = "{8, 20}";
type = Stem;
},
{
place = "{87, 20}";
type = Stem;
},
{
place = "{571, 20}";
type = Stem;
},
{
place = "{758, 20}";
type = Stem;
},
{
place = "{805, 20}";
type = Stem;
}
);
layerId = "6B4F01CB-8044-4D82-912B-2C5A8D883AAC";
paths = (
{
closed = 1;
nodes = (
"930 711 OFFCURVE",
"822 396 OFFCURVE",
"550 396 CURVE SMOOTH",
"484 396 OFFCURVE",
"386 420 OFFCURVE",
"379 488 CURVE SMOOTH",
"378 501 OFFCURVE",
"358 499 OFFCURVE",
"359 486 CURVE SMOOTH",
"368 399 OFFCURVE",
"487 376 OFFCURVE",
"550 376 CURVE SMOOTH",
"851 376 OFFCURVE",
"956 731 OFFCURVE",
"605 731 CURVE SMOOTH",
"342 731 OFFCURVE",
"8 480 OFFCURVE",
"8 196 CURVE SMOOTH",
"8 54 OFFCURVE",
"103 -34 OFFCURVE",
"242 -34 CURVE SMOOTH",
"371 -34 OFFCURVE",
"510 27 OFFCURVE",
"569 150 CURVE SMOOTH",
"574 161 OFFCURVE",
"591 203 OFFCURVE",
"591 217 CURVE SMOOTH",
"591 238 OFFCURVE",
"582 247 OFFCURVE",
"562 247 CURVE SMOOTH",
"525 247 OFFCURVE",
"519 221 OFFCURVE",
"507 194 CURVE SMOOTH",
"474 118 OFFCURVE",
"338 44 OFFCURVE",
"258 44 CURVE SMOOTH",
"163 44 OFFCURVE",
"107 104 OFFCURVE",
"107 198 CURVE SMOOTH",
"107 412 OFFCURVE",
"391 661 OFFCURVE",
"598 661 CURVE SMOOTH",
"882 661 OFFCURVE",
"736 439 OFFCURVE",
"558 439 CURVE SMOOTH",
"514 439 OFFCURVE",
"423 472 OFFCURVE",
"415 512 CURVE SMOOTH",
"413 525 OFFCURVE",
"393 522 OFFCURVE",
"395 509 CURVE SMOOTH",
"405 451 OFFCURVE",
"515 419 OFFCURVE",
"558 419 CURVE SMOOTH",
"766 419 OFFCURVE",
"908 681 OFFCURVE",
"598 681 CURVE SMOOTH",
"382 681 OFFCURVE",
"87 425 OFFCURVE",
"87 198 CURVE SMOOTH",
"87 93 OFFCURVE",
"151 24 OFFCURVE",
"258 24 CURVE SMOOTH",
"346 24 OFFCURVE",
"461 92 OFFCURVE",
"512 161 CURVE SMOOTH",
"529 185 OFFCURVE",
"531 227 OFFCURVE",
"562 227 CURVE SMOOTH",
"565 227 OFFCURVE",
"568 227 OFFCURVE",
"570 225 CURVE",
"570 225 OFFCURVE",
"571 224 OFFCURVE",
"571 217 CURVE SMOOTH",
"571 208 OFFCURVE",
"556 170 OFFCURVE",
"551 159 CURVE SMOOTH",
"495 45 OFFCURVE",
"366 -14 OFFCURVE",
"242 -14 CURVE SMOOTH",
"113 -14 OFFCURVE",
"28 66 OFFCURVE",
"28 196 CURVE SMOOTH",
"28 465 OFFCURVE",
"350 711 OFFCURVE",
"605 711 CURVE SMOOTH"
);
}
);
width = 720;
}
);
note = C;
unicode = 0043;
},
{
glyphname = D;
layers = (
{
hints = (
{
horizontal = 1;
place = "{-39, 20}";
type = Stem;
},
{
horizontal = 1;
place = "{-12, 21}";
type = Stem;
},
{
horizontal = 1;
place = "{14, 20}";
type = Stem;
},
{
horizontal = 1;
place = "{51, 20}";
type = Stem;
},
{
horizontal = 1;
place = "{144, 20}";
type = Stem;
},
{
horizontal = 1;
place = "{197, 20}";
type = Stem;
},
{
horizontal = 1;
place = "{675, -20}";
target = down;
type = TopGhost;
},
{
horizontal = 1;
place = "{732, -20}";
target = down;
type = TopGhost;
},
{
place = "{3, 20}";
type = Stem;
},
{
place = "{64, 20}";
type = Stem;
},
{
place = "{85, 19}";
type = Stem;
},
{
place = "{505, 20}";
type = Stem;
},
{
place = "{549, 20}";
type = Stem;
},
{
place = "{1042, 20}";
type = Stem;
},
{
place = "{1130, 20}";
type = Stem;
}
);
layerId = "6B4F01CB-8044-4D82-912B-2C5A8D883AAC";
paths = (
{
closed = 1;
nodes = (
"856 587 OFFCURVE",
"839 598 OFFCURVE",
"832 587 CURVE SMOOTH",
"787 519 OFFCURVE",
"730 429 OFFCURVE",
"703 390 CURVE SMOOTH",
"524 138 OFFCURVE",
"332 -19 OFFCURVE",
"114 -19 CURVE SMOOTH",
"88 -19 OFFCURVE",
"124 14 OFFCURVE",
"129 14 CURVE SMOOTH",
"297 14 OFFCURVE",
"497 198 OFFCURVE",
"605 346 CURVE SMOOTH",
"651 409 OFFCURVE",
"748 529 OFFCURVE",
"787 589 CURVE SMOOTH",
"794 600 OFFCURVE",
"778 611 OFFCURVE",
"770 599 CURVE SMOOTH",
"732 541 OFFCURVE",
"635 421 OFFCURVE",
"589 358 CURVE SMOOTH",
"481 210 OFFCURVE",
"286 34 OFFCURVE",
"129 34 CURVE SMOOTH",
"98 34 OFFCURVE",
"57 -39 OFFCURVE",
"114 -39 CURVE SMOOTH",
"342 -39 OFFCURVE",
"540 126 OFFCURVE",
"719 378 CURVE SMOOTH",
"747 418 OFFCURVE",
"803 507 OFFCURVE",
"848 576 CURVE SMOOTH"
);
},
{
closed = 1;
nodes = (
"1199 622 OFFCURVE",
"970 732 OFFCURVE",
"712 732 CURVE SMOOTH",
"17 732 OFFCURVE",
"-179 144 OFFCURVE",
"178 144 CURVE SMOOTH",
"267 144 OFFCURVE",
"373 194 OFFCURVE",
"454 285 CURVE SMOOTH",
"498 335 OFFCURVE",
"602 490 OFFCURVE",
"558 558 CURVE SMOOTH",
"544 579 OFFCURVE",
"492 568 OFFCURVE",
"503 538 CURVE SMOOTH",
"513 512 OFFCURVE",
"470 397 OFFCURVE",
"404 323 CURVE SMOOTH",
"346 257 OFFCURVE",
"256 217 OFFCURVE",
"187 217 CURVE SMOOTH",
"106 217 OFFCURVE",
"75 261 OFFCURVE",
"87 320 CURVE SMOOTH",
"117 462 OFFCURVE",
"326 655 OFFCURVE",
"704 655 CURVE SMOOTH",
"916 655 OFFCURVE",
"1080 562 OFFCURVE",
"1035 352 CURVE SMOOTH",
"997 173 OFFCURVE",
"734 -7 OFFCURVE",
"557 106 CURVE SMOOTH",
"546 113 OFFCURVE",
"535 97 OFFCURVE",
"546 90 CURVE SMOOTH",
"740 -34 OFFCURVE",
"1014 161 OFFCURVE",
"1054 348 CURVE SMOOTH",
"1103 578 OFFCURVE",
"919 675 OFFCURVE",
"704 675 CURVE SMOOTH",
"321 675 OFFCURVE",
"101 478 OFFCURVE",
"68 324 CURVE SMOOTH",
"52 251 OFFCURVE",
"95 197 OFFCURVE",
"187 197 CURVE SMOOTH",
"262 197 OFFCURVE",
"358 240 OFFCURVE",
"419 309 CURVE SMOOTH",
"484 383 OFFCURVE",
"537 507 OFFCURVE",
"522 546 CURVE",
"525 549 OFFCURVE",
"539 550 OFFCURVE",
"541 547 CURVE SMOOTH",
"575 494 OFFCURVE",
"488 353 OFFCURVE",
"439 298 CURVE SMOOTH",
"361 211 OFFCURVE",
"260 164 OFFCURVE",
"178 164 CURVE SMOOTH",
"-151 164 OFFCURVE",
"51 712 OFFCURVE",
"712 712 CURVE SMOOTH",
"969 712 OFFCURVE",
"1175 604 OFFCURVE",
"1121 350 CURVE SMOOTH",
"1070 108 OFFCURVE",
"709 -97 OFFCURVE",
"514 68 CURVE SMOOTH",
"504 76 OFFCURVE",
"491 61 OFFCURVE",
"501 52 CURVE SMOOTH",
"713 -127 OFFCURVE",
"1088 96 OFFCURVE",
"1141 346 CURVE SMOOTH"
);
}
);
width = 1159;
}
);
note = D;
unicode = 0044;
},
{
glyphname = E;
layers = (
{
hints = (
{
horizontal = 1;
place = "{-14, 20}";
type = Stem;
},
{
horizontal = 1;
place = "{298, 20}";
type = Stem;
},
{
horizontal = 1;
place = "{392, -20}";
target = down;
type = TopGhost;
},
{
horizontal = 1;
place = "{599, -20}";
target = down;
type = TopGhost;
},
{
horizontal = 1;
place = "{647, 21}";
target = up;
type = BottomGhost;
},
{
horizontal = 1;
place = "{700, -20}";
target = down;
type = TopGhost;
},
{
horizontal = 1;
place = "{760, -20}";
target = down;
type = TopGhost;
},
{
place = "{-24, 20}";
type = Stem;
},
{
place = "{40, 20}";
type = Stem;
},
{
place = "{75, 20}";
type = Stem;
},
{
place = "{145, 20}";
type = Stem;
},
{
place = "{494, 20}";
type = Stem;
},
{
place = "{747, 20}";
type = Stem;
}
);
layerId = "6B4F01CB-8044-4D82-912B-2C5A8D883AAC";
paths = (
{
closed = 1;
nodes = (
"707 360 OFFCURVE",
"669 339 OFFCURVE",
"657 335 CURVE SMOOTH",
"562 305 OFFCURVE",
"325 305 OFFCURVE",
"271 306 CURVE SMOOTH",
"270 306 OFFCURVE",
"264 304 OFFCURVE",
"263 303 CURVE SMOOTH",
"231 265 OFFCURVE",
"64 69 OFFCURVE",
"195 46 CURVE SMOOTH",
"258 35 OFFCURVE",
"498 77 OFFCURVE",
"549 97 CURVE SMOOTH",
"563 103 OFFCURVE",
"569 101 OFFCURVE",
"570 100 CURVE",
"575 86 OFFCURVE",
"556 66 OFFCURVE",
"544 62 CURVE SMOOTH",
"433 22 OFFCURVE",
"263 6 OFFCURVE",
"164 6 CURVE SMOOTH",
"102 6 OFFCURVE",
"46 22 OFFCURVE",
"63 86 CURVE SMOOTH",
"79 146 OFFCURVE",
"130 222 OFFCURVE",
"179 283 CURVE SMOOTH",
"187 293 OFFCURVE",
"172 306 OFFCURVE",
"164 295 CURVE SMOOTH",
"98 212 OFFCURVE",
"-75 -14 OFFCURVE",
"164 -14 CURVE SMOOTH",
"264 -14 OFFCURVE",
"437 3 OFFCURVE",
"551 44 CURVE SMOOTH",
"601 62 OFFCURVE",
"611 143 OFFCURVE",
"542 115 CURVE SMOOTH",
"494 96 OFFCURVE",
"257 55 OFFCURVE",
"199 65 CURVE SMOOTH",
"172 70 OFFCURVE",
"160 82 OFFCURVE",
"168 113 CURVE SMOOTH",
"184 174 OFFCURVE",
"228 231 OFFCURVE",
"276 286 CURVE",
"337 285 OFFCURVE",
"566 286 OFFCURVE",
"663 316 CURVE SMOOTH",
"736 339 OFFCURVE",
"746 421 OFFCURVE",
"678 397 CURVE SMOOTH",
"598 369 OFFCURVE",
"405 374 OFFCURVE",
"315 374 CURVE SMOOTH",
"302 374 OFFCURVE",
"302 354 OFFCURVE",
"315 354 CURVE SMOOTH",
"409 354 OFFCURVE",
"601 349 OFFCURVE",
"685 378 CURVE SMOOTH",
"699 383 OFFCURVE",
"703 381 OFFCURVE",
"704 381 CURVE"
);
},
{
closed = 1;
nodes = (
"541 567 OFFCURVE",
"484 616 OFFCURVE",
"446 593 CURVE SMOOTH",
"402 567 OFFCURVE",
"280 429 OFFCURVE",
"239 383 CURVE",
"208 388 OFFCURVE",
"177 392 OFFCURVE",
"144 392 CURVE SMOOTH",
"57 392 OFFCURVE",
"46 298 OFFCURVE",
"146 298 CURVE SMOOTH",
"159 298 OFFCURVE",
"159 318 OFFCURVE",
"146 318 CURVE SMOOTH",
"72 318 OFFCURVE",
"85 372 OFFCURVE",
"144 372 CURVE SMOOTH",
"178 372 OFFCURVE",
"210 367 OFFCURVE",
"241 363 CURVE SMOOTH",
"243 363 OFFCURVE",
"249 365 OFFCURVE",
"250 366 CURVE SMOOTH",
"289 410 OFFCURVE",
"414 551 OFFCURVE",
"456 576 CURVE SMOOTH",
"473 586 OFFCURVE",
"508 567 OFFCURVE",
"488 551 CURVE SMOOTH",
"441 514 OFFCURVE",
"392 452 OFFCURVE",
"346 408 CURVE SMOOTH",
"337 399 OFFCURVE",
"350 385 OFFCURVE",
"360 394 CURVE SMOOTH",
"395 427 OFFCURVE",
"420 454 OFFCURVE",
"441 477 CURVE SMOOTH",
"462 500 OFFCURVE",
"480 519 OFFCURVE",
"501 535 CURVE SMOOTH"
);
},
{
closed = 1;
nodes = (
"796 659 OFFCURVE",
"761 727 OFFCURVE",
"701 689 CURVE SMOOTH",
"680 675 OFFCURVE",
"642 665 OFFCURVE",
"585 668 CURVE SMOOTH",
"451 675 OFFCURVE",
"361 771 OFFCURVE",
"220 759 CURVE SMOOTH",
"45 743 OFFCURVE",
"-82 558 OFFCURVE",
"4 391 CURVE SMOOTH",
"10 379 OFFCURVE",
"28 388 OFFCURVE",
"22 400 CURVE SMOOTH",
"-57 552 OFFCURVE",
"59 724 OFFCURVE",
"222 739 CURVE SMOOTH",
"324 748 OFFCURVE",
"395 698 OFFCURVE",
"485 668 CURVE SMOOTH",
"550 646 OFFCURVE",
"652 634 OFFCURVE",
"712 672 CURVE SMOOTH",
"749 696 OFFCURVE",
"762 663 OFFCURVE",
"728 643 CURVE SMOOTH",
"689 620 OFFCURVE",
"634 607 OFFCURVE",
"567 611 CURVE SMOOTH",
"439 620 OFFCURVE",
"354 709 OFFCURVE",
"213 696 CURVE SMOOTH",
"77 684 OFFCURVE",
"0 537 OFFCURVE",
"63 398 CURVE SMOOTH",
"68 386 OFFCURVE",
"86 394 OFFCURVE",
"81 406 CURVE SMOOTH",
"22 535 OFFCURVE",
"95 665 OFFCURVE",
"215 676 CURVE SMOOTH",
"315 685 OFFCURVE",
"384 639 OFFCURVE",
"473 610 CURVE SMOOTH",
"557 582 OFFCURVE",
"659 580 OFFCURVE",
"738 626 CURVE SMOOTH"
);
}
);
width = 733;
}
);
note = E;
unicode = 0045;
},
{
glyphname = F;
lastChange = "2021-09-30 20:19:48 +0000";
layers = (
{
hints = (
{
horizontal = 1;
place = "{-27, 20}";
type = Stem;
},
{
horizontal = 1;
place = "{168, 20}";
type = Stem;
},
{
horizontal = 1;
place = "{289, 20}";
type = Stem;
},
{
horizontal = 1;
place = "{350, 20}";
type = Stem;
},
{
horizontal = 1;
place = "{495, -20}";
target = down;
type = TopGhost;
},
{
horizontal = 1;
place = "{700, -20}";
target = down;
type = TopGhost;
},
{
horizontal = 1;
place = "{750, -20}";
target = down;
type = TopGhost;
},
{
place = "{34, 20}";
type = Stem;
},
{
place = "{110, 20}";
type = Stem;
},
{
place = "{139, 20}";
type = Stem;
},
{
place = "{185, 20}";
type = Stem;
},
{
place = "{458, 19}";
type = Stem;
},
{
place = "{502, 20}";
type = Stem;
},
{
place = "{779, 285}";
type = Stem;
}
);
layerId = "6B4F01CB-8044-4D82-912B-2C5A8D883AAC";
paths = (
{
closed = 1;
nodes = (
"1049 363 OFFCURVE",
"1018 340 OFFCURVE",
"1006 335 CURVE SMOOTH",
"939 305 OFFCURVE",
"772 305 OFFCURVE",
"733 306 CURVE SMOOTH",
"723 306 OFFCURVE",
"706 273 OFFCURVE",
"664 227 CURVE SMOOTH",
"576 135 OFFCURVE",
"412 -7 OFFCURVE",
"205 -7 CURVE SMOOTH",
"126 -7 OFFCURVE",
"39 27 OFFCURVE",
"57 110 CURVE SMOOTH",
"78 210 OFFCURVE",
"212 278 OFFCURVE",
"337 278 CURVE SMOOTH",
"371 278 OFFCURVE",
"456 267 OFFCURVE",
"489 236 CURVE SMOOTH",
"518 209 OFFCURVE",
"493 168 OFFCURVE",
"459 200 CURVE SMOOTH",
"439 219 OFFCURVE",
"398 248 OFFCURVE",
"334 248 CURVE SMOOTH",
"108 248 OFFCURVE",
"18 30 OFFCURVE",
"231 30 CURVE SMOOTH",
"333 30 OFFCURVE",
"504 115 OFFCURVE",
"624 261 CURVE SMOOTH",
"632 271 OFFCURVE",
"617 284 OFFCURVE",
"608 273 CURVE SMOOTH",
"490 131 OFFCURVE",
"325 50 OFFCURVE",
"231 50 CURVE SMOOTH",
"42 50 OFFCURVE",
"142 228 OFFCURVE",
"334 228 CURVE SMOOTH",
"391 228 OFFCURVE",
"428 202 OFFCURVE",
"445 186 CURVE SMOOTH",
"498 136 OFFCURVE",
"552 205 OFFCURVE",
"503 251 CURVE SMOOTH",
"463 288 OFFCURVE",
"371 298 OFFCURVE",
"337 298 CURVE SMOOTH",
"209 298 OFFCURVE",
"61 229 OFFCURVE",
"37 114 CURVE SMOOTH",
"14 7 OFFCURVE",
"129 -27 OFFCURVE",
"205 -27 CURVE SMOOTH",
"330 -27 OFFCURVE",
"538 31 OFFCURVE",
"738 286 CURVE",
"783 285 OFFCURVE",
"945 286 OFFCURVE",
"1014 317 CURVE SMOOTH",
"1082 347 OFFCURVE",
"1078 424 OFFCURVE",
"1021 397 CURVE SMOOTH",
"949 362 OFFCURVE",
"866 370 OFFCURVE",
"789 370 CURVE SMOOTH",
"776 370 OFFCURVE",
"776 350 OFFCURVE",
"789 350 CURVE SMOOTH",
"869 350 OFFCURVE",
"955 342 OFFCURVE",
"1030 379 CURVE SMOOTH",
"1041 384 OFFCURVE",
"1044 382 OFFCURVE",
"1044 382 CURVE"
);
},
{
closed = 1;
nodes = (
"890 587 OFFCURVE",
"874 600 OFFCURVE",
"866 589 CURVE SMOOTH",
"837 552 OFFCURVE",
"756 451 OFFCURVE",
"693 371 CURVE",
"625 379 OFFCURVE",
"561 406 OFFCURVE",
"491 399 CURVE SMOOTH",
"446 395 OFFCURVE",
"455 331 OFFCURVE",
"474 317 CURVE SMOOTH",
"505 294 OFFCURVE",
"608 292 OFFCURVE",
"647 289 CURVE SMOOTH",
"661 288 OFFCURVE",
"662 308 OFFCURVE",
"649 309 CURVE SMOOTH",
"616 312 OFFCURVE",
"511 315 OFFCURVE",
"486 333 CURVE SMOOTH",
"471 344 OFFCURVE",
"478 378 OFFCURVE",
"493 379 CURVE SMOOTH",
"527 382 OFFCURVE",
"566 376 OFFCURVE",
"603 369 CURVE SMOOTH",
"611 367 OFFCURVE",
"697 344 OFFCURVE",
"706 355 CURVE SMOOTH",
"768 435 OFFCURVE",
"852 539 OFFCURVE",
"882 577 CURVE SMOOTH"
);
},
{
closed = 1;
nodes = (
"1064 619 OFFCURVE",
"1046 642 OFFCURVE",
"1021 660 CURVE SMOOTH",
"929 724 OFFCURVE",
"719 750 OFFCURVE",
"615 750 CURVE SMOOTH",
"531 750 OFFCURVE",
"352 743 OFFCURVE",
"245 682 CURVE SMOOTH",
"193 652 OFFCURVE",
"139 599 OFFCURVE",
"139 535 CURVE SMOOTH",
"139 454 OFFCURVE",
"205 464 OFFCURVE",
"205 515 CURVE SMOOTH",
"205 554 OFFCURVE",
"240 595 OFFCURVE",
"274 618 CURVE SMOOTH",
"405 705 OFFCURVE",
"760 699 OFFCURVE",
"890 616 CURVE SMOOTH",
"901 609 OFFCURVE",
"912 625 OFFCURVE",
"900 632 CURVE SMOOTH",
"765 719 OFFCURVE",
"401 726 OFFCURVE",
"262 634 CURVE SMOOTH",
"227 611 OFFCURVE",
"185 565 OFFCURVE",
"185 515 CURVE SMOOTH",
"185 487 OFFCURVE",
"159 485 OFFCURVE",
"159 535 CURVE SMOOTH",
"159 588 OFFCURVE",
"204 635 OFFCURVE",
"255 664 CURVE SMOOTH",
"357 723 OFFCURVE",
"530 730 OFFCURVE",
"615 730 CURVE SMOOTH",
"707 730 OFFCURVE",
"820 714 OFFCURVE",
"906 688 CURVE SMOOTH",
"932 680 OFFCURVE",
"1050 643 OFFCURVE",
"1038 597 CURVE SMOOTH",
"1033 579 OFFCURVE",
"1022 576 OFFCURVE",
"1009 578 CURVE SMOOTH",
"984 582 OFFCURVE",
"962 610 OFFCURVE",
"952 597 CURVE",
"952 597 OFFCURVE",
"833 445 OFFCURVE",
"804 406 CURVE SMOOTH",
"796 395 OFFCURVE",
"812 383 OFFCURVE",
"820 394 CURVE SMOOTH",
"845 428 OFFCURVE",
"937 546 OFFCURVE",
"961 577 CURVE",
"992 557 OFFCURVE",
"1043 540 OFFCURVE",
"1057 592 CURVE SMOOTH"
);
}
);
width = 990;
}
);
note = F;
unicode = 0046;
},
{
glyphname = G;
layers = (
{
hints = (
{
horizontal = 1;
place = "{-293, 20}";
type = Stem;
},
{
horizontal = 1;
place = "{-234, 20}";
type = Stem;
},
{
horizontal = 1;
place = "{-147, 20}";
type = Stem;
},
{
horizontal = 1;
place = "{-34, 20}";
type = Stem;
},
{
horizontal = 1;
place = "{396, -20}";
target = down;
type = TopGhost;
},
{
horizontal = 1;
place = "{731, -20}";
target = down;
type = TopGhost;
},
{
place = "{8, 20}";
type = Stem;
},
{
place = "{87, 20}";
type = Stem;
},
{
place = "{758, 20}";
type = Stem;
},
{
place = "{782, 20}";
type = Stem;
},
{
place = "{805, 20}";
type = Stem;
}
);
layerId = "6B4F01CB-8044-4D82-912B-2C5A8D883AAC";
paths = (
{
closed = 1;
nodes = (
"832 401 OFFCURVE",
"759 429 OFFCURVE",
"718 382 CURVE SMOOTH",
"610 256 OFFCURVE",
"421 44 OFFCURVE",
"258 44 CURVE SMOOTH",
"163 44 OFFCURVE",
"107 104 OFFCURVE",
"107 198 CURVE SMOOTH",
"107 412 OFFCURVE",
"391 661 OFFCURVE",
"598 661 CURVE SMOOTH",
"882 661 OFFCURVE",
"736 439 OFFCURVE",
"558 439 CURVE SMOOTH",
"514 439 OFFCURVE",
"423 472 OFFCURVE",
"415 512 CURVE SMOOTH",
"413 525 OFFCURVE",
"393 522 OFFCURVE",
"395 509 CURVE SMOOTH",
"405 451 OFFCURVE",
"515 419 OFFCURVE",
"558 419 CURVE SMOOTH",
"766 419 OFFCURVE",
"908 681 OFFCURVE",
"598 681 CURVE SMOOTH",
"382 681 OFFCURVE",
"87 425 OFFCURVE",
"87 198 CURVE SMOOTH",
"87 93 OFFCURVE",
"151 24 OFFCURVE",
"258 24 CURVE SMOOTH",
"433 24 OFFCURVE",
"628 246 OFFCURVE",
"734 368 CURVE SMOOTH",
"747 384 OFFCURVE",
"765 387 OFFCURVE",
"774 381 CURVE SMOOTH",
"782 376 OFFCURVE",
"791 358 OFFCURVE",
"771 314 CURVE SMOOTH",
"707 175 OFFCURVE",
"528 -84 OFFCURVE",
"379 -202 CURVE SMOOTH",
"328 -243 OFFCURVE",
"252 -272 OFFCURVE",
"190 -273 CURVE SMOOTH",
"130 -274 OFFCURVE",
"87 -249 OFFCURVE",
"91 -183 CURVE SMOOTH",
"93 -143 OFFCURVE",
"118 -128 OFFCURVE",
"133 -182 CURVE SMOOTH",
"151 -245 OFFCURVE",
"205 -241 OFFCURVE",
"251 -222 CURVE SMOOTH",
"396 -161 OFFCURVE",
"584 82 OFFCURVE",
"668 207 CURVE SMOOTH",
"675 218 OFFCURVE",
"659 229 OFFCURVE",
"651 218 CURVE SMOOTH",
"601 143 OFFCURVE",
"473 -27 OFFCURVE",
"354 -130 CURVE SMOOTH",
"319 -161 OFFCURVE",
"179 -272 OFFCURVE",
"152 -176 CURVE SMOOTH",
"138 -124 OFFCURVE",
"76 -97 OFFCURVE",
"71 -181 CURVE SMOOTH",
"67 -264 OFFCURVE",
"124 -294 OFFCURVE",
"191 -293 CURVE SMOOTH",
"257 -292 OFFCURVE",
"337 -261 OFFCURVE",
"391 -218 CURVE SMOOTH",
"544 -97 OFFCURVE",
"724 164 OFFCURVE",
"789 306 CURVE SMOOTH"
);
},
{
closed = 1;
nodes = (
"930 711 OFFCURVE",
"822 396 OFFCURVE",
"550 396 CURVE SMOOTH",
"484 396 OFFCURVE",
"386 420 OFFCURVE",
"379 488 CURVE SMOOTH",
"378 501 OFFCURVE",
"358 499 OFFCURVE",
"359 486 CURVE SMOOTH",
"368 399 OFFCURVE",
"487 376 OFFCURVE",
"550 376 CURVE SMOOTH",
"851 376 OFFCURVE",
"956 731 OFFCURVE",
"605 731 CURVE SMOOTH",
"342 731 OFFCURVE",
"8 480 OFFCURVE",
"8 196 CURVE SMOOTH",
"8 54 OFFCURVE",
"103 -34 OFFCURVE",
"242 -34 CURVE SMOOTH",
"336 -34 OFFCURVE",
"436 -1 OFFCURVE",
"506 64 CURVE SMOOTH",
"516 73 OFFCURVE",
"502 88 OFFCURVE",
"492 79 CURVE SMOOTH",
"427 17 OFFCURVE",
"332 -14 OFFCURVE",
"242 -14 CURVE SMOOTH",
"113 -14 OFFCURVE",
"28 66 OFFCURVE",
"28 196 CURVE SMOOTH",
"28 465 OFFCURVE",
"350 711 OFFCURVE",
"605 711 CURVE SMOOTH"
);
}
);
width = 733;
}
);
note = G;
unicode = 0047;
},
{
glyphname = H;
lastChange = "2021-09-30 06:16:13 +0000";
layers = (
{
hints = (
{
horizontal = 1;
place = "{-3, 20}";
type = Stem;
},
{
horizontal = 1;
place = "{65, 20}";
type = Stem;
},
{
horizontal = 1;
place = "{284, 20}";
type = Stem;
},
{
horizontal = 1;
place = "{378, -20}";
target = down;
type = TopGhost;
},
{
horizontal = 1;
place = "{383, 19}";
type = Stem;
},
{
horizontal = 1;
place = "{750, -20}";
target = down;
type = TopGhost;
},
{
place = "{-21, 20}";
type = Stem;
},
{
place = "{45, 20}";
type = Stem;
},
{
place = "{140, 20}";
type = Stem;
},
{
place = "{185, 20}";
type = Stem;
},
{
place = "{875, 19}";
type = Stem;
},
{
place = "{967, 20}";
type = Stem;
}
);
layerId = "6B4F01CB-8044-4D82-912B-2C5A8D883AAC";
paths = (
{
closed = 1;
nodes = (
"1064 619 OFFCURVE",
"1046 642 OFFCURVE",
"1021 660 CURVE SMOOTH",
"929 724 OFFCURVE",
"719 750 OFFCURVE",
"615 750 CURVE SMOOTH",
"531 750 OFFCURVE",
"352 743 OFFCURVE",
"245 682 CURVE SMOOTH",
"193 652 OFFCURVE",
"139 599 OFFCURVE",
"139 535 CURVE SMOOTH",
"139 454 OFFCURVE",
"205 464 OFFCURVE",
"205 515 CURVE SMOOTH",
"205 554 OFFCURVE",
"240 595 OFFCURVE",
"274 618 CURVE SMOOTH",
"402 703 OFFCURVE",
"745 698 OFFCURVE",
"881 621 CURVE",
"772 455 OFFCURVE",
"479 35 OFFCURVE",
"277 17 CURVE SMOOTH",
"-31 -11 OFFCURVE",
"2 307 OFFCURVE",
"338 337 CURVE SMOOTH",
"414 344 OFFCURVE",
"471 324 OFFCURVE",
"511 304 CURVE SMOOTH",
"535 292 OFFCURVE",
"555 277 OFFCURVE",
"578 265 CURVE SMOOTH",
"602 252 OFFCURVE",
"619 271 OFFCURVE",
"615 295 CURVE SMOOTH",
"600 398 OFFCURVE",
"389 409 OFFCURVE",
"313 402 CURVE SMOOTH",
"132 386 OFFCURVE",
"-43 272 OFFCURVE",
"-19 112 CURVE SMOOTH",
"2 -32 OFFCURVE",
"171 -66 OFFCURVE",
"282 -56 CURVE SMOOTH",
"460 -41 OFFCURVE",
"676 184 OFFCURVE",
"755 289 CURVE SMOOTH",
"763 300 OFFCURVE",
"747 312 OFFCURVE",
"739 301 CURVE SMOOTH",
"660 195 OFFCURVE",
"449 -21 OFFCURVE",
"280 -36 CURVE SMOOTH",
"169 -46 OFFCURVE",
"18 -10 OFFCURVE",
"0 115 CURVE SMOOTH",
"-21 256 OFFCURVE",
"135 367 OFFCURVE",
"315 382 CURVE SMOOTH",
"379 388 OFFCURVE",
"582 379 OFFCURVE",
"595 292 CURVE SMOOTH",
"595 290 OFFCURVE",
"596 281 OFFCURVE",
"592 281 CURVE",
"585 283 OFFCURVE",
"578 288 OFFCURVE",
"572 292 CURVE SMOOTH",
"497 340 OFFCURVE",
"429 365 OFFCURVE",
"336 357 CURVE SMOOTH",
"-29 324 OFFCURVE",
"-55 -33 OFFCURVE",
"278 -3 CURVE SMOOTH",
"494 16 OFFCURVE",
"789 446 OFFCURVE",
"903 618 CURVE SMOOTH",
"906 623 OFFCURVE",
"905 630 OFFCURVE",
"900 632 CURVE",
"765 719 OFFCURVE",
"401 726 OFFCURVE",
"262 634 CURVE SMOOTH",
"227 611 OFFCURVE",
"185 565 OFFCURVE",
"185 515 CURVE SMOOTH",
"185 487 OFFCURVE",
"159 485 OFFCURVE",
"159 535 CURVE SMOOTH",
"159 588 OFFCURVE",
"204 635 OFFCURVE",
"255 664 CURVE SMOOTH",
"357 723 OFFCURVE",
"530 730 OFFCURVE",
"615 730 CURVE SMOOTH",
"707 730 OFFCURVE",
"820 714 OFFCURVE",
"906 688 CURVE SMOOTH",
"932 680 OFFCURVE",
"1050 643 OFFCURVE",
"1038 597 CURVE SMOOTH",
"1033 579 OFFCURVE",
"1022 576 OFFCURVE",
"1009 578 CURVE SMOOTH",
"984 582 OFFCURVE",
"961 611 OFFCURVE",
"951 596 CURVE",
"951 596 OFFCURVE",
"862 456 OFFCURVE",
"804 374 CURVE SMOOTH",
"798 366 OFFCURVE",
"802 358 OFFCURVE",
"812 358 CURVE SMOOTH",
"995 358 LINE SMOOTH",
"1008 358 OFFCURVE",
"1008 378 OFFCURVE",
"995 378 CURVE SMOOTH",
"831 378 LINE",
"880 448 OFFCURVE",
"943 547 OFFCURVE",
"962 577 CURVE",
"993 556 OFFCURVE",
"1043 540 OFFCURVE",
"1057 592 CURVE SMOOTH"
);
},
{
closed = 1;
nodes = (
"1153 57 OFFCURVE",
"1142 74 OFFCURVE",
"1131 67 CURVE SMOOTH",
"1084 36 OFFCURVE",
"1032 10 OFFCURVE",
"983 10 CURVE SMOOTH",
"822 10 OFFCURVE",
"917 221 OFFCURVE",
"961 288 CURVE SMOOTH",
"966 296 OFFCURVE",
"963 303 OFFCURVE",
"953 303 CURVE SMOOTH",
"804 304 LINE SMOOTH",
"791 304 OFFCURVE",
"791 284 OFFCURVE",
"804 284 CURVE SMOOTH",
"935 284 LINE",
"888 202 OFFCURVE",
"805 -10 OFFCURVE",
"983 -10 CURVE SMOOTH",
"1038 -10 OFFCURVE",
"1094 19 OFFCURVE",
"1142 50 CURVE SMOOTH"
);
},
{
closed = 1;
nodes = (
"1496 828 OFFCURVE",
"1349 750 OFFCURVE",
"1323 733 CURVE SMOOTH",
"1234 673 OFFCURVE",
"1125 556 OFFCURVE",
"1016 401 CURVE SMOOTH",
"1008 390 OFFCURVE",
"1025 378 OFFCURVE",
"1032 389 CURVE SMOOTH",
"1141 544 OFFCURVE",
"1248 658 OFFCURVE",
"1335 717 CURVE SMOOTH",
"1386 752 OFFCURVE",
"1435 760 OFFCURVE",
"1459 764 CURVE SMOOTH",
"1494 769 OFFCURVE",
"1506 727 OFFCURVE",
"1465 721 CURVE SMOOTH",
"1303 698 OFFCURVE",
"1100 400 OFFCURVE",
"1026 275 CURVE SMOOTH",
"1001 233 OFFCURVE",
"908 65 OFFCURVE",
"1025 65 CURVE SMOOTH",
"1090 65 OFFCURVE",
"1178 108 OFFCURVE",
"1230 182 CURVE SMOOTH",
"1236 190 OFFCURVE",
"1222 205 OFFCURVE",
"1214 194 CURVE SMOOTH",
"1164 124 OFFCURVE",
"1081 85 OFFCURVE",
"1025 85 CURVE SMOOTH",
"937 85 OFFCURVE",
"1026 235 OFFCURVE",
"1043 265 CURVE SMOOTH",
"1119 394 OFFCURVE",
"1317 680 OFFCURVE",
"1467 701 CURVE SMOOTH",
"1499 706 OFFCURVE",
"1514 728 OFFCURVE",
"1510 750 CURVE SMOOTH"
);
}
);
width = 1222;
}
);
note = H;
unicode = 0048;
},
{
glyphname = I;
layers = (
{
hints = (
{
horizontal = 1;
place = "{-56, 20}";
type = Stem;
},
{
horizontal = 1;
place = "{-3, 20}";
type = Stem;
},
{
horizontal = 1;
place = "{358, -20}";
target = down;
type = TopGhost;
},
{
horizontal = 1;
place = "{393, 21}";
target = up;
type = BottomGhost;
},
{
horizontal = 1;
place = "{489, -20}";
target = down;
type = TopGhost;
},
{
horizontal = 1;
place = "{577, -20}";
target = down;
type = TopGhost;
},
{
horizontal = 1;
place = "{684, -20}";
target = down;
type = TopGhost;
},
{
horizontal = 1;
place = "{754, -20}";
target = down;
type = TopGhost;
},
{
place = "{-21, 20}";
type = Stem;
},
{
place = "{45, 20}";
type = Stem;
},
{
place = "{496, 20}";
type = Stem;
},
{
place = "{547, 20}";
type = Stem;
},
{
place = "{1039, 20}";
type = Stem;
}
);
layerId = "6B4F01CB-8044-4D82-912B-2C5A8D883AAC";
paths = (
{
closed = 1;
nodes = (
"1091 720 OFFCURVE",
"673 830 OFFCURVE",
"549 684 CURVE SMOOTH",
"522 652 OFFCURVE",
"495 598 OFFCURVE",
"495 534 CURVE SMOOTH",
"495 449 OFFCURVE",
"566 456 OFFCURVE",
"566 509 CURVE SMOOTH",
"566 603 OFFCURVE",
"619 664 OFFCURVE",
"714 664 CURVE SMOOTH",
"773 664 OFFCURVE",
"839 643 OFFCURVE",
"881 621 CURVE",
"772 455 OFFCURVE",
"479 35 OFFCURVE",
"277 17 CURVE SMOOTH",
"-31 -11 OFFCURVE",
"2 307 OFFCURVE",
"338 337 CURVE SMOOTH",
"414 344 OFFCURVE",
"471 324 OFFCURVE",
"511 304 CURVE SMOOTH",
"535 292 OFFCURVE",
"555 277 OFFCURVE",
"578 265 CURVE SMOOTH",
"602 252 OFFCURVE",
"618 271 OFFCURVE",
"615 295 CURVE SMOOTH",
"600 397 OFFCURVE",
"390 420 OFFCURVE",
"312 413 CURVE SMOOTH",
"130 397 OFFCURVE",
"-43 272 OFFCURVE",
"-19 112 CURVE SMOOTH",
"2 -32 OFFCURVE",
"171 -66 OFFCURVE",
"282 -56 CURVE SMOOTH",
"461 -41 OFFCURVE",
"725 161 OFFCURVE",
"944 543 CURVE SMOOTH",
"951 555 OFFCURVE",
"933 565 OFFCURVE",
"926 553 CURVE SMOOTH",
"708 173 OFFCURVE",
"449 -21 OFFCURVE",
"280 -36 CURVE SMOOTH",
"169 -46 OFFCURVE",
"18 -10 OFFCURVE",
"0 115 CURVE SMOOTH",
"-21 256 OFFCURVE",
"135 377 OFFCURVE",
"314 393 CURVE SMOOTH",
"380 399 OFFCURVE",
"582 379 OFFCURVE",
"595 292 CURVE SMOOTH",
"595 290 OFFCURVE",
"596 281 OFFCURVE",
"592 281 CURVE",
"585 283 OFFCURVE",
"578 288 OFFCURVE",
"572 292 CURVE SMOOTH",
"497 340 OFFCURVE",
"429 365 OFFCURVE",
"336 357 CURVE SMOOTH",
"-29 324 OFFCURVE",
"-55 -33 OFFCURVE",
"278 -3 CURVE SMOOTH",
"494 16 OFFCURVE",
"789 446 OFFCURVE",
"903 618 CURVE SMOOTH",
"906 623 OFFCURVE",
"905 630 OFFCURVE",
"900 633 CURVE SMOOTH",
"857 658 OFFCURVE",
"782 684 OFFCURVE",
"714 684 CURVE SMOOTH",
"607 684 OFFCURVE",
"546 613 OFFCURVE",
"546 509 CURVE SMOOTH",
"546 479 OFFCURVE",
"515 480 OFFCURVE",
"515 534 CURVE SMOOTH",
"515 592 OFFCURVE",
"540 642 OFFCURVE",
"565 672 CURVE SMOOTH",
"678 804 OFFCURVE",
"1065 698 OFFCURVE",
"1038 597 CURVE SMOOTH",
"1028 559 OFFCURVE",
"984 585 OFFCURVE",
"965 599 CURVE SMOOTH",
"955 607 OFFCURVE",
"943 591 OFFCURVE",
"953 583 CURVE SMOOTH",
"984 560 OFFCURVE",
"1042 536 OFFCURVE",
"1057 592 CURVE SMOOTH"
);
}
);
width = 913;
}
);
note = I;
unicode = 0049;
},
{
glyphname = J;
layers = (
{
hints = (
{
horizontal = 1;
place = "{-253, 21}";
type = Stem;
},
{
horizontal = 1;
place = "{-185, 20}";
type = Stem;
},
{
horizontal = 1;
place = "{153, 20}";
type = Stem;
},
{
horizontal = 1;
place = "{213, 20}";
type = Stem;
},
{
horizontal = 1;
place = "{577, -20}";
target = down;
type = TopGhost;
},
{
horizontal = 1;
place = "{684, -20}";
target = down;
type = TopGhost;
},
{
horizontal = 1;
place = "{754, -20}";
target = down;
type = TopGhost;
},
{
place = "{-137, 20}";
type = Stem;
},
{
place = "{-45, 20}";
type = Stem;
},
{
place = "{496, 20}";
type = Stem;
},
{
place = "{547, 20}";
type = Stem;
},
{
place = "{1039, 20}";
type = Stem;
}
);
layerId = "6B4F01CB-8044-4D82-912B-2C5A8D883AAC";
paths = (
{
closed = 1;
nodes = (
"1091 720 OFFCURVE",
"673 830 OFFCURVE",
"549 684 CURVE SMOOTH",
"522 652 OFFCURVE",
"495 598 OFFCURVE",
"495 534 CURVE SMOOTH",
"495 449 OFFCURVE",
"566 456 OFFCURVE",
"566 509 CURVE SMOOTH",
"566 603 OFFCURVE",
"619 664 OFFCURVE",
"714 664 CURVE SMOOTH",
"773 664 OFFCURVE",
"839 643 OFFCURVE",
"881 620 CURVE",
"745 411 OFFCURVE",
"606 198 OFFCURVE",
"435 15 CURVE SMOOTH",
"10 -441 OFFCURVE",
"-250 110 OFFCURVE",
"239 153 CURVE SMOOTH",
"302 159 OFFCURVE",
"358 155 OFFCURVE",
"404 113 CURVE SMOOTH",
"444 77 OFFCURVE",
"465 135 OFFCURVE",
"458 147 CURVE SMOOTH",
"418 219 OFFCURVE",
"281 239 OFFCURVE",
"217 233 CURVE SMOOTH",
"-445 174 OFFCURVE",
"-81 -608 OFFCURVE",
"500 -57 CURVE SMOOTH",
"659 94 OFFCURVE",
"818 322 OFFCURVE",
"944 543 CURVE SMOOTH",
"951 555 OFFCURVE",
"933 565 OFFCURVE",
"926 553 CURVE SMOOTH",
"800 333 OFFCURVE",
"643 106 OFFCURVE",
"486 -43 CURVE SMOOTH",
"-66 -567 OFFCURVE",
"-408 157 OFFCURVE",
"219 213 CURVE SMOOTH",
"282 219 OFFCURVE",
"405 197 OFFCURVE",
"440 138 CURVE",
"439 137 LINE",
"438 132 OFFCURVE",
"431 121 OFFCURVE",
"426 121 CURVE",
"424 122 OFFCURVE",
"421 125 OFFCURVE",
"418 128 CURVE SMOOTH",
"366 174 OFFCURVE",
"306 178 OFFCURVE",
"237 172 CURVE SMOOTH",
"-288 125 OFFCURVE",
"-3 -484 OFFCURVE",
"449 1 CURVE SMOOTH",
"553 112 OFFCURVE",
"659 255 OFFCURVE",
"742 375 CURVE SMOOTH",
"826 496 OFFCURVE",
"887 594 OFFCURVE",
"903 618 CURVE SMOOTH",
"906 623 OFFCURVE",
"905 630 OFFCURVE",
"900 633 CURVE SMOOTH",
"857 658 OFFCURVE",
"782 684 OFFCURVE",
"714 684 CURVE SMOOTH",
"607 684 OFFCURVE",
"546 613 OFFCURVE",
"546 509 CURVE SMOOTH",
"546 479 OFFCURVE",
"515 480 OFFCURVE",
"515 534 CURVE SMOOTH",
"515 592 OFFCURVE",
"540 642 OFFCURVE",
"565 672 CURVE SMOOTH",
"678 804 OFFCURVE",
"1065 698 OFFCURVE",
"1038 597 CURVE SMOOTH",
"1028 559 OFFCURVE",
"984 585 OFFCURVE",
"965 599 CURVE SMOOTH",
"955 607 OFFCURVE",
"943 591 OFFCURVE",
"953 583 CURVE SMOOTH",
"984 560 OFFCURVE",
"1042 536 OFFCURVE",
"1057 592 CURVE SMOOTH"
);
}
);
width = 808;
}
);
note = J;
unicode = 004A;
},
{
glyphname = K;
lastChange = "2021-09-30 04:31:03 +0000";
layers = (
{
hints = (
{
horizontal = 1;
place = "{-96, 20}";
type = Stem;
},
{
horizontal = 1;
place = "{-56, 20}";
type = Stem;
},
{
horizontal = 1;
place = "{-31, 20}";
type = Stem;
},
{
horizontal = 1;
place = "{-3, 20}";
type = Stem;
},
{
horizontal = 1;
place = "{393, 21}";
target = up;
type = BottomGhost;
},
{
horizontal = 1;
place = "{598, -20}";
target = down;
type = TopGhost;
},
{
horizontal = 1;
place = "{684, -20}";
target = down;
type = TopGhost;
},
{
horizontal = 1;
place = "{753, -20}";
target = down;
type = TopGhost;
},
{
place = "{-21, 20}";
type = Stem;
},
{
place = "{45, 20}";
type = Stem;
},
{
place = "{496, 20}";
type = Stem;
},
{
place = "{547, 20}";
type = Stem;
},
{
place = "{763, 20}";
type = Stem;
},
{
place = "{1018, 20}";
type = Stem;
}
);
layerId = "6B4F01CB-8044-4D82-912B-2C5A8D883AAC";
paths = (
{
closed = 1;
nodes = (
"836 770 OFFCURVE",
"652 781 OFFCURVE",
"570 684 CURVE SMOOTH",
"543 652 OFFCURVE",
"516 598 OFFCURVE",
"516 534 CURVE SMOOTH",
"516 449 OFFCURVE",
"587 456 OFFCURVE",
"587 509 CURVE SMOOTH",
"587 603 OFFCURVE",
"640 664 OFFCURVE",
"735 664 CURVE SMOOTH",
"794 664 OFFCURVE",
"860 643 OFFCURVE",
"902 621 CURVE",
"793 455 OFFCURVE",
"500 35 OFFCURVE",
"298 17 CURVE SMOOTH",
"-10 -11 OFFCURVE",
"23 307 OFFCURVE",
"359 337 CURVE SMOOTH",
"435 344 OFFCURVE",
"492 324 OFFCURVE",
"532 304 CURVE SMOOTH",
"556 292 OFFCURVE",
"576 277 OFFCURVE",
"599 265 CURVE SMOOTH",
"623 252 OFFCURVE",
"639 271 OFFCURVE",
"636 295 CURVE SMOOTH",
"621 397 OFFCURVE",
"411 420 OFFCURVE",
"333 413 CURVE SMOOTH",
"151 397 OFFCURVE",
"-22 272 OFFCURVE",
"2 112 CURVE SMOOTH",
"23 -32 OFFCURVE",
"192 -66 OFFCURVE",
"303 -56 CURVE SMOOTH",
"482 -41 OFFCURVE",
"746 161 OFFCURVE",
"965 543 CURVE SMOOTH",
"972 555 OFFCURVE",
"954 565 OFFCURVE",
"947 553 CURVE SMOOTH",
"729 173 OFFCURVE",
"470 -21 OFFCURVE",
"301 -36 CURVE SMOOTH",
"190 -46 OFFCURVE",
"39 -10 OFFCURVE",
"21 115 CURVE SMOOTH",
"0 256 OFFCURVE",
"156 377 OFFCURVE",
"335 393 CURVE SMOOTH",
"401 399 OFFCURVE",
"603 379 OFFCURVE",
"616 292 CURVE SMOOTH",
"616 290 OFFCURVE",
"617 281 OFFCURVE",
"613 281 CURVE",
"606 283 OFFCURVE",
"599 288 OFFCURVE",
"593 292 CURVE SMOOTH",
"518 340 OFFCURVE",
"450 365 OFFCURVE",
"357 357 CURVE SMOOTH",
"-8 324 OFFCURVE",
"-34 -33 OFFCURVE",
"299 -3 CURVE SMOOTH",
"515 16 OFFCURVE",
"810 446 OFFCURVE",
"924 618 CURVE SMOOTH",
"927 623 OFFCURVE",
"926 630 OFFCURVE",
"921 633 CURVE SMOOTH",
"878 658 OFFCURVE",
"803 684 OFFCURVE",
"735 684 CURVE SMOOTH",
"628 684 OFFCURVE",
"567 613 OFFCURVE",
"567 509 CURVE SMOOTH",
"567 479 OFFCURVE",
"536 480 OFFCURVE",
"536 534 CURVE SMOOTH",
"536 592 OFFCURVE",
"561 642 OFFCURVE",
"586 672 CURVE SMOOTH",
"658 756 OFFCURVE",
"828 752 OFFCURVE",
"1013 665 CURVE SMOOTH",
"1078 634 OFFCURVE",
"999 591 OFFCURVE",
"986 600 CURVE SMOOTH",
"974 607 OFFCURVE",
"964 590 OFFCURVE",
"975 583 CURVE SMOOTH",
"1013 559 OFFCURVE",
"1112 640 OFFCURVE",
"1021 683 CURVE SMOOTH"
);
},
{
closed = 1;
nodes = (
"1601 729 OFFCURVE",
"1528 753 OFFCURVE",
"1443 753 CURVE SMOOTH",
"1266 753 OFFCURVE",
"730 334 OFFCURVE",
"788 150 CURVE SMOOTH",
"822 41 OFFCURVE",
"915 -96 OFFCURVE",
"1087 -96 CURVE SMOOTH",
"1202 -96 OFFCURVE",
"1275 -36 OFFCURVE",
"1352 37 CURVE SMOOTH",
"1362 46 OFFCURVE",
"1348 60 OFFCURVE",
"1338 51 CURVE SMOOTH",
"1265 -17 OFFCURVE",
"1196 -76 OFFCURVE",
"1087 -76 CURVE SMOOTH",
"927 -76 OFFCURVE",
"840 51 OFFCURVE",
"807 156 CURVE SMOOTH",
"756 318 OFFCURVE",
"1268 733 OFFCURVE",
"1443 733 CURVE SMOOTH",
"1529 733 OFFCURVE",
"1587 709 OFFCURVE",
"1599 678 CURVE SMOOTH",
"1603 666 OFFCURVE",
"1598 660 OFFCURVE",
"1587 656 CURVE SMOOTH",
"1549 644 OFFCURVE",
"1517 684 OFFCURVE",
"1459 684 CURVE SMOOTH",
"1355 684 OFFCURVE",
"1162 549 OFFCURVE",
"1026 417 CURVE SMOOTH",
"939 332 OFFCURVE",
"875 250 OFFCURVE",
"875 203 CURVE SMOOTH",
"875 201 LINE SMOOTH",
"875 101 OFFCURVE",
"986 -31 OFFCURVE",
"1089 -31 CURVE SMOOTH",
"1198 -31 OFFCURVE",
"1336 99 OFFCURVE",
"1397 182 CURVE SMOOTH",
"1405 192 OFFCURVE",
"1389 206 OFFCURVE",
"1381 194 CURVE SMOOTH",
"1326 118 OFFCURVE",
"1188 -11 OFFCURVE",
"1089 -11 CURVE SMOOTH",
"1000 -11 OFFCURVE",
"907 109 OFFCURVE",
"895 202 CURVE",
"902 243 OFFCURVE",
"960 321 OFFCURVE",
"1039 399 CURVE SMOOTH",
"1170 529 OFFCURVE",
"1359 664 OFFCURVE",
"1459 664 CURVE SMOOTH",
"1484 664 OFFCURVE",
"1530 647 OFFCURVE",
"1547 638 CURVE SMOOTH",
"1576 622 OFFCURVE",
"1634 642 OFFCURVE",
"1617 686 CURVE SMOOTH"
);
}
);
width = 1389;
}
);
note = K;
unicode = 004B;
},
{
glyphname = L;
lastChange = "2021-09-30 04:31:43 +0000";
layers = (
{
hints = (
{
horizontal = 1;
place = "{-46, 20}";
type = Stem;
},
{
horizontal = 1;
place = "{16, 20}";
type = Stem;
},
{
horizontal = 1;
place = "{138, 20}";
type = Stem;
},
{
horizontal = 1;
place = "{199, 20}";
type = Stem;
},
{
horizontal = 1;
place = "{491, -20}";
target = down;
type = TopGhost;
},
{
horizontal = 1;
place = "{747, -20}";
target = down;
type = TopGhost;
},
{
horizontal = 1;
place = "{813, -20}";
target = down;
type = TopGhost;
},
{
place = "{-36, 20}";
type = Stem;
},
{
place = "{1007, 20}";
type = Stem;
},
{
place = "{1072, 22}";
type = Stem;
}
);
layerId = "6B4F01CB-8044-4D82-912B-2C5A8D883AAC";
paths = (
{
closed = 1;
nodes = (
"1013 103 OFFCURVE",
"999 117 OFFCURVE",
"989 108 CURVE SMOOTH",
"979 98 OFFCURVE",
"967 85 OFFCURVE",
"952 70 CURVE SMOOTH",
"885 6 OFFCURVE",
"811 -24 OFFCURVE",
"715 -24 CURVE SMOOTH",
"635 -24 OFFCURVE",
"561 11 OFFCURVE",
"483 51 CURVE SMOOTH",
"471 57 OFFCURVE",
"462 40 OFFCURVE",
"473 33 CURVE",
"551 -7 OFFCURVE",
"630 -44 OFFCURVE",
"715 -44 CURVE SMOOTH",
"802 -44 OFFCURVE",
"863 -20 OFFCURVE",
"909 10 CURVE SMOOTH",
"945 33 OFFCURVE",
"972 64 OFFCURVE",
"1003 94 CURVE SMOOTH"
);
},
{
closed = 1;
nodes = (
"1017 191 OFFCURVE",
"1002 204 OFFCURVE",
"994 194 CURVE SMOOTH",
"909 85 OFFCURVE",
"848 36 OFFCURVE",
"725 36 CURVE SMOOTH",
"662 36 OFFCURVE",
"598 61 OFFCURVE",
"532 92 CURVE SMOOTH",
"520 98 OFFCURVE",
"512 80 OFFCURVE",
"524 74 CURVE SMOOTH",
"590 43 OFFCURVE",
"658 16 OFFCURVE",
"725 16 CURVE SMOOTH",
"858 16 OFFCURVE",
"924 72 OFFCURVE",
"1009 181 CURVE SMOOTH"
);
},
{
closed = 1;
nodes = (
"1040 745 OFFCURVE",
"1005 755 OFFCURVE",
"965 740 CURVE SMOOTH",
"873 705 OFFCURVE",
"750 467 OFFCURVE",
"703 381 CURVE SMOOTH",
"628 245 OFFCURVE",
"476 33 OFFCURVE",
"324 -10 CURVE SMOOTH",
"217 -41 OFFCURVE",
"57 -34 OFFCURVE",
"23 86 CURVE SMOOTH",
"5 148 OFFCURVE",
"82 218 OFFCURVE",
"232 195 CURVE SMOOTH",
"292 186 OFFCURVE",
"350 160 OFFCURVE",
"412 129 CURVE SMOOTH",
"424 123 OFFCURVE",
"433 141 OFFCURVE",
"421 147 CURVE SMOOTH",
"359 178 OFFCURVE",
"298 205 OFFCURVE",
"234 215 CURVE SMOOTH",
"87 237 OFFCURVE",
"-21 170 OFFCURVE",
"4 81 CURVE SMOOTH",
"44 -59 OFFCURVE",
"224 -60 OFFCURVE",
"330 -29 CURVE SMOOTH",
"491 17 OFFCURVE",
"646 236 OFFCURVE",
"720 371 CURVE SMOOTH",
"764 451 OFFCURVE",
"889 689 OFFCURVE",
"973 722 CURVE SMOOTH",
"1005 734 OFFCURVE",
"1029 724 OFFCURVE",
"1038 703 CURVE SMOOTH",
"1049 680 OFFCURVE",
"1045 639 OFFCURVE",
"1011 584 CURVE SMOOTH",
"984 540 OFFCURVE",
"911 493 OFFCURVE",
"878 491 CURVE SMOOTH",
"865 490 OFFCURVE",
"866 470 OFFCURVE",
"880 471 CURVE SMOOTH",
"921 473 OFFCURVE",
"999 526 OFFCURVE",
"1029 574 CURVE SMOOTH",
"1064 631 OFFCURVE",
"1070 680 OFFCURVE",
"1056 711 CURVE SMOOTH"
);
},
{
closed = 1;
nodes = (
"892 903 OFFCURVE",
"714 536 OFFCURVE",
"652 412 CURVE SMOOTH",
"599 308 OFFCURVE",
"453 85 OFFCURVE",
"301 42 CURVE SMOOTH",
"251 28 OFFCURVE",
"185 23 OFFCURVE",
"141 39 CURVE SMOOTH",
"100 54 OFFCURVE",
"81 86 OFFCURVE",
"87 106 CURVE SMOOTH",
"92 125 OFFCURVE",
"124 147 OFFCURVE",
"216 134 CURVE SMOOTH",
"269 127 OFFCURVE",
"316 110 OFFCURVE",
"364 88 CURVE SMOOTH",
"376 82 OFFCURVE",
"385 100 OFFCURVE",
"373 106 CURVE SMOOTH",
"323 129 OFFCURVE",
"274 146 OFFCURVE",
"218 154 CURVE SMOOTH",
"128 167 OFFCURVE",
"78 148 OFFCURVE",
"68 111 CURVE SMOOTH",
"58 75 OFFCURVE",
"90 37 OFFCURVE",
"135 21 CURVE SMOOTH",
"184 3 OFFCURVE",
"254 8 OFFCURVE",
"307 23 CURVE SMOOTH",
"468 69 OFFCURVE",
"618 300 OFFCURVE",
"670 403 CURVE SMOOTH",
"727 515 OFFCURVE",
"900 875 OFFCURVE",
"1065 775 CURVE SMOOTH",
"1170 712 OFFCURVE",
"1073 490 OFFCURVE",
"912 429 CURVE SMOOTH",
"900 424 OFFCURVE",
"907 406 OFFCURVE",
"920 411 CURVE SMOOTH",
"1075 471 OFFCURVE",
"1210 711 OFFCURVE",
"1075 793 CURVE SMOOTH"
);
}
);
width = 1002;
}
);
note = L;
unicode = 004C;
},
{
glyphname = M;
layers = (
{
hints = (
{
horizontal = 1;
place = "{-4, 20}";
type = Stem;
},
{
horizontal = 1;
place = "{25, 20}";
type = Stem;
},
{
horizontal = 1;
place = "{529, -20}";
target = down;
type = TopGhost;
},
{
horizontal = 1;
place = "{567, -20}";
target = down;
type = TopGhost;
},
{
horizontal = 1;
place = "{610, -20}";
target = down;
type = TopGhost;
},
{
horizontal = 1;
place = "{657, -20}";
target = down;
type = TopGhost;
},
{
horizontal = 1;
place = "{716, -20}";
target = down;
type = TopGhost;
},
{
place = "{-10, 20}";
type = Stem;
},
{
place = "{56, 20}";
type = Stem;
},
{
place = "{307, 20}";
type = Stem;
},
{
place = "{622, 20}";
type = Stem;
},
{
place = "{767, 20}";
type = Stem;
},
{
place = "{1137, 20}";
type = Stem;
},
{
place = "{1336, 20}";
type = Stem;
},
{
place = "{1939, 20}";
type = Stem;
}
);
layerId = "6B4F01CB-8044-4D82-912B-2C5A8D883AAC";
paths = (
{
closed = 1;
nodes = (
"1165 549 OFFCURVE",
"1161 568 OFFCURVE",
"1148 565 CURVE SMOOTH",
"1015 535 OFFCURVE",
"840 348 OFFCURVE",
"744 251 CURVE SMOOTH",
"635 141 OFFCURVE",
"431 -20 OFFCURVE",
"273 -20 CURVE SMOOTH",
"161 -20 OFFCURVE",
"10 30 OFFCURVE",
"10 155 CURVE SMOOTH",
"10 298 OFFCURVE",
"232 394 OFFCURVE",
"360 394 CURVE SMOOTH",
"421 394 OFFCURVE",
"622 369 OFFCURVE",
"622 281 CURVE SMOOTH",
"622 271 OFFCURVE",
"618 269 OFFCURVE",
"617 269 CURVE",
"611 272 OFFCURVE",
"605 278 OFFCURVE",
"599 282 CURVE SMOOTH",
"532 337 OFFCURVE",
"468 368 OFFCURVE",
"376 368 CURVE SMOOTH",
"279 368 OFFCURVE",
"56 301 OFFCURVE",
"56 169 CURVE SMOOTH",
"56 46 OFFCURVE",
"173 14 OFFCURVE",
"268 14 CURVE SMOOTH",
"435 14 OFFCURVE",
"614 170 OFFCURVE",
"719 282 CURVE SMOOTH",
"777 345 OFFCURVE",
"983 545 OFFCURVE",
"1057 555 CURVE SMOOTH",
"1070 557 OFFCURVE",
"1068 577 OFFCURVE",
"1054 575 CURVE SMOOTH",
"972 564 OFFCURVE",
"760 355 OFFCURVE",
"704 296 CURVE SMOOTH",
"599 183 OFFCURVE",
"425 34 OFFCURVE",
"268 34 CURVE SMOOTH",
"173 34 OFFCURVE",
"76 66 OFFCURVE",
"76 169 CURVE SMOOTH",
"76 279 OFFCURVE",
"276 348 OFFCURVE",
"376 348 CURVE SMOOTH",
"463 348 OFFCURVE",
"523 319 OFFCURVE",
"587 267 CURVE SMOOTH",
"594 261 OFFCURVE",
"607 249 OFFCURVE",
"617 249 CURVE SMOOTH",
"638 249 OFFCURVE",
"642 272 OFFCURVE",
"642 281 CURVE SMOOTH",
"642 386 OFFCURVE",
"434 414 OFFCURVE",
"360 414 CURVE SMOOTH",
"232 414 OFFCURVE",
"-10 318 OFFCURVE",
"-10 155 CURVE SMOOTH",
"-10 10 OFFCURVE",
"163 -40 OFFCURVE",
"273 -40 CURVE SMOOTH",
"440 -40 OFFCURVE",
"650 128 OFFCURVE",
"758 237 CURVE SMOOTH",
"850 330 OFFCURVE",
"1025 517 OFFCURVE",
"1152 546 CURVE SMOOTH"
);
},
{
closed = 1;
nodes = (
"1356 678 OFFCURVE",
"791 716 OFFCURVE",
"688 716 CURVE SMOOTH",
"586 716 OFFCURVE",
"307 700 OFFCURVE",
"307 547 CURVE SMOOTH",
"307 530 OFFCURVE",
"315 509 OFFCURVE",
"336 509 CURVE SMOOTH",
"350 509 OFFCURVE",
"360 519 OFFCURVE",
"368 529 CURVE SMOOTH",
"447 631 OFFCURVE",
"561 637 OFFCURVE",
"677 637 CURVE SMOOTH",
"840 637 OFFCURVE",
"1022 619 OFFCURVE",
"1179 575 CURVE SMOOTH",
"1192 571 OFFCURVE",
"1197 591 OFFCURVE",
"1184 595 CURVE SMOOTH",
"1025 640 OFFCURVE",
"841 657 OFFCURVE",
"677 657 CURVE SMOOTH",
"563 657 OFFCURVE",
"435 649 OFFCURVE",
"358 549 CURVE SMOOTH",
"353 542 OFFCURVE",
"344 529 OFFCURVE",
"336 529 CURVE SMOOTH",
"329 529 OFFCURVE",
"327 542 OFFCURVE",
"327 547 CURVE SMOOTH",
"327 682 OFFCURVE",
"599 696 OFFCURVE",
"688 696 CURVE SMOOTH",
"816 696 OFFCURVE",
"1336 649 OFFCURVE",
"1336 578 CURVE SMOOTH",
"1336 573 OFFCURVE",
"1330 567 OFFCURVE",
"1323 567 CURVE SMOOTH",
"1292 567 OFFCURVE",
"1261 572 OFFCURVE",
"1231 578 CURVE SMOOTH",
"1230 578 OFFCURVE",
"1224 578 OFFCURVE",
"1223 577 CURVE",
"1138 528 OFFCURVE",
"1067 426 OFFCURVE",
"1045 330 CURVE SMOOTH",
"1042 317 OFFCURVE",
"1061 312 OFFCURVE",
"1064 325 CURVE SMOOTH",
"1085 415 OFFCURVE",
"1152 511 OFFCURVE",
"1230 558 CURVE",
"1260 552 OFFCURVE",
"1292 547 OFFCURVE",
"1323 547 CURVE SMOOTH",
"1338 547 OFFCURVE",
"1356 559 OFFCURVE",
"1356 578 CURVE SMOOTH"
);
},
{
closed = 1;
nodes = (
"1645 591 OFFCURVE",
"1643 611 OFFCURVE",
"1630 610 CURVE SMOOTH",
"1313 584 OFFCURVE",
"960 45 OFFCURVE",
"803 45 CURVE SMOOTH",
"792 45 OFFCURVE",
"787 49 OFFCURVE",
"787 56 CURVE SMOOTH",
"787 77 OFFCURVE",
"809 89 OFFCURVE",
"824 97 CURVE SMOOTH",
"944 163 OFFCURVE",
"985 425 OFFCURVE",
"1075 467 CURVE SMOOTH",
"1087 472 OFFCURVE",
"1079 490 OFFCURVE",
"1067 485 CURVE SMOOTH",
"966 438 OFFCURVE",
"928 176 OFFCURVE",
"815 114 CURVE SMOOTH",
"792 102 OFFCURVE",
"767 86 OFFCURVE",
"767 56 CURVE SMOOTH",
"767 33 OFFCURVE",
"787 25 OFFCURVE",
"803 25 CURVE SMOOTH",
"973 25 OFFCURVE",
"1322 565 OFFCURVE",
"1631 590 CURVE SMOOTH"
);
},
{
closed = 1;
nodes = (
"1529 521 OFFCURVE",
"1517 537 OFFCURVE",
"1506 529 CURVE SMOOTH",
"1388 441 OFFCURVE",
"1137 249 OFFCURVE",
"1137 86 CURVE SMOOTH",
"1137 18 OFFCURVE",
"1208 -4 OFFCURVE",
"1258 -4 CURVE SMOOTH",
"1313 -4 OFFCURVE",
"1365 18 OFFCURVE",
"1407 50 CURVE SMOOTH",
"1418 59 OFFCURVE",
"1406 74 OFFCURVE",
"1395 66 CURVE SMOOTH",
"1356 36 OFFCURVE",
"1307 16 OFFCURVE",
"1258 16 CURVE SMOOTH",
"1209 16 OFFCURVE",
"1157 37 OFFCURVE",
"1157 86 CURVE SMOOTH",
"1157 236 OFFCURVE",
"1395 422 OFFCURVE",
"1518 513 CURVE SMOOTH"
);
},
{
closed = 1;
nodes = (
"1959 665 OFFCURVE",
"1809 665 OFFCURVE",
"1776 665 CURVE SMOOTH",
"1628 665 OFFCURVE",
"1476 627 OFFCURVE",
"1352 544 CURVE SMOOTH",
"1294 505 OFFCURVE",
"1239 460 OFFCURVE",
"1187 414 CURVE SMOOTH",
"1138 370 OFFCURVE",
"959 185 OFFCURVE",
"918 169 CURVE SMOOTH",
"906 164 OFFCURVE",
"913 145 OFFCURVE",
"925 150 CURVE SMOOTH",
"949 159 OFFCURVE",
"1007 213 OFFCURVE",
"1063 266 CURVE SMOOTH",
"1162 361 OFFCURVE",
"1248 451 OFFCURVE",
"1363 527 CURVE SMOOTH",
"1484 608 OFFCURVE",
"1632 645 OFFCURVE",
"1776 645 CURVE SMOOTH",
"1795 645 OFFCURVE",
"1939 643 OFFCURVE",
"1939 606 CURVE SMOOTH",
"1939 590 OFFCURVE",
"1909 585 OFFCURVE",
"1898 585 CURVE SMOOTH",
"1860 585 OFFCURVE",
"1824 599 OFFCURVE",
"1785 599 CURVE SMOOTH",
"1742 599 OFFCURVE",
"1703 586 OFFCURVE",
"1667 567 CURVE SMOOTH",
"1537 500 OFFCURVE",
"1220 219 OFFCURVE",
"1220 119 CURVE SMOOTH",
"1220 79 OFFCURVE",
"1257 65 OFFCURVE",
"1286 65 CURVE SMOOTH",
"1351 65 OFFCURVE",
"1441 134 OFFCURVE",
"1477 182 CURVE SMOOTH",
"1485 192 OFFCURVE",
"1469 204 OFFCURVE",
"1461 194 CURVE SMOOTH",
"1426 148 OFFCURVE",
"1342 85 OFFCURVE",
"1286 85 CURVE SMOOTH",
"1260 85 OFFCURVE",
"1240 96 OFFCURVE",
"1240 119 CURVE SMOOTH",
"1240 205 OFFCURVE",
"1503 430 OFFCURVE",
"1578 485 CURVE SMOOTH",
"1641 531 OFFCURVE",
"1708 579 OFFCURVE",
"1785 579 CURVE SMOOTH",
"1824 579 OFFCURVE",
"1860 565 OFFCURVE",
"1898 565 CURVE SMOOTH",
"1922 565 OFFCURVE",
"1959 575 OFFCURVE",
"1959 606 CURVE SMOOTH"
);
}
);
width = 1469;
}
);
note = M;
unicode = 004D;
},
{
glyphname = N;
layers = (
{
hints = (
{
horizontal = 1;
place = "{-40, 19}";
type = Stem;
},
{
horizontal = 1;
place = "{343, 20}";
type = Stem;
},
{
horizontal = 1;
place = "{538, -20}";
target = down;
type = TopGhost;
},
{
horizontal = 1;
place = "{680, -20}";
target = down;
type = TopGhost;
},
{
horizontal = 1;
place = "{732, -20}";
target = down;
type = TopGhost;
},
{
horizontal = 1;
place = "{762, -20}";
target = down;
type = TopGhost;
},
{
horizontal = 1;
place = "{808, -20}";
target = down;
type = TopGhost;
},
{
place = "{-10, 20}";
type = Stem;
},
{
place = "{56, 20}";
type = Stem;
},
{
place = "{622, 20}";
type = Stem;
},
{
place = "{1015, 20}";
type = Stem;
},
{
place = "{1641, 20}";
type = Stem;
}
);
layerId = "6B4F01CB-8044-4D82-912B-2C5A8D883AAC";
paths = (
{
closed = 1;
nodes = (
"983 538 OFFCURVE",
"969 551 OFFCURVE",
"960 540 CURVE SMOOTH",
"824 372 OFFCURVE",
"723 171 OFFCURVE",
"536 48 CURVE SMOOTH",
"380 -55 OFFCURVE",
"10 -61 OFFCURVE",
"10 155 CURVE SMOOTH",
"10 298 OFFCURVE",
"232 394 OFFCURVE",
"360 394 CURVE SMOOTH",
"421 394 OFFCURVE",
"622 369 OFFCURVE",
"622 281 CURVE SMOOTH",
"622 271 OFFCURVE",
"618 269 OFFCURVE",
"617 269 CURVE",
"610 272 OFFCURVE",
"604 277 OFFCURVE",
"599 281 CURVE SMOOTH",
"531 334 OFFCURVE",
"467 363 OFFCURVE",
"376 363 CURVE SMOOTH",
"280 363 OFFCURVE",
"56 301 OFFCURVE",
"56 169 CURVE SMOOTH",
"56 -47 OFFCURVE",
"408 12 OFFCURVE",
"516 85 CURVE SMOOTH",
"701 209 OFFCURVE",
"787 390 OFFCURVE",
"925 556 CURVE SMOOTH",
"934 566 OFFCURVE",
"919 578 OFFCURVE",
"910 568 CURVE SMOOTH",
"775 405 OFFCURVE",
"686 224 OFFCURVE",
"504 101 CURVE SMOOTH",
"388 23 OFFCURVE",
"76 -9 OFFCURVE",
"76 169 CURVE SMOOTH",
"76 279 OFFCURVE",
"276 343 OFFCURVE",
"376 343 CURVE SMOOTH",
"462 343 OFFCURVE",
"522 316 OFFCURVE",
"587 266 CURVE SMOOTH",
"594 260 OFFCURVE",
"607 249 OFFCURVE",
"617 249 CURVE SMOOTH",
"638 249 OFFCURVE",
"642 272 OFFCURVE",
"642 281 CURVE SMOOTH",
"642 386 OFFCURVE",
"434 414 OFFCURVE",
"360 414 CURVE SMOOTH",
"232 414 OFFCURVE",
"-10 318 OFFCURVE",
"-10 155 CURVE SMOOTH",
"-10 -96 OFFCURVE",
"397 -67 OFFCURVE",
"547 32 CURVE SMOOTH",
"738 157 OFFCURVE",
"835 356 OFFCURVE",
"975 528 CURVE SMOOTH"
);
},
{
closed = 1;
nodes = (
"1038 566 OFFCURVE",
"1044 635 OFFCURVE",
"976 660 CURVE SMOOTH",
"821 717 OFFCURVE",
"313 827 OFFCURVE",
"193 568 CURVE SMOOTH",
"167 512 OFFCURVE",
"244 500 OFFCURVE",
"267 552 CURVE SMOOTH",
"304 637 OFFCURVE",
"458 660 OFFCURVE",
"574 660 CURVE SMOOTH",
"676 660 OFFCURVE",
"793 637 OFFCURVE",
"951 592 CURVE SMOOTH",
"964 588 OFFCURVE",
"970 607 OFFCURVE",
"957 611 CURVE SMOOTH",
"798 656 OFFCURVE",
"679 680 OFFCURVE",
"574 680 CURVE SMOOTH",
"462 680 OFFCURVE",
"291 659 OFFCURVE",
"248 560 CURVE SMOOTH",
"237 535 OFFCURVE",
"196 528 OFFCURVE",
"211 560 CURVE SMOOTH",
"319 793 OFFCURVE",
"773 705 OFFCURVE",
"953 647 CURVE SMOOTH",
"963 644 OFFCURVE",
"973 640 OFFCURVE",
"983 635 CURVE SMOOTH",
"1025 613 OFFCURVE",
"1015 540 OFFCURVE",
"1012 505 CURVE SMOOTH",
"1003 413 OFFCURVE",
"992 306 OFFCURVE",
"975 216 CURVE SMOOTH",
"973 203 OFFCURVE",
"992 199 OFFCURVE",
"995 212 CURVE SMOOTH",
"1012 302 OFFCURVE",
"1023 410 OFFCURVE",
"1032 503 CURVE SMOOTH"
);
},
{
closed = 1;
nodes = (
"1328 815 OFFCURVE",
"1214 529 OFFCURVE",
"1092 320 CURVE SMOOTH",
"1053 253 OFFCURVE",
"1015 198 OFFCURVE",
"971 166 CURVE SMOOTH",
"960 158 OFFCURVE",
"972 142 OFFCURVE",
"983 150 CURVE SMOOTH",
"1031 184 OFFCURVE",
"1071 243 OFFCURVE",
"1110 310 CURVE SMOOTH",
"1227 511 OFFCURVE",
"1339 795 OFFCURVE",
"1623 788 CURVE SMOOTH",
"1650 787 OFFCURVE",
"1645 762 OFFCURVE",
"1618 762 CURVE SMOOTH",
"1489 760 OFFCURVE",
"1388 672 OFFCURVE",
"1310 570 CURVE SMOOTH",
"1241 480 OFFCURVE",
"1193 380 OFFCURVE",
"1137 283 CURVE SMOOTH",
"1061 150 OFFCURVE",
"930 -4 OFFCURVE",
"858 -22 CURVE SMOOTH",
"846 -25 OFFCURVE",
"840 -22 OFFCURVE",
"839 -15 CURVE SMOOTH",
"834 5 OFFCURVE",
"853 22 OFFCURVE",
"865 33 CURVE SMOOTH",
"929 92 OFFCURVE",
"961 373 OFFCURVE",
"974 465 CURVE SMOOTH",
"976 478 OFFCURVE",
"956 481 OFFCURVE",
"954 467 CURVE SMOOTH",
"943 383 OFFCURVE",
"909 101 OFFCURVE",
"852 48 CURVE SMOOTH",
"844 41 OFFCURVE",
"834 32 OFFCURVE",
"827 21 CURVE SMOOTH",
"808 -9 OFFCURVE",
"819 -53 OFFCURVE",
"862 -42 CURVE SMOOTH",
"944 -22 OFFCURVE",
"1079 142 OFFCURVE",
"1155 273 CURVE SMOOTH",
"1174 306 OFFCURVE",
"1197 352 OFFCURVE",
"1226 403 CURVE SMOOTH",
"1307 545 OFFCURVE",
"1434 739 OFFCURVE",
"1618 742 CURVE SMOOTH",
"1672 743 OFFCURVE",
"1676 807 OFFCURVE",
"1623 808 CURVE SMOOTH"
);
}
);
width = 1188;
}
);
note = N;
unicode = 004E;
},
{
glyphname = Eng;
lastChange = "2021-09-30 06:30:45 +0000";
layers = (
{
hints = (
{
horizontal = 1;
place = "{-40, 19}";
type = Stem;
},
{
horizontal = 1;
place = "{343, 20}";
type = Stem;
},
{
horizontal = 1;
place = "{538, -20}";
target = down;
type = TopGhost;
},
{
horizontal = 1;
place = "{680, -20}";
target = down;
type = TopGhost;
},
{
horizontal = 1;
place = "{732, -20}";
target = down;
type = TopGhost;
},
{
horizontal = 1;
place = "{762, -20}";
target = down;
type = TopGhost;
},
{
horizontal = 1;
place = "{808, -20}";
target = down;
type = TopGhost;
},
{
place = "{-10, 20}";
type = Stem;
},
{
place = "{56, 20}";
type = Stem;
},
{
place = "{622, 20}";
type = Stem;
},
{
place = "{1015, 20}";
type = Stem;
},
{
place = "{1641, 20}";
type = Stem;
}
);
layerId = "6B4F01CB-8044-4D82-912B-2C5A8D883AAC";
paths = (
{
closed = 1;
nodes = (
"983 538 OFFCURVE",
"969 551 OFFCURVE",
"960 540 CURVE SMOOTH",
"824 372 OFFCURVE",
"723 171 OFFCURVE",
"536 48 CURVE SMOOTH",
"380 -55 OFFCURVE",
"10 -61 OFFCURVE",
"10 155 CURVE SMOOTH",
"10 298 OFFCURVE",
"232 394 OFFCURVE",
"360 394 CURVE SMOOTH",
"421 394 OFFCURVE",
"622 369 OFFCURVE",
"622 281 CURVE SMOOTH",
"622 271 OFFCURVE",
"618 269 OFFCURVE",
"617 269 CURVE",
"610 272 OFFCURVE",
"604 277 OFFCURVE",
"599 281 CURVE SMOOTH",
"531 334 OFFCURVE",
"467 363 OFFCURVE",
"376 363 CURVE SMOOTH",
"280 363 OFFCURVE",
"56 301 OFFCURVE",
"56 169 CURVE SMOOTH",
"56 -47 OFFCURVE",
"408 12 OFFCURVE",
"516 85 CURVE SMOOTH",
"701 209 OFFCURVE",
"787 390 OFFCURVE",
"925 556 CURVE SMOOTH",
"934 566 OFFCURVE",
"919 578 OFFCURVE",
"910 568 CURVE SMOOTH",
"775 405 OFFCURVE",
"686 224 OFFCURVE",
"504 101 CURVE SMOOTH",
"388 23 OFFCURVE",
"76 -9 OFFCURVE",
"76 169 CURVE SMOOTH",
"76 279 OFFCURVE",
"276 343 OFFCURVE",
"376 343 CURVE SMOOTH",
"462 343 OFFCURVE",
"522 316 OFFCURVE",
"587 266 CURVE SMOOTH",
"594 260 OFFCURVE",
"607 249 OFFCURVE",
"617 249 CURVE SMOOTH",
"638 249 OFFCURVE",
"642 272 OFFCURVE",
"642 281 CURVE SMOOTH",
"642 386 OFFCURVE",
"434 414 OFFCURVE",
"360 414 CURVE SMOOTH",
"232 414 OFFCURVE",
"-10 318 OFFCURVE",
"-10 155 CURVE SMOOTH",
"-10 -96 OFFCURVE",
"397 -67 OFFCURVE",
"547 32 CURVE SMOOTH",
"738 157 OFFCURVE",
"835 356 OFFCURVE",
"975 528 CURVE SMOOTH"
);
},
{
closed = 1;
nodes = (
"1038 566 OFFCURVE",
"1044 635 OFFCURVE",
"976 660 CURVE SMOOTH",
"821 717 OFFCURVE",
"313 827 OFFCURVE",
"193 568 CURVE SMOOTH",
"167 512 OFFCURVE",
"244 500 OFFCURVE",
"267 552 CURVE SMOOTH",
"304 637 OFFCURVE",
"458 660 OFFCURVE",
"574 660 CURVE SMOOTH",
"676 660 OFFCURVE",
"793 637 OFFCURVE",
"951 592 CURVE SMOOTH",
"964 588 OFFCURVE",
"970 607 OFFCURVE",
"957 611 CURVE SMOOTH",
"798 656 OFFCURVE",
"679 680 OFFCURVE",
"574 680 CURVE SMOOTH",
"462 680 OFFCURVE",
"291 659 OFFCURVE",
"248 560 CURVE SMOOTH",
"237 535 OFFCURVE",
"196 528 OFFCURVE",
"211 560 CURVE SMOOTH",
"319 793 OFFCURVE",
"773 705 OFFCURVE",
"953 647 CURVE SMOOTH",
"963 644 OFFCURVE",
"973 640 OFFCURVE",
"983 635 CURVE SMOOTH",
"1025 613 OFFCURVE",
"1015 540 OFFCURVE",
"1012 505 CURVE SMOOTH",
"1003 413 OFFCURVE",
"992 306 OFFCURVE",
"975 216 CURVE SMOOTH",
"973 203 OFFCURVE",
"992 199 OFFCURVE",
"995 212 CURVE SMOOTH",
"1012 302 OFFCURVE",
"1023 410 OFFCURVE",
"1032 503 CURVE SMOOTH"
);
},
{
closed = 1;
nodes = (
"1328 815 OFFCURVE",
"1214 529 OFFCURVE",
"1092 320 CURVE SMOOTH",
"1053 253 OFFCURVE",
"1015 198 OFFCURVE",
"971 166 CURVE SMOOTH",
"960 158 OFFCURVE",
"972 142 OFFCURVE",
"983 150 CURVE SMOOTH",
"1031 184 OFFCURVE",
"1071 243 OFFCURVE",
"1110 310 CURVE SMOOTH",
"1227 511 OFFCURVE",
"1339 795 OFFCURVE",
"1623 788 CURVE SMOOTH",
"1650 787 OFFCURVE",
"1645 762 OFFCURVE",
"1618 762 CURVE SMOOTH",
"1489 760 OFFCURVE",
"1388 672 OFFCURVE",
"1310 570 CURVE SMOOTH",
"1253 495 OFFCURVE",
"1210 413 OFFCURVE",
"1165 332 CURVE SMOOTH",
"953 -56 OFFCURVE",
"819 -179 OFFCURVE",
"633 -265 CURVE SMOOTH",
"465 -342 OFFCURVE",
"329 -298 OFFCURVE",
"387 -189 CURVE SMOOTH",
"414 -138 OFFCURVE",
"495 -88 OFFCURVE",
"553 -88 CURVE SMOOTH",
"587 -88 OFFCURVE",
"587 -106 OFFCURVE",
"555 -119 CURVE SMOOTH",
"519 -132 OFFCURVE",
"476 -159 OFFCURVE",
"453 -182 CURVE SMOOTH",
"405 -232 OFFCURVE",
"460 -274 OFFCURVE",
"543 -250 CURVE SMOOTH",
"619 -228 OFFCURVE",
"797 -159 OFFCURVE",
"894 78 CURVE SMOOTH",
"939 180 OFFCURVE",
"963 388 OFFCURVE",
"974 465 CURVE SMOOTH",
"976 478 OFFCURVE",
"956 481 OFFCURVE",
"954 467 CURVE SMOOTH",
"944 393 OFFCURVE",
"917 166 OFFCURVE",
"872 76 CURVE",
"778 -145 OFFCURVE",
"612 -210 OFFCURVE",
"537 -230 CURVE SMOOTH",
"474 -249 OFFCURVE",
"436 -228 OFFCURVE",
"467 -196 CURVE SMOOTH",
"488 -175 OFFCURVE",
"529 -150 OFFCURVE",
"563 -137 CURVE SMOOTH",
"615 -117 OFFCURVE",
"610 -68 OFFCURVE",
"553 -68 CURVE SMOOTH",
"487 -68 OFFCURVE",
"399 -122 OFFCURVE",
"369 -179 CURVE SMOOTH",
"310 -291 OFFCURVE",
"435 -378 OFFCURVE",
"641 -283 CURVE SMOOTH",
"831 -195 OFFCURVE",
"968 -69 OFFCURVE",
"1183 324 CURVE SMOOTH",
"1195 348 OFFCURVE",
"1210 375 OFFCURVE",
"1226 403 CURVE SMOOTH",
"1307 545 OFFCURVE",
"1434 739 OFFCURVE",
"1618 742 CURVE SMOOTH",
"1672 743 OFFCURVE",
"1676 807 OFFCURVE",
"1623 808 CURVE SMOOTH"
);
}
);
width = 1188;
}
);
unicode = 014A;
},
{
glyphname = O;
layers = (
{
hints = (
{
horizontal = 1;
place = "{-34, 20}";
type = Stem;
},
{
horizontal = 1;
place = "{12, 20}";
type = Stem;
},
{
horizontal = 1;
place = "{396, -20}";
target = down;
type = TopGhost;
},
{
horizontal = 1;
place = "{439, -20}";
target = down;
type = TopGhost;
},
{
horizontal = 1;
place = "{681, -20}";
target = down;
type = TopGhost;
},
{
horizontal = 1;
place = "{731, -20}";
target = down;
type = TopGhost;
},
{
place = "{8, 20}";
type = Stem;
},
{
place = "{87, 20}";
type = Stem;
},
{
place = "{756, 20}";
type = Stem;
},
{
place = "{811, 20}";
type = Stem;
}
);
layerId = "6B4F01CB-8044-4D82-912B-2C5A8D883AAC";
paths = (
{
closed = 1;
nodes = (
"676 347 OFFCURVE",
"656 351 OFFCURVE",
"653 338 CURVE SMOOTH",
"612 144 OFFCURVE",
"445 -14 OFFCURVE",
"242 -14 CURVE SMOOTH",
"113 -14 OFFCURVE",
"28 66 OFFCURVE",
"28 196 CURVE SMOOTH",
"28 462 OFFCURVE",
"346 711 OFFCURVE",
"605 711 CURVE SMOOTH",
"939 711 OFFCURVE",
"827 396 OFFCURVE",
"550 396 CURVE SMOOTH",
"484 396 OFFCURVE",
"386 420 OFFCURVE",
"379 488 CURVE SMOOTH",
"378 501 OFFCURVE",
"358 499 OFFCURVE",
"359 486 CURVE SMOOTH",
"368 399 OFFCURVE",
"487 376 OFFCURVE",
"550 376 CURVE SMOOTH",
"856 376 OFFCURVE",
"965 731 OFFCURVE",
"605 731 CURVE SMOOTH",
"338 731 OFFCURVE",
"8 476 OFFCURVE",
"8 196 CURVE SMOOTH",
"8 54 OFFCURVE",
"103 -34 OFFCURVE",
"242 -34 CURVE SMOOTH",
"456 -34 OFFCURVE",
"630 132 OFFCURVE",
"673 334 CURVE SMOOTH"
);
},
{
closed = 1;
nodes = (
"607 346 OFFCURVE",
"588 348 OFFCURVE",
"586 335 CURVE SMOOTH",
"578 268 OFFCURVE",
"412 32 OFFCURVE",
"250 32 CURVE SMOOTH",
"157 32 OFFCURVE",
"107 102 OFFCURVE",
"107 198 CURVE SMOOTH",
"107 407 OFFCURVE",
"386 661 OFFCURVE",
"598 661 CURVE SMOOTH",
"879 661 OFFCURVE",
"735 439 OFFCURVE",
"558 439 CURVE SMOOTH",
"514 439 OFFCURVE",
"423 472 OFFCURVE",
"415 512 CURVE SMOOTH",
"413 525 OFFCURVE",
"393 522 OFFCURVE",
"395 509 CURVE SMOOTH",
"405 451 OFFCURVE",
"515 419 OFFCURVE",
"558 419 CURVE SMOOTH",
"765 419 OFFCURVE",
"905 681 OFFCURVE",
"598 681 CURVE SMOOTH",
"376 681 OFFCURVE",
"87 420 OFFCURVE",
"87 198 CURVE SMOOTH",
"87 95 OFFCURVE",
"142 12 OFFCURVE",
"250 12 CURVE SMOOTH",
"426 12 OFFCURVE",
"598 260 OFFCURVE",
"606 333 CURVE SMOOTH"
);
}
);
width = 733;
}
);
note = O;
unicode = 004F;
},
{
glyphname = Oslash;
layers = (
{
hints = (
{
horizontal = 1;
place = "{-227, 20}";
type = Stem;
},
{
horizontal = 1;
place = "{12, 20}";
type = Stem;
},
{
horizontal = 1;
place = "{396, -20}";
target = down;
type = TopGhost;
},
{
horizontal = 1;
place = "{439, -20}";
target = down;
type = TopGhost;
},
{
horizontal = 1;
place = "{681, -20}";
target = down;
type = TopGhost;
},
{
horizontal = 1;
place = "{731, -20}";
target = down;
type = TopGhost;
},
{
place = "{8, 20}";
type = Stem;
},
{
place = "{76, 20}";
type = Stem;
},
{
place = "{756, 20}";
type = Stem;
},
{
place = "{794, 20}";
type = Stem;
}
);
layerId = "6B4F01CB-8044-4D82-912B-2C5A8D883AAC";
paths = (
{
closed = 1;
nodes = (
"676 347 OFFCURVE",
"656 351 OFFCURVE",
"653 338 CURVE SMOOTH",
"620 179 OFFCURVE",
"502 45 OFFCURVE",
"348 1 CURVE SMOOTH",
"336 -3 OFFCURVE",
"341 -22 OFFCURVE",
"354 -18 CURVE SMOOTH",
"515 28 OFFCURVE",
"638 169 OFFCURVE",
"673 334 CURVE SMOOTH"
);
},
{
closed = 1;
nodes = (
"738 869 OFFCURVE",
"694 742 OFFCURVE",
"666 732 CURVE",
"646 732 OFFCURVE",
"625 731 OFFCURVE",
"605 731 CURVE SMOOTH",
"338 731 OFFCURVE",
"8 476 OFFCURVE",
"8 196 CURVE SMOOTH",
"8 87 OFFCURVE",
"64 8 OFFCURVE",
"155 -21 CURVE",
"156 -22 OFFCURVE",
"156 -23 OFFCURVE",
"157 -25 CURVE",
"160 -40 OFFCURVE",
"95 -148 OFFCURVE",
"85 -163 CURVE SMOOTH",
"47 -225 OFFCURVE",
"134 -257 OFFCURVE",
"169 -187 CURVE SMOOTH",
"179 -167 OFFCURVE",
"233 -46 OFFCURVE",
"248 -33 CURVE",
"247 -33 OFFCURVE",
"246 -33 OFFCURVE",
"245 -34 CURVE",
"258 -34 OFFCURVE",
"258 -14 OFFCURVE",
"245 -14 CURVE SMOOTH",
"241 -14 OFFCURVE",
"237 -17 OFFCURVE",
"236 -18 CURVE SMOOTH",
"215 -35 OFFCURVE",
"164 -153 OFFCURVE",
"151 -178 CURVE SMOOTH",
"130 -221 OFFCURVE",
"78 -213 OFFCURVE",
"102 -174 CURVE SMOOTH",
"122 -143 OFFCURVE",
"154 -81 OFFCURVE",
"172 -47 CURVE SMOOTH",
"180 -33 OFFCURVE",
"179 -8 OFFCURVE",
"161 -2 CURVE SMOOTH",
"79 25 OFFCURVE",
"28 95 OFFCURVE",
"28 196 CURVE SMOOTH",
"28 462 OFFCURVE",
"346 711 OFFCURVE",
"605 711 CURVE SMOOTH",
"625 711 OFFCURVE",
"645 712 OFFCURVE",
"665 712 CURVE SMOOTH",
"691 711 OFFCURVE",
"741 798 OFFCURVE",
"754 814 CURVE SMOOTH",
"767 830 OFFCURVE",
"780 833 OFFCURVE",
"787 830 CURVE SMOOTH",
"813 821 OFFCURVE",
"749 743 OFFCURVE",
"743 733 CURVE SMOOTH",
"735 722 OFFCURVE",
"752 711 OFFCURVE",
"759 722 CURVE SMOOTH",
"774 745 OFFCURVE",
"849 830 OFFCURVE",
"794 849 CURVE SMOOTH"
);
},
{
closed = 1;
nodes = (
"607 346 OFFCURVE",
"588 348 OFFCURVE",
"586 335 CURVE SMOOTH",
"578 268 OFFCURVE",
"412 32 OFFCURVE",
"250 32 CURVE SMOOTH",
"157 32 OFFCURVE",
"107 102 OFFCURVE",
"107 198 CURVE SMOOTH",
"107 407 OFFCURVE",
"386 661 OFFCURVE",
"598 661 CURVE SMOOTH",
"879 661 OFFCURVE",
"735 439 OFFCURVE",
"558 439 CURVE SMOOTH",
"514 439 OFFCURVE",
"423 472 OFFCURVE",
"415 512 CURVE SMOOTH",
"413 525 OFFCURVE",
"393 522 OFFCURVE",
"395 509 CURVE SMOOTH",
"405 451 OFFCURVE",
"515 419 OFFCURVE",
"558 419 CURVE SMOOTH",
"765 419 OFFCURVE",
"905 681 OFFCURVE",
"598 681 CURVE SMOOTH",
"376 681 OFFCURVE",
"87 420 OFFCURVE",
"87 198 CURVE SMOOTH",
"87 95 OFFCURVE",
"142 12 OFFCURVE",
"250 12 CURVE SMOOTH",
"426 12 OFFCURVE",
"598 260 OFFCURVE",
"606 333 CURVE SMOOTH"
);
},
{
closed = 1;
nodes = (
"725 713 OFFCURVE",
"717 695 OFFCURVE",
"729 690 CURVE SMOOTH",
"907 616 OFFCURVE",
"774 396 OFFCURVE",
"550 396 CURVE SMOOTH",
"484 396 OFFCURVE",
"386 420 OFFCURVE",
"379 488 CURVE SMOOTH",
"378 501 OFFCURVE",
"358 499 OFFCURVE",
"359 486 CURVE SMOOTH",
"368 399 OFFCURVE",
"487 376 OFFCURVE",
"550 376 CURVE SMOOTH",
"799 376 OFFCURVE",
"935 626 OFFCURVE",
"737 708 CURVE SMOOTH"
);
}
);
width = 733;
}
);
note = Oslash;
unicode = 00D8;
},
{
glyphname = OE;
layers = (
{
hints = (
{
horizontal = 1;
place = "{-14, 20}";
type = Stem;
},
{
horizontal = 1;
place = "{44, 20}";
type = Stem;
},
{
horizontal = 1;
place = "{374, -20}";
target = down;
type = TopGhost;
},
{
horizontal = 1;
place = "{599, -20}";
target = down;
type = TopGhost;
},
{
horizontal = 1;
place = "{647, 21}";
target = up;
type = BottomGhost;
},
{
horizontal = 1;
place = "{700, -20}";
target = down;
type = TopGhost;
},
{
horizontal = 1;
place = "{760, -20}";
target = down;
type = TopGhost;
},
{
place = "{8, 20}";
type = Stem;
},
{
place = "{87, 20}";
type = Stem;
},
{
place = "{497, 20}";
type = Stem;
},
{
place = "{582, 20}";
type = Stem;
},
{
place = "{756, 20}";
type = Stem;
},
{
place = "{811, 20}";
type = Stem;
},
{
place = "{930, 20}";
type = Stem;
},
{
place = "{1184, 20}";
type = Stem;
}
);
layerId = "6B4F01CB-8044-4D82-912B-2C5A8D883AAC";
paths = (
{
closed = 1;
nodes = (
"939 711 OFFCURVE",
"827 396 OFFCURVE",
"550 396 CURVE SMOOTH",
"484 396 OFFCURVE",
"386 420 OFFCURVE",
"379 488 CURVE SMOOTH",
"378 501 OFFCURVE",
"358 499 OFFCURVE",
"359 486 CURVE SMOOTH",
"368 399 OFFCURVE",
"487 376 OFFCURVE",
"550 376 CURVE SMOOTH",
"856 376 OFFCURVE",
"965 731 OFFCURVE",
"605 731 CURVE SMOOTH",
"338 731 OFFCURVE",
"8 476 OFFCURVE",
"8 196 CURVE SMOOTH",
"8 54 OFFCURVE",
"103 -34 OFFCURVE",
"242 -34 CURVE SMOOTH",
"327 -34 OFFCURVE",
"407 -7 OFFCURVE",
"474 37 CURVE SMOOTH",
"485 45 OFFCURVE",
"474 62 OFFCURVE",
"462 54 CURVE SMOOTH",
"398 12 OFFCURVE",
"323 -14 OFFCURVE",
"242 -14 CURVE SMOOTH",
"113 -14 OFFCURVE",
"28 66 OFFCURVE",
"28 196 CURVE SMOOTH",
"28 462 OFFCURVE",
"346 711 OFFCURVE",
"605 711 CURVE SMOOTH"
);
},
{
closed = 1;
nodes = (
"678 379 OFFCURVE",
"659 387 OFFCURVE",
"654 374 CURVE SMOOTH",
"598 229 OFFCURVE",
"413 32 OFFCURVE",
"250 32 CURVE SMOOTH",
"157 32 OFFCURVE",
"107 102 OFFCURVE",
"107 198 CURVE SMOOTH",
"107 407 OFFCURVE",
"386 661 OFFCURVE",
"598 661 CURVE SMOOTH",
"879 661 OFFCURVE",
"735 439 OFFCURVE",
"558 439 CURVE SMOOTH",
"514 439 OFFCURVE",
"423 472 OFFCURVE",
"415 512 CURVE SMOOTH",
"413 525 OFFCURVE",
"393 522 OFFCURVE",
"395 509 CURVE SMOOTH",
"405 451 OFFCURVE",
"515 419 OFFCURVE",
"558 419 CURVE SMOOTH",
"765 419 OFFCURVE",
"905 681 OFFCURVE",
"598 681 CURVE SMOOTH",
"376 681 OFFCURVE",
"87 420 OFFCURVE",
"87 198 CURVE SMOOTH",
"87 95 OFFCURVE",
"142 12 OFFCURVE",
"250 12 CURVE SMOOTH",
"425 12 OFFCURVE",
"615 219 OFFCURVE",
"673 367 CURVE SMOOTH"
);
},
{
closed = 1;
nodes = (
"1143 360 OFFCURVE",
"1106 339 OFFCURVE",
"1093 335 CURVE SMOOTH",
"998 305 OFFCURVE",
"761 305 OFFCURVE",
"707 306 CURVE SMOOTH",
"706 306 OFFCURVE",
"700 304 OFFCURVE",
"700 303 CURVE",
"667 265 OFFCURVE",
"500 69 OFFCURVE",
"631 46 CURVE SMOOTH",
"694 35 OFFCURVE",
"934 77 OFFCURVE",
"985 97 CURVE SMOOTH",
"999 103 OFFCURVE",
"1005 101 OFFCURVE",
"1006 100 CURVE",
"1011 86 OFFCURVE",
"992 66 OFFCURVE",
"980 62 CURVE SMOOTH",
"869 22 OFFCURVE",
"699 6 OFFCURVE",
"601 6 CURVE SMOOTH",
"541 6 OFFCURVE",
"504 22 OFFCURVE",
"521 87 CURVE SMOOTH",
"525 100 OFFCURVE",
"505 105 OFFCURVE",
"502 92 CURVE SMOOTH",
"478 5 OFFCURVE",
"539 -14 OFFCURVE",
"601 -14 CURVE SMOOTH",
"700 -14 OFFCURVE",
"873 3 OFFCURVE",
"987 44 CURVE SMOOTH",
"1037 62 OFFCURVE",
"1047 143 OFFCURVE",
"978 115 CURVE SMOOTH",
"930 96 OFFCURVE",
"693 55 OFFCURVE",
"635 65 CURVE SMOOTH",
"608 70 OFFCURVE",
"596 82 OFFCURVE",
"604 113 CURVE SMOOTH",
"620 174 OFFCURVE",
"664 231 OFFCURVE",
"712 286 CURVE",
"773 285 OFFCURVE",
"1003 286 OFFCURVE",
"1099 316 CURVE SMOOTH",
"1172 339 OFFCURVE",
"1182 421 OFFCURVE",
"1115 397 CURVE SMOOTH",
"1034 369 OFFCURVE",
"842 374 OFFCURVE",
"751 374 CURVE SMOOTH",
"738 374 OFFCURVE",
"738 354 OFFCURVE",
"751 354 CURVE SMOOTH",
"845 354 OFFCURVE",
"1037 349 OFFCURVE",
"1121 378 CURVE SMOOTH",
"1135 383 OFFCURVE",
"1139 381 OFFCURVE",
"1140 381 CURVE"
);
},
{
closed = 1;
nodes = (
"977 567 OFFCURVE",
"920 616 OFFCURVE",
"882 593 CURVE SMOOTH",
"871 586 OFFCURVE",
"881 569 OFFCURVE",
"892 576 CURVE SMOOTH",
"909 586 OFFCURVE",
"944 567 OFFCURVE",
"924 551 CURVE SMOOTH",
"877 514 OFFCURVE",
"829 452 OFFCURVE",
"783 408 CURVE SMOOTH",
"773 399 OFFCURVE",
"787 385 OFFCURVE",
"796 394 CURVE SMOOTH",
"831 427 OFFCURVE",
"856 454 OFFCURVE",
"877 477 CURVE SMOOTH",
"899 500 OFFCURVE",
"916 519 OFFCURVE",
"937 535 CURVE SMOOTH"
);
},
{
closed = 1;
nodes = (
"1232 659 OFFCURVE",
"1197 727 OFFCURVE",
"1137 689 CURVE SMOOTH",
"1116 675 OFFCURVE",
"1078 665 OFFCURVE",
"1021 668 CURVE SMOOTH",
"888 675 OFFCURVE",
"797 772 OFFCURVE",
"656 759 CURVE SMOOTH",
"643 758 OFFCURVE",
"645 738 OFFCURVE",
"658 739 CURVE SMOOTH",
"760 748 OFFCURVE",
"832 698 OFFCURVE",
"922 668 CURVE SMOOTH",
"986 646 OFFCURVE",
"1089 634 OFFCURVE",
"1148 672 CURVE SMOOTH",
"1185 696 OFFCURVE",
"1198 663 OFFCURVE",
"1164 643 CURVE SMOOTH",
"1125 620 OFFCURVE",
"1070 607 OFFCURVE",
"1003 611 CURVE SMOOTH",
"946 615 OFFCURVE",
"896 635 OFFCURVE",
"843 657 CURVE SMOOTH",
"831 662 OFFCURVE",
"824 643 OFFCURVE",
"836 638 CURVE SMOOTH",
"862 628 OFFCURVE",
"887 618 OFFCURVE",
"914 609 CURVE SMOOTH",
"997 583 OFFCURVE",
"1097 581 OFFCURVE",
"1174 626 CURVE SMOOTH"
);
}
);
width = 1087;
}
);
note = OE;
unicode = 0152;
},
{
glyphname = P;
layers = (
{
hints = (
{
horizontal = 1;
place = "{-5, 20}";
type = Stem;
},
{
horizontal = 1;
place = "{131, 19}";
type = Stem;
},
{
horizontal = 1;
place = "{184, 20}";
type = Stem;
},
{
horizontal = 1;
place = "{250, 20}";
type = Stem;
},
{
horizontal = 1;
place = "{306, 20}";
type = Stem;
},
{
horizontal = 1;
place = "{661, -20}";
target = down;
type = TopGhost;
},
{
horizontal = 1;
place = "{718, -20}";
target = down;
type = TopGhost;
},
{
place = "{-6, 20}";
type = Stem;
},
{
place = "{58, 20}";
type = Stem;
},
{
place = "{452, 20}";
type = Stem;
},
{
place = "{499, 20}";
type = Stem;
},
{
place = "{982, 20}";
type = Stem;
},
{
place = "{1072, 20}";
type = Stem;
}
);
layerId = "6B4F01CB-8044-4D82-912B-2C5A8D883AAC";
paths = (
{
closed = 1;
nodes = (
"768 589 OFFCURVE",
"750 597 OFFCURVE",
"744 585 CURVE SMOOTH",
"668 415 OFFCURVE",
"548 104 OFFCURVE",
"389 19 CURVE SMOOTH",
"367 7 OFFCURVE",
"352 35 OFFCURVE",
"355 44 CURVE",
"436 93 OFFCURVE",
"497 187 OFFCURVE",
"573 335 CURVE SMOOTH",
"605 398 OFFCURVE",
"672 531 OFFCURVE",
"698 590 CURVE SMOOTH",
"704 602 OFFCURVE",
"685 610 OFFCURVE",
"680 598 CURVE SMOOTH",
"654 539 OFFCURVE",
"587 407 OFFCURVE",
"555 345 CURVE SMOOTH",
"478 196 OFFCURVE",
"420 107 OFFCURVE",
"345 61 CURVE SMOOTH",
"318 45 OFFCURVE",
"351 -25 OFFCURVE",
"399 1 CURVE SMOOTH",
"564 90 OFFCURVE",
"684 402 OFFCURVE",
"763 577 CURVE SMOOTH"
);
},
{
closed = 1;
nodes = (
"1092 841 OFFCURVE",
"-6 789 OFFCURVE",
"-6 319 CURVE SMOOTH",
"-6 81 OFFCURVE",
"317 74 OFFCURVE",
"451 273 CURVE SMOOTH",
"501 348 OFFCURVE",
"548 499 OFFCURVE",
"497 546 CURVE SMOOTH",
"483 560 OFFCURVE",
"433 547 OFFCURVE",
"447 524 CURVE SMOOTH",
"463 497 OFFCURVE",
"444 382 OFFCURVE",
"394 308 CURVE SMOOTH",
"301 169 OFFCURVE",
"78 165 OFFCURVE",
"78 317 CURVE SMOOTH",
"78 697 OFFCURVE",
"982 723 OFFCURVE",
"982 496 CURVE SMOOTH",
"982 390 OFFCURVE",
"833 326 OFFCURVE",
"694 326 CURVE SMOOTH",
"681 326 OFFCURVE",
"681 306 OFFCURVE",
"694 306 CURVE SMOOTH",
"832 306 OFFCURVE",
"1002 370 OFFCURVE",
"1002 496 CURVE SMOOTH",
"1002 754 OFFCURVE",
"58 721 OFFCURVE",
"58 317 CURVE SMOOTH",
"58 119 OFFCURVE",
"323 167 OFFCURVE",
"411 297 CURVE SMOOTH",
"459 369 OFFCURVE",
"485 486 OFFCURVE",
"467 529 CURVE",
"470 530 OFFCURVE",
"481 533 OFFCURVE",
"483 532 CURVE",
"520 497 OFFCURVE",
"487 362 OFFCURVE",
"434 284 CURVE SMOOTH",
"300 85 OFFCURVE",
"14 119 OFFCURVE",
"14 319 CURVE SMOOTH",
"14 764 OFFCURVE",
"1072 811 OFFCURVE",
"1072 492 CURVE SMOOTH",
"1072 350 OFFCURVE",
"930 270 OFFCURVE",
"676 270 CURVE SMOOTH",
"663 270 OFFCURVE",
"663 250 OFFCURVE",
"676 250 CURVE SMOOTH",
"930 250 OFFCURVE",
"1092 330 OFFCURVE",
"1092 492 CURVE SMOOTH"
);
}
);
width = 1043;
}
);
note = P;
unicode = 0050;
},
{
glyphname = Thorn;
lastChange = "2021-10-01 05:25:57 +0000";
layers = (
{
layerId = "6B4F01CB-8044-4D82-912B-2C5A8D883AAC";
paths = (
{
closed = 1;
nodes = (
"21 167 OFFCURVE",
"-164 -172 OFFCURVE",
"-242 -173 CURVE SMOOTH",
"-340 -175 OFFCURVE",
"-296 -264 OFFCURVE",
"-235 -263 CURVE SMOOTH",
"-102 -260 OFFCURVE",
"10 13 OFFCURVE",
"154 224 CURVE SMOOTH",
"212 308 OFFCURVE",
"286 411 OFFCURVE",
"365 411 CURVE SMOOTH",
"408 411 OFFCURVE",
"425 371 OFFCURVE",
"377 310 CURVE SMOOTH",
"318 236 OFFCURVE",
"203 147 OFFCURVE",
"151 147 CURVE SMOOTH",
"138 147 OFFCURVE",
"138 127 OFFCURVE",
"151 127 CURVE SMOOTH",
"213 127 OFFCURVE",
"331 219 OFFCURVE",
"393 299 CURVE SMOOTH",
"452 376 OFFCURVE",
"427 433 OFFCURVE",
"366 433 CURVE SMOOTH",
"277 433 OFFCURVE",
"204 330 OFFCURVE",
"139 236 CURVE SMOOTH",
"-2 30 OFFCURVE",
"-116 -241 OFFCURVE",
"-235 -243 CURVE SMOOTH",
"-268 -244 OFFCURVE",
"-313 -195 OFFCURVE",
"-241 -193 CURVE SMOOTH",
"-152 -192 OFFCURVE",
"16 128 OFFCURVE",
"198 416 CURVE",
"208 430 OFFCURVE",
"196 448 OFFCURVE",
"181 425 CURVE"
);
},
{
closed = 1;
nodes = (
"505 440 OFFCURVE",
"471 488 OFFCURVE",
"409 488 CURVE SMOOTH",
"371 488 OFFCURVE",
"334 478 OFFCURVE",
"316 460 CURVE SMOOTH",
"307 451 OFFCURVE",
"321 436 OFFCURVE",
"330 446 CURVE SMOOTH",
"344 460 OFFCURVE",
"376 468 OFFCURVE",
"409 468 CURVE SMOOTH",
"457 468 OFFCURVE",
"485 432 OFFCURVE",
"485 384 CURVE SMOOTH",
"485 256 OFFCURVE",
"259 95 OFFCURVE",
"134 95 CURVE SMOOTH",
"121 95 OFFCURVE",
"121 75 OFFCURVE",
"134 75 CURVE SMOOTH",
"269 75 OFFCURVE",
"505 244 OFFCURVE",
"505 384 CURVE SMOOTH"
);
},
{
closed = 1;
nodes = (
"643 706 OFFCURVE",
"591 720 OFFCURVE",
"568 720 CURVE SMOOTH",
"409 720 OFFCURVE",
"317 586 OFFCURVE",
"217 473 CURVE SMOOTH",
"209 463 OFFCURVE",
"224 450 OFFCURVE",
"233 460 CURVE SMOOTH",
"326 566 OFFCURVE",
"420 700 OFFCURVE",
"568 700 CURVE SMOOTH",
"592 700 OFFCURVE",
"623 686 OFFCURVE",
"623 667 CURVE SMOOTH",
"623 648 OFFCURVE",
"594 650 OFFCURVE",
"582 650 CURVE SMOOTH",
"490 650 OFFCURVE",
"390 547 OFFCURVE",
"381 536 CURVE SMOOTH",
"372 526 OFFCURVE",
"382 503 OFFCURVE",
"398 524 CURVE SMOOTH",
"407 536 OFFCURVE",
"501 630 OFFCURVE",
"582 630 CURVE SMOOTH",
"607 630 OFFCURVE",
"643 631 OFFCURVE",
"643 667 CURVE SMOOTH"
);
}
);
width = 493;
}
);
unicode = 00DE;
},
{
glyphname = Q;
lastChange = "2021-09-30 04:28:48 +0000";
layers = (
{
hints = (
{
horizontal = 1;
place = "{-223, 20}";
type = Stem;
},
{
horizontal = 1;
place = "{-34, 20}";
type = Stem;
},
{
horizontal = 1;
place = "{12, 20}";
type = Stem;
},
{
horizontal = 1;
place = "{396, -20}";
target = down;
type = TopGhost;
},
{
horizontal = 1;
place = "{439, -20}";
target = down;
type = TopGhost;
},
{
horizontal = 1;
place = "{681, -20}";
target = down;
type = TopGhost;
},
{
horizontal = 1;
place = "{731, -20}";
target = down;
type = TopGhost;
},
{
place = "{8, 20}";
type = Stem;
},
{
place = "{87, 20}";
type = Stem;
},
{
place = "{756, 20}";
type = Stem;
},
{
place = "{811, 20}";
type = Stem;
}
);
layerId = "6B4F01CB-8044-4D82-912B-2C5A8D883AAC";
paths = (
{
closed = 1;
nodes = (
"676 347 OFFCURVE",
"656 351 OFFCURVE",
"653 338 CURVE SMOOTH",
"612 144 OFFCURVE",
"445 -14 OFFCURVE",
"242 -14 CURVE SMOOTH",
"113 -14 OFFCURVE",
"28 66 OFFCURVE",
"28 196 CURVE SMOOTH",
"28 462 OFFCURVE",
"346 711 OFFCURVE",
"605 711 CURVE SMOOTH",
"939 711 OFFCURVE",
"827 396 OFFCURVE",
"550 396 CURVE SMOOTH",
"484 396 OFFCURVE",
"386 420 OFFCURVE",
"379 488 CURVE SMOOTH",
"378 501 OFFCURVE",
"358 499 OFFCURVE",
"359 486 CURVE SMOOTH",
"368 399 OFFCURVE",
"487 376 OFFCURVE",
"550 376 CURVE SMOOTH",
"855 376 OFFCURVE",
"965 731 OFFCURVE",
"605 731 CURVE SMOOTH",
"338 731 OFFCURVE",
"8 476 OFFCURVE",
"8 196 CURVE SMOOTH",
"8 54 OFFCURVE",
"103 -34 OFFCURVE",
"242 -34 CURVE SMOOTH",
"456 -34 OFFCURVE",
"630 132 OFFCURVE",
"673 334 CURVE SMOOTH"
);
},
{
closed = 1;
nodes = (
"607 346 OFFCURVE",
"588 348 OFFCURVE",
"586 335 CURVE SMOOTH",
"578 268 OFFCURVE",
"412 32 OFFCURVE",
"250 32 CURVE SMOOTH",
"157 32 OFFCURVE",
"107 102 OFFCURVE",
"107 198 CURVE SMOOTH",
"107 407 OFFCURVE",
"386 661 OFFCURVE",
"598 661 CURVE SMOOTH",
"879 661 OFFCURVE",
"735 439 OFFCURVE",
"558 439 CURVE SMOOTH",
"514 439 OFFCURVE",
"423 472 OFFCURVE",
"415 512 CURVE SMOOTH",
"413 525 OFFCURVE",
"393 522 OFFCURVE",
"395 509 CURVE SMOOTH",
"405 451 OFFCURVE",
"515 419 OFFCURVE",
"558 419 CURVE SMOOTH",
"765 419 OFFCURVE",
"905 681 OFFCURVE",
"598 681 CURVE SMOOTH",
"376 681 OFFCURVE",
"87 420 OFFCURVE",
"87 198 CURVE SMOOTH",
"87 95 OFFCURVE",
"142 12 OFFCURVE",
"250 12 CURVE SMOOTH",
"426 12 OFFCURVE",
"598 260 OFFCURVE",
"606 333 CURVE SMOOTH"
);
},
{
closed = 1;
nodes = (
"735 -139 OFFCURVE",
"712 -139 CURVE SMOOTH",
"699 -139 OFFCURVE",
"686 -147 OFFCURVE",
"672 -161 CURVE SMOOTH",
"529 -306 OFFCURVE",
"338 -25 OFFCURVE",
"149 -74 CURVE SMOOTH",
"137 -77 OFFCURVE",
"142 -97 OFFCURVE",
"155 -94 CURVE SMOOTH",
"332 -48 OFFCURVE",
"529 -333 OFFCURVE",
"686 -175 CURVE SMOOTH",
"695 -166 OFFCURVE",
"703 -159 OFFCURVE",
"711 -159 CURVE SMOOTH",
"719 -159 OFFCURVE",
"725 -162 OFFCURVE",
"726 -171 CURVE SMOOTH",
"726 -187 OFFCURVE",
"694 -216 OFFCURVE",
"682 -227 CURVE SMOOTH",
"522 -370 OFFCURVE",
"326 -90 OFFCURVE",
"137 -139 CURVE SMOOTH",
"125 -142 OFFCURVE",
"130 -162 OFFCURVE",
"143 -159 CURVE SMOOTH",
"320 -113 OFFCURVE",
"523 -398 OFFCURVE",
"697 -240 CURVE SMOOTH",
"718 -221 OFFCURVE",
"745 -194 OFFCURVE",
"745 -171 CURVE SMOOTH",
"745 -154 OFFCURVE"
);
}
);
width = 733;
}
);
note = Q;
unicode = 0051;
},
{
glyphname = R;
lastChange = "2021-09-30 04:33:00 +0000";
layers = (
{
hints = (
{
horizontal = 1;
place = "{-31, 20}";
type = Stem;
},
{
horizontal = 1;
place = "{210, 20}";
type = Stem;
},
{
horizontal = 1;
place = "{252, 20}";
type = Stem;
},
{
horizontal = 1;
place = "{634, -20}";
target = down;
type = TopGhost;
},
{
horizontal = 1;
place = "{686, -20}";
target = down;
type = TopGhost;
},
{
place = "{22, 20}";
type = Stem;
},
{
place = "{94, 20}";
type = Stem;
},
{
place = "{585, 20}";
type = Stem;
},
{
place = "{1177, 20}";
type = Stem;
},
{
place = "{1265, 20}";
type = Stem;
}
);
layerId = "6B4F01CB-8044-4D82-912B-2C5A8D883AAC";
paths = (
{
closed = 1;
nodes = (
"1001 587 OFFCURVE",
"984 598 OFFCURVE",
"977 587 CURVE SMOOTH",
"816 342 OFFCURVE",
"619 -19 OFFCURVE",
"281 -19 CURVE SMOOTH",
"-115 -19 OFFCURVE",
"25 394 OFFCURVE",
"374 394 CURVE SMOOTH",
"426 394 OFFCURVE",
"580 368 OFFCURVE",
"584 297 CURVE SMOOTH",
"584 291 OFFCURVE",
"580 276 OFFCURVE",
"572 274 CURVE",
"572 274 OFFCURVE",
"571 275 OFFCURVE",
"571 277 CURVE",
"560 319 OFFCURVE",
"451 368 OFFCURVE",
"362 368 CURVE SMOOTH",
"87 368 OFFCURVE",
"-41 14 OFFCURVE",
"296 14 CURVE SMOOTH",
"464 14 OFFCURVE",
"649 212 OFFCURVE",
"751 346 CURVE SMOOTH",
"798 408 OFFCURVE",
"893 529 OFFCURVE",
"932 589 CURVE SMOOTH",
"939 600 OFFCURVE",
"924 611 OFFCURVE",
"916 599 CURVE SMOOTH",
"878 541 OFFCURVE",
"782 420 OFFCURVE",
"735 358 CURVE SMOOTH",
"632 223 OFFCURVE",
"453 34 OFFCURVE",
"296 34 CURVE SMOOTH",
"-15 34 OFFCURVE",
"116 348 OFFCURVE",
"362 348 CURVE SMOOTH",
"451 348 OFFCURVE",
"545 299 OFFCURVE",
"552 273 CURVE SMOOTH",
"561 236 OFFCURVE",
"606 259 OFFCURVE",
"604 299 CURVE SMOOTH",
"599 385 OFFCURVE",
"438 414 OFFCURVE",
"374 414 CURVE SMOOTH",
"-4 414 OFFCURVE",
"-140 -39 OFFCURVE",
"281 -39 CURVE SMOOTH",
"630 -39 OFFCURVE",
"828 323 OFFCURVE",
"994 576 CURVE SMOOTH"
);
},
{
closed = 1;
nodes = (
"1341 46 OFFCURVE",
"1327 60 OFFCURVE",
"1317 51 CURVE SMOOTH",
"1244 -17 OFFCURVE",
"1175 -76 OFFCURVE",
"1066 -76 CURVE SMOOTH",
"906 -76 OFFCURVE",
"819 51 OFFCURVE",
"786 156 CURVE SMOOTH",
"782 168 OFFCURVE",
"763 162 OFFCURVE",
"767 150 CURVE SMOOTH",
"801 41 OFFCURVE",
"894 -96 OFFCURVE",
"1066 -96 CURVE SMOOTH",
"1181 -96 OFFCURVE",
"1254 -36 OFFCURVE",
"1331 37 CURVE SMOOTH"
);
},
{
closed = 1;
nodes = (
"1384 194 OFFCURVE",
"1367 205 OFFCURVE",
"1359 194 CURVE SMOOTH",
"1306 120 OFFCURVE",
"1167 -11 OFFCURVE",
"1084 -11 CURVE SMOOTH",
"979 -11 OFFCURVE",
"899 102 OFFCURVE",
"887 195 CURVE SMOOTH",
"885 208 OFFCURVE",
"865 206 OFFCURVE",
"867 193 CURVE SMOOTH",
"879 94 OFFCURVE",
"965 -31 OFFCURVE",
"1084 -31 CURVE SMOOTH",
"1177 -31 OFFCURVE",
"1316 102 OFFCURVE",
"1375 182 CURVE SMOOTH"
);
},
{
closed = 1;
nodes = (
"1329 668 OFFCURVE",
"1055 683 OFFCURVE",
"903 686 CURVE SMOOTH",
"666 690 OFFCURVE",
"411 618 OFFCURVE",
"354 497 CURVE SMOOTH",
"321 428 OFFCURVE",
"398 448 OFFCURVE",
"430 480 CURVE SMOOTH",
"510 561 OFFCURVE",
"707 612 OFFCURVE",
"883 614 CURVE SMOOTH",
"1063 616 OFFCURVE",
"1198 567 OFFCURVE",
"1173 448 CURVE SMOOTH",
"1157 375 OFFCURVE",
"1048 282 OFFCURVE",
"825 272 CURVE SMOOTH",
"811 271 OFFCURVE",
"812 251 OFFCURVE",
"825 252 CURVE SMOOTH",
"1052 262 OFFCURVE",
"1175 357 OFFCURVE",
"1193 444 CURVE SMOOTH",
"1224 589 OFFCURVE",
"1055 636 OFFCURVE",
"883 634 CURVE SMOOTH",
"706 632 OFFCURVE",
"501 581 OFFCURVE",
"416 494 CURVE SMOOTH",
"407 485 OFFCURVE",
"387 473 OFFCURVE",
"373 470 CURVE SMOOTH",
"361 468 OFFCURVE",
"366 476 OFFCURVE",
"372 489 CURVE SMOOTH",
"423 596 OFFCURVE",
"665 670 OFFCURVE",
"903 666 CURVE SMOOTH",
"1066 663 OFFCURVE",
"1302 645 OFFCURVE",
"1258 434 CURVE SMOOTH",
"1244 369 OFFCURVE",
"1129 245 OFFCURVE",
"933 230 CURVE SMOOTH",
"920 229 OFFCURVE",
"921 209 OFFCURVE",
"935 210 CURVE SMOOTH",
"1137 225 OFFCURVE",
"1262 354 OFFCURVE",
"1278 430 CURVE SMOOTH"
);
}
);
width = 1367;
}
);
note = R;
unicode = 0052;
},
{
glyphname = S;
layers = (
{
hints = (
{
horizontal = 1;
place = "{-79, 20}";
type = Stem;
},
{
horizontal = 1;
place = "{-21, 20}";
type = Stem;
},
{
horizontal = 1;
place = "{208, 20}";
type = Stem;
},
{
horizontal = 1;
place = "{557, -20}";
target = down;
type = TopGhost;
},
{
horizontal = 1;
place = "{686, -20}";
target = down;
type = TopGhost;
},
{
horizontal = 1;
place = "{741, -20}";
target = down;
type = TopGhost;
},
{
place = "{41, 20}";
type = Stem;
},
{
place = "{128, 20}";
type = Stem;
},
{
place = "{290, 20}";
type = Stem;
},
{
place = "{376, 20}";
type = Stem;
},
{
place = "{751, 20}";
type = Stem;
},
{
place = "{837, 20}";
type = Stem;
},
{
place = "{925, 20}";
type = Stem;
}
);
layerId = "6B4F01CB-8044-4D82-912B-2C5A8D883AAC";
paths = (
{
closed = 1;
nodes = (
"965 790 OFFCURVE",
"564 753 OFFCURVE",
"455 699 CURVE SMOOTH",
"282 613 OFFCURVE",
"184 431 OFFCURVE",
"481 359 CURVE SMOOTH",
"694 308 OFFCURVE",
"752 242 OFFCURVE",
"752 185 CURVE SMOOTH",
"752 68 OFFCURVE",
"500 -1 OFFCURVE",
"392 -1 CURVE SMOOTH",
"75 -1 OFFCURVE",
"81 208 OFFCURVE",
"332 208 CURVE SMOOTH",
"345 208 OFFCURVE",
"345 228 OFFCURVE",
"332 228 CURVE SMOOTH",
"56 228 OFFCURVE",
"45 -21 OFFCURVE",
"392 -21 CURVE SMOOTH",
"494 -21 OFFCURVE",
"772 46 OFFCURVE",
"772 185 CURVE SMOOTH",
"772 259 OFFCURVE",
"697 328 OFFCURVE",
"486 379 CURVE SMOOTH",
"224 442 OFFCURVE",
"291 595 OFFCURVE",
"463 681 CURVE SMOOTH",
"561 730 OFFCURVE",
"944 768 OFFCURVE",
"926 580 CURVE SMOOTH",
"925 564 OFFCURVE",
"889 543 OFFCURVE",
"885 569 CURVE SMOOTH",
"862 727 OFFCURVE",
"584 694 OFFCURVE",
"490 649 CURVE SMOOTH",
"363 588 OFFCURVE",
"295 473 OFFCURVE",
"546 413 CURVE SMOOTH",
"781 357 OFFCURVE",
"837 274 OFFCURVE",
"837 196 CURVE SMOOTH",
"837 46 OFFCURVE",
"595 -59 OFFCURVE",
"376 -59 CURVE SMOOTH",
"48 -59 OFFCURVE",
"-100 206 OFFCURVE",
"315 264 CURVE SMOOTH",
"329 266 OFFCURVE",
"326 286 OFFCURVE",
"313 284 CURVE SMOOTH",
"-125 222 OFFCURVE",
"19 -79 OFFCURVE",
"376 -79 CURVE SMOOTH",
"593 -79 OFFCURVE",
"857 26 OFFCURVE",
"857 196 CURVE SMOOTH",
"857 289 OFFCURVE",
"787 376 OFFCURVE",
"550 433 CURVE SMOOTH",
"327 486 OFFCURVE",
"380 574 OFFCURVE",
"498 631 CURVE SMOOTH",
"600 680 OFFCURVE",
"846 695 OFFCURVE",
"865 567 CURVE SMOOTH",
"873 515 OFFCURVE",
"942 539 OFFCURVE",
"946 578 CURVE SMOOTH"
);
}
);
width = 903;
}
);
note = S;
unicode = 0053;
},
{
glyphname = Germandbls;
lastChange = "2021-09-30 07:02:01 +0000";
layers = (
{
hints = (
{
horizontal = 1;
place = "{-534, 20}";
type = Stem;
},
{
horizontal = 1;
place = "{-351, 20}";
type = Stem;
},
{
horizontal = 1;
place = "{-288, 20}";
type = Stem;
},
{
horizontal = 1;
place = "{708, -20}";
target = down;
type = TopGhost;
},
{
horizontal = 1;
place = "{777, -20}";
target = down;
type = TopGhost;
},
{
place = "{-105, 20}";
type = Stem;
},
{
place = "{756, 20}";
type = Stem;
},
{
place = "{836, 20}";
type = Stem;
},
{
place = "{953, 20}";
type = Stem;
},
{
place = "{1044, 20}";
type = Stem;
}
);
layerId = "6B4F01CB-8044-4D82-912B-2C5A8D883AAC";
paths = (
{
closed = 1;
nodes = (
"856 71 OFFCURVE",
"760 131 OFFCURVE",
"705 164 CURVE SMOOTH",
"694 171 OFFCURVE",
"683 154 OFFCURVE",
"695 147 CURVE SMOOTH",
"750 114 OFFCURVE",
"836 59 OFFCURVE",
"836 -54 CURVE SMOOTH",
"836 -281 OFFCURVE",
"499 -363 OFFCURVE",
"308 -322 CURVE SMOOTH",
"295 -319 OFFCURVE",
"291 -338 OFFCURVE",
"304 -341 CURVE SMOOTH",
"494 -382 OFFCURVE",
"856 -305 OFFCURVE",
"856 -54 CURVE SMOOTH"
);
},
{
closed = 1;
nodes = (
"864 296 OFFCURVE",
"764 255 OFFCURVE",
"687 234 CURVE SMOOTH",
"674 230 OFFCURVE",
"680 210 OFFCURVE",
"693 214 CURVE SMOOTH",
"1390 412 OFFCURVE",
"981 1023 OFFCURVE",
"584 675 CURVE SMOOTH",
"437 546 OFFCURVE",
"293 318 OFFCURVE",
"173 95 CURVE SMOOTH",
"53 -128 OFFCURVE",
"-44 -346 OFFCURVE",
"-99 -456 CURVE SMOOTH",
"-132 -524 OFFCURVE",
"-27 -569 OFFCURVE",
"9 -498 CURVE SMOOTH",
"54 -407 OFFCURVE",
"146 -206 OFFCURVE",
"258 4 CURVE SMOOTH",
"371 215 OFFCURVE",
"504 436 OFFCURVE",
"632 568 CURVE SMOOTH",
"908 852 OFFCURVE",
"1046 571 OFFCURVE",
"887 410 CURVE SMOOTH",
"836 359 OFFCURVE",
"764 321 OFFCURVE",
"707 302 CURVE SMOOTH",
"596 265 OFFCURVE",
"547 235 OFFCURVE",
"554 198 CURVE SMOOTH",
"567 135 OFFCURVE",
"756 89 OFFCURVE",
"756 -54 CURVE SMOOTH",
"756 -204 OFFCURVE",
"461 -293 OFFCURVE",
"320 -263 CURVE SMOOTH",
"307 -260 OFFCURVE",
"303 -279 OFFCURVE",
"316 -282 CURVE SMOOTH",
"456 -311 OFFCURVE",
"776 -228 OFFCURVE",
"776 -54 CURVE SMOOTH",
"776 98 OFFCURVE",
"584 154 OFFCURVE",
"574 202 CURVE SMOOTH",
"571 218 OFFCURVE",
"593 243 OFFCURVE",
"714 283 CURVE SMOOTH",
"773 303 OFFCURVE",
"848 342 OFFCURVE",
"901 396 CURVE SMOOTH",
"1079 576 OFFCURVE",
"914 887 OFFCURVE",
"618 582 CURVE SMOOTH",
"488 447 OFFCURVE",
"353 225 OFFCURVE",
"241 14 CURVE SMOOTH",
"128 -197 OFFCURVE",
"36 -398 OFFCURVE",
"-9 -489 CURVE SMOOTH",
"-33 -537 OFFCURVE",
"-103 -509 OFFCURVE",
"-81 -465 CURVE SMOOTH",
"-26 -355 OFFCURVE",
"71 -137 OFFCURVE",
"191 86 CURVE SMOOTH",
"311 308 OFFCURVE",
"453 534 OFFCURVE",
"597 660 CURVE SMOOTH",
"909 933 OFFCURVE",
"1215 577 OFFCURVE",
"939 356 CURVE SMOOTH"
);
}
);
width = 1000;
}
);
unicode = 1E9E;
},
{
glyphname = Schwa;
lastChange = "2021-09-30 06:41:05 +0000";
layers = (
{
hints = (
{
horizontal = 1;
place = "{749, -20}";
type = Stem;
},
{
horizontal = 1;
place = "{703, -20}";
type = Stem;
},
{
horizontal = 1;
place = "{319, 21}";
target = up;
type = BottomGhost;
},
{
horizontal = 1;
place = "{276, 21}";
target = up;
type = BottomGhost;
},
{
horizontal = 1;
place = "{34, 21}";
target = up;
type = BottomGhost;
},
{
horizontal = 1;
place = "{-16, 21}";
target = up;
type = BottomGhost;
},
{
place = "{848, -20}";
type = Stem;
},
{
place = "{769, -20}";
type = Stem;
},
{
place = "{100, -20}";
type = Stem;
},
{
place = "{45, -20}";
type = Stem;
}
);
layerId = "6B4F01CB-8044-4D82-912B-2C5A8D883AAC";
paths = (
{
closed = 1;
nodes = (
"511 301 OFFCURVE",
"402 317 OFFCURVE",
"332 317 CURVE SMOOTH",
"91 317 OFFCURVE",
"-54 34 OFFCURVE",
"258 34 CURVE SMOOTH",
"480 34 OFFCURVE",
"769 295 OFFCURVE",
"769 517 CURVE SMOOTH",
"769 620 OFFCURVE",
"714 703 OFFCURVE",
"606 703 CURVE SMOOTH",
"430 703 OFFCURVE",
"355 566 OFFCURVE",
"317 516 CURVE",
"308 503 OFFCURVE",
"329 500 OFFCURVE",
"337 511 CURVE SMOOTH",
"375 562 OFFCURVE",
"444 683 OFFCURVE",
"606 683 CURVE SMOOTH",
"699 683 OFFCURVE",
"749 613 OFFCURVE",
"749 517 CURVE SMOOTH",
"749 308 OFFCURVE",
"470 54 OFFCURVE",
"258 54 CURVE SMOOTH",
"-19 54 OFFCURVE",
"128 296 OFFCURVE",
"331 296 CURVE SMOOTH",
"399 296 OFFCURVE",
"499 282 OFFCURVE",
"559 243 CURVE",
"577 232 OFFCURVE",
"585 254 OFFCURVE",
"575 260 CURVE"
);
},
{
closed = 1;
nodes = (
"523 368 OFFCURVE",
"373 369 OFFCURVE",
"317 369 CURVE SMOOTH",
"-5 369 OFFCURVE",
"-113 -16 OFFCURVE",
"251 -16 CURVE SMOOTH",
"518 -16 OFFCURVE",
"848 239 OFFCURVE",
"848 519 CURVE SMOOTH",
"848 661 OFFCURVE",
"753 755 OFFCURVE",
"614 755 CURVE SMOOTH",
"400 755 OFFCURVE",
"341 665 OFFCURVE",
"245 514 CURVE SMOOTH",
"239 503 OFFCURVE",
"257 493 OFFCURVE",
"263 504 CURVE SMOOTH",
"359 653 OFFCURVE",
"411 735 OFFCURVE",
"614 735 CURVE SMOOTH",
"743 735 OFFCURVE",
"828 649 OFFCURVE",
"828 519 CURVE SMOOTH",
"828 253 OFFCURVE",
"510 4 OFFCURVE",
"251 4 CURVE SMOOTH",
"-83 4 OFFCURVE",
"30 349 OFFCURVE",
"317 349 CURVE SMOOTH",
"376 349 OFFCURVE",
"513 345 OFFCURVE",
"594 281 CURVE",
"606 271 OFFCURVE",
"623 288 OFFCURVE",
"611 298 CURVE"
);
}
);
width = 873;
}
);
unicode = 018F;
},
{
glyphname = T;
layers = (
{
hints = (
{
horizontal = 1;
place = "{-27, 20}";
type = Stem;
},
{
horizontal = 1;
place = "{30, 20}";
type = Stem;
},
{
horizontal = 1;
place = "{168, 20}";
type = Stem;
},
{
horizontal = 1;
place = "{228, 20}";
type = Stem;
},
{
horizontal = 1;
place = "{278, 20}";
type = Stem;
},
{
horizontal = 1;
place = "{700, -20}";
target = down;
type = TopGhost;
},
{
horizontal = 1;
place = "{750, -20}";
target = down;
type = TopGhost;
},
{
place = "{34, 20}";
type = Stem;
},
{
place = "{110, 20}";
type = Stem;
},
{
place = "{139, 20}";
type = Stem;
},
{
place = "{185, 20}";
type = Stem;
},
{
place = "{502, 20}";
type = Stem;
}
);
layerId = "6B4F01CB-8044-4D82-912B-2C5A8D883AAC";
paths = (
{
closed = 1;
nodes = (
"1064 619 OFFCURVE",
"1046 642 OFFCURVE",
"1021 660 CURVE SMOOTH",
"929 724 OFFCURVE",
"720 750 OFFCURVE",
"615 750 CURVE SMOOTH",
"531 750 OFFCURVE",
"352 743 OFFCURVE",
"245 682 CURVE SMOOTH",
"193 652 OFFCURVE",
"139 599 OFFCURVE",
"139 535 CURVE SMOOTH",
"139 454 OFFCURVE",
"205 464 OFFCURVE",
"205 515 CURVE SMOOTH",
"205 554 OFFCURVE",
"240 595 OFFCURVE",
"274 618 CURVE SMOOTH",
"405 705 OFFCURVE",
"760 699 OFFCURVE",
"890 616 CURVE SMOOTH",
"901 609 OFFCURVE",
"912 625 OFFCURVE",
"900 632 CURVE SMOOTH",
"765 719 OFFCURVE",
"401 726 OFFCURVE",
"262 634 CURVE SMOOTH",
"227 611 OFFCURVE",
"185 565 OFFCURVE",
"185 515 CURVE SMOOTH",
"185 487 OFFCURVE",
"159 485 OFFCURVE",
"159 535 CURVE SMOOTH",
"159 588 OFFCURVE",
"204 635 OFFCURVE",
"255 664 CURVE SMOOTH",
"357 723 OFFCURVE",
"530 730 OFFCURVE",
"615 730 CURVE SMOOTH",
"707 730 OFFCURVE",
"820 714 OFFCURVE",
"906 688 CURVE SMOOTH",
"932 680 OFFCURVE",
"1050 643 OFFCURVE",
"1038 597 CURVE SMOOTH",
"1033 579 OFFCURVE",
"1022 576 OFFCURVE",
"1009 578 CURVE SMOOTH",
"984 582 OFFCURVE",
"961 611 OFFCURVE",
"951 597 CURVE",
"951 597 OFFCURVE",
"837 447 OFFCURVE",
"725 302 CURVE SMOOTH",
"529 48 OFFCURVE",
"324 -7 OFFCURVE",
"205 -7 CURVE SMOOTH",
"126 -7 OFFCURVE",
"39 27 OFFCURVE",
"57 110 CURVE SMOOTH",
"78 210 OFFCURVE",
"212 278 OFFCURVE",
"337 278 CURVE SMOOTH",
"371 278 OFFCURVE",
"456 267 OFFCURVE",
"489 236 CURVE SMOOTH",
"518 209 OFFCURVE",
"493 168 OFFCURVE",
"459 200 CURVE SMOOTH",
"439 219 OFFCURVE",
"398 248 OFFCURVE",
"334 248 CURVE SMOOTH",
"108 248 OFFCURVE",
"18 30 OFFCURVE",
"231 30 CURVE SMOOTH",
"484 30 OFFCURVE",
"735 390 OFFCURVE",
"882 577 CURVE SMOOTH",
"890 587 OFFCURVE",
"874 600 OFFCURVE",
"866 589 CURVE SMOOTH",
"737 425 OFFCURVE",
"478 50 OFFCURVE",
"231 50 CURVE SMOOTH",
"42 50 OFFCURVE",
"142 228 OFFCURVE",
"334 228 CURVE SMOOTH",
"391 228 OFFCURVE",
"428 202 OFFCURVE",
"445 186 CURVE SMOOTH",
"499 136 OFFCURVE",
"552 205 OFFCURVE",
"503 251 CURVE SMOOTH",
"463 288 OFFCURVE",
"371 298 OFFCURVE",
"337 298 CURVE SMOOTH",
"209 298 OFFCURVE",
"61 229 OFFCURVE",
"37 114 CURVE SMOOTH",
"14 7 OFFCURVE",
"129 -27 OFFCURVE",
"205 -27 CURVE SMOOTH",
"331 -27 OFFCURVE",
"541 31 OFFCURVE",
"741 290 CURVE SMOOTH",
"838 415 OFFCURVE",
"937 545 OFFCURVE",
"961 577 CURVE",
"993 557 OFFCURVE",
"1043 540 OFFCURVE",
"1057 592 CURVE SMOOTH"
);
}
);
width = 810;
}
);
note = T;
unicode = 0054;
},
{
glyphname = U;
layers = (
{
hints = (
{
horizontal = 1;
place = "{-17, 20}";
type = Stem;
},
{
horizontal = 1;
place = "{48, 20}";
type = Stem;
},
{
horizontal = 1;
place = "{75, 20}";
type = Stem;
},
{
horizontal = 1;
place = "{535, -20}";
target = down;
type = TopGhost;
},
{
horizontal = 1;
place = "{679, -20}";
target = down;
type = TopGhost;
},
{
horizontal = 1;
place = "{743, -20}";
target = down;
type = TopGhost;
},
{
place = "{282, 20}";
type = Stem;
},
{
place = "{371, 20}";
type = Stem;
},
{
place = "{601, 20}";
type = Stem;
},
{
place = "{747, 20}";
type = Stem;
}
);
layerId = "6B4F01CB-8044-4D82-912B-2C5A8D883AAC";
paths = (
{
closed = 1;
nodes = (
"698 176 OFFCURVE",
"683 190 OFFCURVE",
"674 180 CURVE SMOOTH",
"565 57 OFFCURVE",
"461 3 OFFCURVE",
"392 10 CURVE SMOOTH",
"327 17 OFFCURVE",
"285 80 OFFCURVE",
"307 216 CURVE SMOOTH",
"316 270 OFFCURVE",
"405 456 OFFCURVE",
"504 564 CURVE SMOOTH",
"513 574 OFFCURVE",
"498 588 OFFCURVE",
"489 578 CURVE SMOOTH",
"388 468 OFFCURVE",
"297 278 OFFCURVE",
"288 220 CURVE SMOOTH",
"265 81 OFFCURVE",
"306 -1 OFFCURVE",
"390 -10 CURVE SMOOTH",
"469 -18 OFFCURVE",
"579 43 OFFCURVE",
"689 166 CURVE SMOOTH"
);
},
{
closed = 1;
nodes = (
"991 104 OFFCURVE",
"976 117 OFFCURVE",
"967 107 CURVE SMOOTH",
"888 21 OFFCURVE",
"824 3 OFFCURVE",
"769 3 CURVE SMOOTH",
"714 3 OFFCURVE",
"679 79 OFFCURVE",
"685 131 CURVE SMOOTH",
"687 144 OFFCURVE",
"667 146 OFFCURVE",
"665 133 CURVE SMOOTH",
"659 79 OFFCURVE",
"695 -17 OFFCURVE",
"769 -17 CURVE SMOOTH",
"830 -17 OFFCURVE",
"899 3 OFFCURVE",
"982 94 CURVE SMOOTH"
);
},
{
closed = 1;
nodes = (
"429 739 OFFCURVE",
"117 816 OFFCURVE",
"1 564 CURVE SMOOTH",
"-25 509 OFFCURVE",
"52 496 OFFCURVE",
"75 548 CURVE SMOOTH",
"143 704 OFFCURVE",
"383 661 OFFCURVE",
"527 620 CURVE SMOOTH",
"539 617 OFFCURVE",
"545 636 OFFCURVE",
"532 640 CURVE SMOOTH",
"395 679 OFFCURVE",
"133 731 OFFCURVE",
"56 556 CURVE SMOOTH",
"45 531 OFFCURVE",
"4 524 OFFCURVE",
"19 556 CURVE SMOOTH",
"127 790 OFFCURVE",
"418 720 OFFCURVE",
"553 676 CURVE SMOOTH",
"566 672 OFFCURVE",
"572 692 OFFCURVE",
"559 696 CURVE SMOOTH"
);
},
{
closed = 1;
nodes = (
"1007 715 OFFCURVE",
"948 792 OFFCURVE",
"899 699 CURVE SMOOTH",
"804 520 OFFCURVE",
"691 263 OFFCURVE",
"527 140 CURVE SMOOTH",
"423 62 OFFCURVE",
"395 98 OFFCURVE",
"391 150 CURVE SMOOTH",
"384 249 OFFCURVE",
"473 414 OFFCURVE",
"533 490 CURVE SMOOTH",
"555 518 OFFCURVE",
"653 637 OFFCURVE",
"610 679 CURVE SMOOTH",
"601 688 OFFCURVE",
"587 674 OFFCURVE",
"596 665 CURVE SMOOTH",
"624 637 OFFCURVE",
"531 520 OFFCURVE",
"517 503 CURVE SMOOTH",
"457 426 OFFCURVE",
"363 256 OFFCURVE",
"371 148 CURVE SMOOTH",
"376 72 OFFCURVE",
"430 42 OFFCURVE",
"539 124 CURVE SMOOTH",
"708 250 OFFCURVE",
"819 506 OFFCURVE",
"916 689 CURVE SMOOTH",
"953 759 OFFCURVE",
"977 699 OFFCURVE",
"969 680 CURVE SMOOTH",
"964 668 OFFCURVE",
"983 660 OFFCURVE",
"988 672 CURVE SMOOTH"
);
},
{
closed = 1;
nodes = (
"998 193 OFFCURVE",
"983 205 OFFCURVE",
"974 195 CURVE SMOOTH",
"874 73 OFFCURVE",
"806 53 OFFCURVE",
"782 77 CURVE SMOOTH",
"755 104 OFFCURVE",
"759 197 OFFCURVE",
"830 349 CURVE SMOOTH",
"843 377 OFFCURVE",
"922 547 OFFCURVE",
"970 628 CURVE SMOOTH",
"977 639 OFFCURVE",
"960 650 OFFCURVE",
"953 638 CURVE SMOOTH",
"905 557 OFFCURVE",
"825 385 OFFCURVE",
"812 357 CURVE SMOOTH",
"743 209 OFFCURVE",
"729 101 OFFCURVE",
"768 63 CURVE SMOOTH",
"810 21 OFFCURVE",
"894 68 OFFCURVE",
"989 183 CURVE SMOOTH"
);
}
);
width = 981;
}
);
note = U;
unicode = 0055;
},
{
glyphname = V;
layers = (
{
hints = (
{
horizontal = 1;
place = "{268, 20}";
type = Stem;
},
{
horizontal = 1;
place = "{753, -20}";
target = down;
type = TopGhost;
},
{
horizontal = 1;
place = "{808, -20}";
target = down;
type = TopGhost;
},
{
horizontal = 1;
place = "{828, -20}";
target = down;
type = TopGhost;
},
{
place = "{-1, 20}";
type = Stem;
},
{
place = "{70, 21}";
type = Stem;
},
{
place = "{321, 20}";
type = Stem;
},
{
place = "{393, 20}";
type = Stem;
},
{
place = "{1028, 20}";
type = Stem;
}
);
layerId = "6B4F01CB-8044-4D82-912B-2C5A8D883AAC";
paths = (
{
closed = 1;
nodes = (
"715 815 OFFCURVE",
"600 529 OFFCURVE",
"479 320 CURVE SMOOTH",
"440 253 OFFCURVE",
"402 198 OFFCURVE",
"358 166 CURVE SMOOTH",
"347 158 OFFCURVE",
"359 142 OFFCURVE",
"370 150 CURVE SMOOTH",
"418 184 OFFCURVE",
"458 243 OFFCURVE",
"497 310 CURVE SMOOTH",
"614 511 OFFCURVE",
"726 795 OFFCURVE",
"1010 788 CURVE SMOOTH",
"1037 787 OFFCURVE",
"1032 762 OFFCURVE",
"1005 762 CURVE SMOOTH",
"876 760 OFFCURVE",
"775 672 OFFCURVE",
"697 570 CURVE SMOOTH",
"628 480 OFFCURVE",
"580 380 OFFCURVE",
"524 283 CURVE SMOOTH",
"448 150 OFFCURVE",
"317 -4 OFFCURVE",
"245 -22 CURVE SMOOTH",
"234 -25 OFFCURVE",
"228 -22 OFFCURVE",
"226 -15 CURVE SMOOTH",
"221 5 OFFCURVE",
"240 22 OFFCURVE",
"253 33 CURVE",
"255 36 LINE SMOOTH",
"348 223 OFFCURVE",
"372 543 OFFCURVE",
"299 673 CURVE SMOOTH",
"248 762 OFFCURVE",
"163 774 OFFCURVE",
"111 723 CURVE SMOOTH",
"5 618 OFFCURVE",
"127 393 OFFCURVE",
"237 329 CURVE SMOOTH",
"250 322 OFFCURVE",
"279 311 OFFCURVE",
"289 304 CURVE",
"289 303 OFFCURVE",
"290 300 OFFCURVE",
"283 295 CURVE SMOOTH",
"217 254 OFFCURVE",
"103 394 OFFCURVE",
"74 440 CURVE SMOOTH",
"-100 719 OFFCURVE",
"186 952 OFFCURVE",
"345 701 CURVE SMOOTH",
"420 582 OFFCURVE",
"394 351 OFFCURVE",
"362 216 CURVE SMOOTH",
"359 203 OFFCURVE",
"379 199 OFFCURVE",
"382 212 CURVE SMOOTH",
"413 346 OFFCURVE",
"442 585 OFFCURVE",
"362 712 CURVE SMOOTH",
"190 984 OFFCURVE",
"-132 732 OFFCURVE",
"57 430 CURVE SMOOTH",
"92 373 OFFCURVE",
"213 228 OFFCURVE",
"293 279 CURVE SMOOTH",
"300 283 OFFCURVE",
"316 297 OFFCURVE",
"306 314 CURVE SMOOTH",
"301 322 OFFCURVE",
"290 325 OFFCURVE",
"283 329 CURVE",
"222 355 OFFCURVE",
"182 391 OFFCURVE",
"146 449 CURVE SMOOTH",
"-6 692 OFFCURVE",
"191 822 OFFCURVE",
"281 663 CURVE SMOOTH",
"350 541 OFFCURVE",
"328 231 OFFCURVE",
"238 47 CURVE",
"230 40 OFFCURVE",
"221 31 OFFCURVE",
"214 21 CURVE SMOOTH",
"195 -9 OFFCURVE",
"206 -53 OFFCURVE",
"250 -42 CURVE SMOOTH",
"332 -22 OFFCURVE",
"466 142 OFFCURVE",
"542 273 CURVE SMOOTH",
"561 306 OFFCURVE",
"584 352 OFFCURVE",
"613 403 CURVE SMOOTH",
"693 545 OFFCURVE",
"822 739 OFFCURVE",
"1005 742 CURVE SMOOTH",
"1060 743 OFFCURVE",
"1063 807 OFFCURVE",
"1010 808 CURVE SMOOTH"
);
}
);
width = 622;
}
);
note = V;
unicode = 0056;
},
{
glyphname = W;
layers = (
{
hints = (
{
horizontal = 1;
place = "{-8, 20}";
type = Stem;
},
{
horizontal = 1;
place = "{48, 20}";
type = Stem;
},
{
horizontal = 1;
place = "{77, 20}";
type = Stem;
},
{
horizontal = 1;
place = "{575, -20}";
target = down;
type = TopGhost;
},
{
horizontal = 1;
place = "{745, -20}";
target = down;
type = TopGhost;
},
{
horizontal = 1;
place = "{817, -20}";
target = down;
type = TopGhost;
},
{
place = "{58, 19}";
type = Stem;
},
{
place = "{106, 20}";
type = Stem;
},
{
place = "{196, 21}";
type = Stem;
},
{
place = "{407, 20}";
type = Stem;
},
{
place = "{565, 20}";
type = Stem;
},
{
place = "{705, 20}";
type = Stem;
},
{
place = "{838, 20}";
type = Stem;
},
{
place = "{939, 20}";
type = Stem;
}
);
layerId = "6B4F01CB-8044-4D82-912B-2C5A8D883AAC";
paths = (
{
closed = 1;
nodes = (
"739 556 OFFCURVE",
"674 620 OFFCURVE",
"624 527 CURVE SMOOTH",
"548 384 OFFCURVE",
"479 240 OFFCURVE",
"345 140 CURVE SMOOTH",
"267 82 OFFCURVE",
"234 93 OFFCURVE",
"223 116 CURVE SMOOTH",
"208 146 OFFCURVE",
"218 208 OFFCURVE",
"255 277 CURVE SMOOTH",
"306 372 OFFCURVE",
"400 459 OFFCURVE",
"420 566 CURVE SMOOTH",
"480 883 OFFCURVE",
"73 918 OFFCURVE",
"5 568 CURVE SMOOTH",
"-8 502 OFFCURVE",
"-19 314 OFFCURVE",
"75 296 CURVE SMOOTH",
"83 294 OFFCURVE",
"104 294 OFFCURVE",
"108 313 CURVE SMOOTH",
"110 322 OFFCURVE",
"105 332 OFFCURVE",
"101 340 CURVE SMOOTH",
"75 401 OFFCURVE",
"71 453 OFFCURVE",
"84 521 CURVE SMOOTH",
"138 801 OFFCURVE",
"371 763 OFFCURVE",
"328 585 CURVE SMOOTH",
"307 496 OFFCURVE",
"217 405 OFFCURVE",
"167 327 CURVE SMOOTH",
"86 201 OFFCURVE",
"87 71 OFFCURVE",
"156 17 CURVE SMOOTH",
"226 -38 OFFCURVE",
"354 -6 OFFCURVE",
"507 166 CURVE SMOOTH",
"516 176 OFFCURVE",
"501 190 OFFCURVE",
"492 180 CURVE SMOOTH",
"338 7 OFFCURVE",
"224 -11 OFFCURVE",
"169 32 CURVE SMOOTH",
"112 77 OFFCURVE",
"104 193 OFFCURVE",
"184 317 CURVE SMOOTH",
"236 398 OFFCURVE",
"325 486 OFFCURVE",
"348 581 CURVE SMOOTH",
"372 680 OFFCURVE",
"317 747 OFFCURVE",
"244 745 CURVE SMOOTH",
"95 741 OFFCURVE",
"31 493 OFFCURVE",
"68 371 CURVE SMOOTH",
"72 357 OFFCURVE",
"87 330 OFFCURVE",
"89 317 CURVE",
"89 317 OFFCURVE",
"87 314 OFFCURVE",
"79 315 CURVE SMOOTH",
"2 330 OFFCURVE",
"14 510 OFFCURVE",
"24 564 CURVE SMOOTH",
"87 887 OFFCURVE",
"456 861 OFFCURVE",
"401 570 CURVE SMOOTH",
"386 493 OFFCURVE",
"328 422 OFFCURVE",
"283 358 CURVE SMOOTH",
"241 298 OFFCURVE",
"171 178 OFFCURVE",
"205 107 CURVE SMOOTH",
"226 62 OFFCURVE",
"282 68 OFFCURVE",
"357 124 CURVE SMOOTH",
"494 226 OFFCURVE",
"564 371 OFFCURVE",
"642 517 CURVE SMOOTH",
"678 586 OFFCURVE",
"711 542 OFFCURVE",
"703 522 CURVE SMOOTH",
"697 509 OFFCURVE",
"716 502 OFFCURVE",
"721 514 CURVE SMOOTH"
);
},
{
closed = 1;
nodes = (
"1051 522 OFFCURVE",
"1042 676 OFFCURVE",
"901 751 CURVE SMOOTH",
"858 774 OFFCURVE",
"807 704 OFFCURVE",
"860 683 CURVE SMOOTH",
"960 643 OFFCURVE",
"953 510 OFFCURVE",
"905 379 CURVE SMOOTH",
"889 335 OFFCURVE",
"849 256 OFFCURVE",
"799 188 CURVE SMOOTH",
"748 118 OFFCURVE",
"674 64 OFFCURVE",
"622 68 CURVE SMOOTH",
"593 70 OFFCURVE",
"573 106 OFFCURVE",
"593 196 CURVE SMOOTH",
"612 279 OFFCURVE",
"664 389 OFFCURVE",
"706 465 CURVE SMOOTH",
"713 477 OFFCURVE",
"695 487 OFFCURVE",
"688 475 CURVE SMOOTH",
"645 398 OFFCURVE",
"593 286 OFFCURVE",
"573 200 CURVE SMOOTH",
"554 115 OFFCURVE",
"567 52 OFFCURVE",
"620 48 CURVE SMOOTH",
"683 43 OFFCURVE",
"763 105 OFFCURVE",
"815 176 CURVE SMOOTH",
"866 245 OFFCURVE",
"906 326 OFFCURVE",
"923 373 CURVE SMOOTH",
"970 500 OFFCURVE",
"987 654 OFFCURVE",
"868 701 CURVE SMOOTH",
"841 712 OFFCURVE",
"874 742 OFFCURVE",
"891 733 CURVE SMOOTH",
"1020 664 OFFCURVE",
"1031 525 OFFCURVE",
"989 387 CURVE SMOOTH",
"939 219 OFFCURVE",
"790 2 OFFCURVE",
"599 2 CURVE SMOOTH",
"530 2 OFFCURVE",
"497 80 OFFCURVE",
"503 131 CURVE SMOOTH",
"505 144 OFFCURVE",
"485 146 OFFCURVE",
"483 133 CURVE SMOOTH",
"477 78 OFFCURVE",
"512 -18 OFFCURVE",
"599 -18 CURVE SMOOTH",
"804 -18 OFFCURVE",
"958 212 OFFCURVE",
"1009 381 CURVE SMOOTH"
);
}
);
width = 992;
}
);
note = W;
unicode = 0057;
},
{
glyphname = X;
lastChange = "2021-09-30 04:35:02 +0000";
layers = (
{
hints = (
{
horizontal = 1;
place = "{-91, 20}";
type = Stem;
},
{
horizontal = 1;
place = "{-10, 20}";
type = Stem;
},
{
horizontal = 1;
place = "{56, 21}";
type = Stem;
},
{
horizontal = 1;
place = "{716, -20}";
target = down;
type = TopGhost;
},
{
horizontal = 1;
place = "{752, -20}";
target = down;
type = TopGhost;
},
{
place = "{708, 20}";
type = Stem;
}
);
layerId = "6B4F01CB-8044-4D82-912B-2C5A8D883AAC";
paths = (
{
closed = 1;
nodes = (
"727 606 OFFCURVE",
"654 522 OFFCURVE",
"584 444 CURVE SMOOTH",
"515 366 OFFCURVE",
"448 293 OFFCURVE",
"437 281 CURVE SMOOTH",
"428 271 OFFCURVE",
"414 285 OFFCURVE",
"423 295 CURVE SMOOTH",
"433 307 OFFCURVE",
"500 379 OFFCURVE",
"569 457 CURVE SMOOTH",
"639 536 OFFCURVE",
"712 619 OFFCURVE",
"736 652 CURVE SMOOTH",
"769 699 OFFCURVE",
"718 713 OFFCURVE",
"683 672 CURVE SMOOTH",
"632 614 OFFCURVE",
"423 370 OFFCURVE",
"412 356 CURVE SMOOTH",
"404 345 OFFCURVE",
"388 358 OFFCURVE",
"396 368 CURVE SMOOTH",
"407 382 OFFCURVE",
"617 627 OFFCURVE",
"667 685 CURVE SMOOTH",
"721 748 OFFCURVE",
"799 707 OFFCURVE",
"752 641 CURVE SMOOTH"
);
},
{
closed = 1;
nodes = (
"683 89 OFFCURVE",
"544 -45 OFFCURVE",
"425 173 CURVE SMOOTH",
"357 297 OFFCURVE",
"319 521 OFFCURVE",
"298 664 CURVE SMOOTH",
"295 681 OFFCURVE",
"288 722 OFFCURVE",
"272 731 CURVE SMOOTH",
"263 735 OFFCURVE",
"239 730 OFFCURVE",
"189 641 CURVE SMOOTH",
"155 581 OFFCURVE",
"63 438 OFFCURVE",
"-6 343 CURVE SMOOTH",
"-14 333 OFFCURVE",
"-31 344 OFFCURVE",
"-23 355 CURVE SMOOTH",
"45 449 OFFCURVE",
"138 591 OFFCURVE",
"171 651 CURVE SMOOTH",
"217 733 OFFCURVE",
"252 764 OFFCURVE",
"281 749 CURVE SMOOTH",
"306 736 OFFCURVE",
"314 692 OFFCURVE",
"318 668 CURVE SMOOTH",
"344 497 OFFCURVE",
"435 -200 OFFCURVE",
"738 194 CURVE SMOOTH",
"746 205 OFFCURVE",
"762 192 OFFCURVE",
"754 182 CURVE SMOOTH"
);
},
{
closed = 1;
nodes = (
"219 545 OFFCURVE",
"134 399 OFFCURVE",
"-2 268 CURVE SMOOTH",
"-12 258 OFFCURVE",
"-26 273 OFFCURVE",
"-16 282 CURVE SMOOTH",
"118 411 OFFCURVE",
"201 555 OFFCURVE",
"231 609 CURVE SMOOTH",
"238 621 OFFCURVE",
"256 611 OFFCURVE",
"249 599 CURVE SMOOTH"
);
},
{
closed = 1;
nodes = (
"309 134 OFFCURVE",
"186 1 OFFCURVE",
"135 -57 CURVE SMOOTH",
"81 -120 OFFCURVE",
"-3 -87 OFFCURVE",
"45 -21 CURVE SMOOTH",
"58 -2 OFFCURVE",
"97 41 OFFCURVE",
"140 89 CURVE SMOOTH",
"184 137 OFFCURVE",
"234 191 OFFCURVE",
"270 233 CURVE SMOOTH",
"279 243 OFFCURVE",
"294 229 OFFCURVE",
"286 219 CURVE SMOOTH",
"249 177 OFFCURVE",
"199 123 OFFCURVE",
"155 75 CURVE SMOOTH",
"111 27 OFFCURVE",
"74 -15 OFFCURVE",
"61 -33 CURVE SMOOTH",
"27 -80 OFFCURVE",
"86 -83 OFFCURVE",
"120 -44 CURVE SMOOTH",
"170 14 OFFCURVE",
"293 146 OFFCURVE",
"304 160 CURVE SMOOTH",
"312 171 OFFCURVE",
"328 158 OFFCURVE",
"320 148 CURVE SMOOTH"
);
},
{
closed = 1;
nodes = (
"662 20 OFFCURVE",
"611 -10 OFFCURVE",
"554 -10 CURVE SMOOTH",
"380 -10 OFFCURVE",
"289 222 OFFCURVE",
"254 467 CURVE SMOOTH",
"252 480 OFFCURVE",
"272 483 OFFCURVE",
"274 469 CURVE SMOOTH",
"310 220 OFFCURVE",
"400 10 OFFCURVE",
"554 10 CURVE SMOOTH",
"605 10 OFFCURVE",
"654 35 OFFCURVE",
"691 64 CURVE SMOOTH",
"706 76 OFFCURVE",
"717 58 OFFCURVE",
"704 49 CURVE SMOOTH"
);
}
);
width = 746;
}
);
note = X;
unicode = 0058;
},
{
glyphname = Y;
layers = (
{
hints = (
{
horizontal = 1;
place = "{-296, 20}";
type = Stem;
},
{
horizontal = 1;
place = "{-235, 21}";
type = Stem;
},
{
horizontal = 1;
place = "{-149, 20}";
type = Stem;
},
{
horizontal = 1;
place = "{60, 20}";
type = Stem;
},
{
horizontal = 1;
place = "{535, -20}";
target = down;
type = TopGhost;
},
{
horizontal = 1;
place = "{679, -20}";
target = down;
type = TopGhost;
},
{
horizontal = 1;
place = "{745, -20}";
target = down;
type = TopGhost;
},
{
place = "{152, 21}";
type = Stem;
},
{
place = "{371, 20}";
type = Stem;
},
{
place = "{601, 20}";
type = Stem;
},
{
place = "{971, 20}";
type = Stem;
}
);
layerId = "6B4F01CB-8044-4D82-912B-2C5A8D883AAC";
paths = (
{
closed = 1;
nodes = (
"670 149 OFFCURVE",
"655 163 OFFCURVE",
"647 153 CURVE SMOOTH",
"461 -57 OFFCURVE",
"267 -34 OFFCURVE",
"307 216 CURVE SMOOTH",
"316 270 OFFCURVE",
"405 456 OFFCURVE",
"504 564 CURVE SMOOTH",
"513 574 OFFCURVE",
"498 588 OFFCURVE",
"489 578 CURVE SMOOTH",
"388 468 OFFCURVE",
"297 278 OFFCURVE",
"288 220 CURVE SMOOTH",
"239 -78 OFFCURVE",
"483 -62 OFFCURVE",
"661 139 CURVE SMOOTH"
);
},
{
closed = 1;
nodes = (
"1005 717 OFFCURVE",
"935 796 OFFCURVE",
"898 698 CURVE SMOOTH",
"852 578 OFFCURVE",
"806 457 OFFCURVE",
"742 345 CURVE SMOOTH",
"696 264 OFFCURVE",
"608 167 OFFCURVE",
"531 116 CURVE SMOOTH",
"451 63 OFFCURVE",
"398 64 OFFCURVE",
"391 150 CURVE SMOOTH",
"384 249 OFFCURVE",
"473 414 OFFCURVE",
"533 490 CURVE SMOOTH",
"555 518 OFFCURVE",
"653 636 OFFCURVE",
"610 679 CURVE SMOOTH",
"600 689 OFFCURVE",
"587 674 OFFCURVE",
"596 665 CURVE SMOOTH",
"624 637 OFFCURVE",
"531 520 OFFCURVE",
"517 503 CURVE SMOOTH",
"457 426 OFFCURVE",
"363 256 OFFCURVE",
"371 148 CURVE SMOOTH",
"379 33 OFFCURVE",
"464 47 OFFCURVE",
"542 99 CURVE SMOOTH",
"622 152 OFFCURVE",
"712 252 OFFCURVE",
"760 335 CURVE SMOOTH",
"824 448 OFFCURVE",
"871 570 OFFCURVE",
"917 691 CURVE SMOOTH",
"945 764 OFFCURVE",
"976 698 OFFCURVE",
"969 680 CURVE SMOOTH",
"911 525 OFFCURVE",
"830 345 OFFCURVE",
"742 178 CURVE SMOOTH",
"665 31 OFFCURVE",
"586 -105 OFFCURVE",
"474 -194 CURVE SMOOTH",
"411 -244 OFFCURVE",
"331 -275 OFFCURVE",
"270 -276 CURVE SMOOTH",
"210 -277 OFFCURVE",
"169 -250 OFFCURVE",
"173 -183 CURVE SMOOTH",
"173 -174 OFFCURVE",
"188 -141 OFFCURVE",
"200 -151 CURVE SMOOTH",
"223 -169 OFFCURVE",
"217 -271 OFFCURVE",
"333 -222 CURVE SMOOTH",
"453 -171 OFFCURVE",
"561 -31 OFFCURVE",
"634 68 CURVE SMOOTH",
"642 79 OFFCURVE",
"626 91 OFFCURVE",
"618 80 CURVE SMOOTH",
"558 -1 OFFCURVE",
"492 -82 OFFCURVE",
"437 -130 CURVE SMOOTH",
"401 -161 OFFCURVE",
"261 -272 OFFCURVE",
"235 -176 CURVE SMOOTH",
"224 -138 OFFCURVE",
"204 -120 OFFCURVE",
"181 -133 CURVE SMOOTH",
"131 -162 OFFCURVE",
"135 -298 OFFCURVE",
"270 -296 CURVE SMOOTH",
"337 -295 OFFCURVE",
"420 -262 OFFCURVE",
"486 -210 CURVE SMOOTH",
"602 -118 OFFCURVE",
"683 22 OFFCURVE",
"760 168 CURVE SMOOTH",
"848 337 OFFCURVE",
"931 518 OFFCURVE",
"988 672 CURVE SMOOTH"
);
},
{
closed = 1;
nodes = (
"429 739 OFFCURVE",
"117 816 OFFCURVE",
"1 564 CURVE SMOOTH",
"-25 509 OFFCURVE",
"52 496 OFFCURVE",
"75 548 CURVE SMOOTH",
"143 704 OFFCURVE",
"383 661 OFFCURVE",
"527 620 CURVE SMOOTH",
"539 617 OFFCURVE",
"545 636 OFFCURVE",
"532 640 CURVE SMOOTH",
"395 679 OFFCURVE",
"133 731 OFFCURVE",
"56 556 CURVE SMOOTH",
"45 531 OFFCURVE",
"4 524 OFFCURVE",
"19 556 CURVE SMOOTH",
"127 790 OFFCURVE",
"418 720 OFFCURVE",
"553 676 CURVE SMOOTH",
"566 672 OFFCURVE",
"572 692 OFFCURVE",
"559 696 CURVE SMOOTH"
);
}
);
width = 907;
}
);
note = Y;
unicode = 0059;
},
{
glyphname = Z;
layers = (
{
hints = (
{
horizontal = 1;
place = "{-29, 20}";
type = Stem;
},
{
horizontal = 1;
place = "{31, 20}";
type = Stem;
},
{
horizontal = 1;
place = "{98, 20}";
type = Stem;
},
{
horizontal = 1;
place = "{160, 20}";
type = Stem;
},
{
horizontal = 1;
place = "{692, -20}";
target = down;
type = TopGhost;
},
{
horizontal = 1;
place = "{725, -20}";
target = down;
type = TopGhost;
},
{
horizontal = 1;
place = "{752, -20}";
target = down;
type = TopGhost;
},
{
place = "{4, 20}";
type = Stem;
},
{
place = "{97, 20}";
type = Stem;
},
{
place = "{155, 20}";
type = Stem;
},
{
place = "{680, 20}";
type = Stem;
},
{
place = "{739, 20}";
type = Stem;
}
);
layerId = "6B4F01CB-8044-4D82-912B-2C5A8D883AAC";
paths = (
{
closed = 1;
nodes = (
"673 271 OFFCURVE",
"655 263 OFFCURVE",
"660 251 CURVE SMOOTH",
"708 131 OFFCURVE",
"669 51 OFFCURVE",
"551 51 CURVE SMOOTH",
"417 51 OFFCURVE",
"317 155 OFFCURVE",
"189 175 CURVE SMOOTH",
"44 198 OFFCURVE",
"-72 130 OFFCURVE",
"-60 42 CURVE SMOOTH",
"-58 29 OFFCURVE",
"-38 32 OFFCURVE",
"-40 45 CURVE SMOOTH",
"-48 109 OFFCURVE",
"41 178 OFFCURVE",
"186 155 CURVE SMOOTH",
"317 135 OFFCURVE",
"409 31 OFFCURVE",
"551 31 CURVE SMOOTH",
"689 31 OFFCURVE",
"729 131 OFFCURVE",
"678 259 CURVE SMOOTH"
);
},
{
closed = 1;
nodes = (
"730 272 OFFCURVE",
"713 263 OFFCURVE",
"719 251 CURVE SMOOTH",
"780 132 OFFCURVE",
"695 -9 OFFCURVE",
"532 -9 CURVE SMOOTH",
"399 -9 OFFCURVE",
"295 96 OFFCURVE",
"164 114 CURVE SMOOTH",
"75 127 OFFCURVE",
"23 107 OFFCURVE",
"8 73 CURVE SMOOTH",
"-7 37 OFFCURVE",
"19 -3 OFFCURVE",
"62 -19 CURVE SMOOTH",
"75 -24 OFFCURVE",
"82 -6 OFFCURVE",
"69 -1 CURVE SMOOTH",
"31 13 OFFCURVE",
"17 44 OFFCURVE",
"26 65 CURVE SMOOTH",
"34 85 OFFCURVE",
"72 108 OFFCURVE",
"161 95 CURVE SMOOTH",
"294 76 OFFCURVE",
"392 -29 OFFCURVE",
"532 -29 CURVE SMOOTH",
"707 -29 OFFCURVE",
"806 126 OFFCURVE",
"737 261 CURVE"
);
},
{
closed = 1;
nodes = (
"573 588 OFFCURVE",
"562 604 OFFCURVE",
"551 597 CURVE SMOOTH",
"382 484 OFFCURVE",
"184 330 OFFCURVE",
"44 187 CURVE SMOOTH",
"35 177 OFFCURVE",
"49 163 OFFCURVE",
"58 173 CURVE SMOOTH",
"158 275 OFFCURVE",
"284 377 OFFCURVE",
"385 453 CURVE SMOOTH",
"486 530 OFFCURVE",
"562 580 OFFCURVE",
"562 580 CURVE"
);
},
{
closed = 1;
nodes = (
"770 718 OFFCURVE",
"734 732 OFFCURVE",
"683 727 CURVE SMOOTH",
"547 713 OFFCURVE",
"418 776 OFFCURVE",
"282 743 CURVE SMOOTH",
"106 701 OFFCURVE",
"43 532 OFFCURVE",
"148 422 CURVE SMOOTH",
"157 412 OFFCURVE",
"171 426 OFFCURVE",
"162 436 CURVE SMOOTH",
"72 531 OFFCURVE",
"121 684 OFFCURVE",
"286 723 CURVE SMOOTH",
"420 755 OFFCURVE",
"551 693 OFFCURVE",
"685 707 CURVE SMOOTH",
"821 721 OFFCURVE",
"683 602 OFFCURVE",
"656 581 CURVE SMOOTH",
"619 553 OFFCURVE",
"545 507 OFFCURVE",
"457 443 CURVE SMOOTH",
"368 379 OFFCURVE",
"266 296 OFFCURVE",
"173 194 CURVE SMOOTH",
"164 184 OFFCURVE",
"179 171 OFFCURVE",
"188 181 CURVE SMOOTH",
"279 281 OFFCURVE",
"381 363 OFFCURVE",
"469 427 CURVE SMOOTH",
"557 491 OFFCURVE",
"631 537 OFFCURVE",
"668 565 CURVE SMOOTH",
"723 607 OFFCURVE",
"757 648 OFFCURVE",
"763 679 CURVE SMOOTH"
);
},
{
closed = 1;
nodes = (
"675 645 OFFCURVE",
"673 665 OFFCURVE",
"660 664 CURVE SMOOTH",
"526 652 OFFCURVE",
"417 716 OFFCURVE",
"277 682 CURVE SMOOTH",
"139 649 OFFCURVE",
"122 546 OFFCURVE",
"206 438 CURVE SMOOTH",
"214 427 OFFCURVE",
"230 440 OFFCURVE",
"222 450 CURVE SMOOTH",
"144 550 OFFCURVE",
"162 634 OFFCURVE",
"282 663 CURVE SMOOTH",
"411 694 OFFCURVE",
"533 632 OFFCURVE",
"662 644 CURVE SMOOTH"
);
}
);
width = 764;
}
);
note = Z;
unicode = 005A;
},
{
glyphname = a;
lastChange = "2021-09-30 04:03:10 +0000";
layers = (
{
hints = (
{
horizontal = 1;
place = "{-10, 20}";
type = Stem;
},
{
horizontal = 1;
place = "{54, 20}";
type = Stem;
},
{
horizontal = 1;
place = "{309, -20}";
target = down;
type = TopGhost;
},
{
horizontal = 1;
place = "{358, -20}";
target = down;
type = TopGhost;
},
{
place = "{-20, 20}";
type = Stem;
},
{
place = "{36, 20}";
type = Stem;
},
{
place = "{169, 20}";
type = Stem;
},
{
place = "{249, 20}";
type = Stem;
},
{
place = "{369, 20}";
type = Stem;
}
);
layerId = "6B4F01CB-8044-4D82-912B-2C5A8D883AAC";
paths = (
{
closed = 1;
nodes = (
"159 47 OFFCURVE",
"143 59 OFFCURVE",
"135 48 CURVE SMOOTH",
"97 -6 OFFCURVE",
"-4 -6 OFFCURVE",
"0 80 CURVE SMOOTH",
"1 93 OFFCURVE",
"-19 94 OFFCURVE",
"-20 81 CURVE SMOOTH",
"-25 -27 OFFCURVE",
"102 -33 OFFCURVE",
"151 36 CURVE SMOOTH"
);
},
{
closed = 1;
nodes = (
"413 59 OFFCURVE",
"401 74 OFFCURVE",
"391 66 CURVE SMOOTH",
"349 35 OFFCURVE",
"304 10 OFFCURVE",
"253 10 CURVE SMOOTH",
"189 10 OFFCURVE",
"178 67 OFFCURVE",
"199 104 CURVE SMOOTH",
"205 116 OFFCURVE",
"188 126 OFFCURVE",
"181 114 CURVE SMOOTH",
"156 69 OFFCURVE",
"167 -10 OFFCURVE",
"253 -10 CURVE SMOOTH",
"311 -10 OFFCURVE",
"360 18 OFFCURVE",
"403 50 CURVE"
);
},
{
closed = 1;
nodes = (
"239 354 OFFCURVE",
"223 358 OFFCURVE",
"209 358 CURVE SMOOTH",
"115 358 OFFCURVE",
"36 258 OFFCURVE",
"-8 193 CURVE SMOOTH",
"-16 182 OFFCURVE",
"1 171 OFFCURVE",
"8 182 CURVE SMOOTH",
"54 249 OFFCURVE",
"127 338 OFFCURVE",
"209 338 CURVE SMOOTH",
"218 338 OFFCURVE",
"226 336 OFFCURVE",
"233 334 CURVE SMOOTH",
"240 333 OFFCURVE",
"244 331 OFFCURVE",
"244 331 CURVE",
"257 327 OFFCURVE",
"264 344 OFFCURVE",
"252 349 CURVE SMOOTH"
);
},
{
closed = 1;
nodes = (
"474 192 OFFCURVE",
"459 205 OFFCURVE",
"451 194 CURVE SMOOTH",
"418 151 OFFCURVE",
"343 80 OFFCURVE",
"294 74 CURVE SMOOTH",
"262 70 OFFCURVE",
"263 100 OFFCURVE",
"283 142 CURVE SMOOTH",
"309 194 OFFCURVE",
"361 273 OFFCURVE",
"378 298 CURVE SMOOTH",
"417 357 OFFCURVE",
"339 412 OFFCURVE",
"275 318 CURVE SMOOTH",
"244 272 OFFCURVE",
"134 74 OFFCURVE",
"76 74 CURVE SMOOTH",
"64 74 OFFCURVE",
"57 87 OFFCURVE",
"57 106 CURVE SMOOTH",
"57 166 OFFCURVE",
"159 293 OFFCURVE",
"218 289 CURVE SMOOTH",
"231 288 OFFCURVE",
"233 308 OFFCURVE",
"219 309 CURVE SMOOTH",
"145 314 OFFCURVE",
"37 173 OFFCURVE",
"37 106 CURVE SMOOTH",
"37 88 OFFCURVE",
"44 54 OFFCURVE",
"76 54 CURVE SMOOTH",
"114 54 OFFCURVE",
"153 99 OFFCURVE",
"189 149 CURVE SMOOTH",
"225 200 OFFCURVE",
"261 262 OFFCURVE",
"291 306 CURVE SMOOTH",
"338 375 OFFCURVE",
"387 348 OFFCURVE",
"362 310 CURVE SMOOTH",
"341 279 OFFCURVE",
"286 197 OFFCURVE",
"261 141 CURVE SMOOTH",
"239 90 OFFCURVE",
"246 46 OFFCURVE",
"297 55 CURVE SMOOTH",
"352 65 OFFCURVE",
"434 136 OFFCURVE",
"467 182 CURVE SMOOTH"
);
}
);
width = 459;
}
);
note = a;
unicode = 0061;
},
{
glyphname = ae;
layers = (
{
hints = (
{
horizontal = 1;
place = "{-9, 20}";
type = Stem;
},
{
horizontal = 1;
place = "{54, 20}";
type = Stem;
},
{
horizontal = 1;
place = "{149, 20}";
type = Stem;
},
{
horizontal = 1;
place = "{309, -20}";
target = down;
type = TopGhost;
},
{
horizontal = 1;
place = "{358, -20}";
target = down;
type = TopGhost;
},
{
place = "{-20, 20}";
type = Stem;
},
{
place = "{36, 20}";
type = Stem;
},
{
place = "{193, 20}";
type = Stem;
},
{
place = "{243, 20}";
type = Stem;
},
{
place = "{369, 20}";
type = Stem;
},
{
place = "{484, 20}";
type = Stem;
}
);
layerId = "6B4F01CB-8044-4D82-912B-2C5A8D883AAC";
paths = (
{
closed = 1;
nodes = (
"159 47 OFFCURVE",
"143 59 OFFCURVE",
"135 48 CURVE SMOOTH",
"97 -6 OFFCURVE",
"-4 -6 OFFCURVE",
"0 80 CURVE SMOOTH",
"1 93 OFFCURVE",
"-19 94 OFFCURVE",
"-20 81 CURVE SMOOTH",
"-25 -27 OFFCURVE",
"102 -33 OFFCURVE",
"151 36 CURVE SMOOTH"
);
},
{
closed = 1;
nodes = (
"470 59 OFFCURVE",
"458 74 OFFCURVE",
"448 66 CURVE SMOOTH",
"408 36 OFFCURVE",
"359 16 OFFCURVE",
"310 16 CURVE SMOOTH",
"292 16 OFFCURVE",
"267 20 OFFCURVE",
"246 30 CURVE SMOOTH",
"222 41 OFFCURVE",
"213 54 OFFCURVE",
"213 80 CURVE SMOOTH",
"213 94 OFFCURVE",
"193 94 OFFCURVE",
"193 81 CURVE SMOOTH",
"192 18 OFFCURVE",
"258 -4 OFFCURVE",
"310 -4 CURVE SMOOTH",
"365 -4 OFFCURVE",
"417 18 OFFCURVE",
"460 50 CURVE"
);
},
{
closed = 1;
nodes = (
"239 354 OFFCURVE",
"223 358 OFFCURVE",
"209 358 CURVE SMOOTH",
"115 358 OFFCURVE",
"36 258 OFFCURVE",
"-8 193 CURVE SMOOTH",
"-16 182 OFFCURVE",
"1 171 OFFCURVE",
"8 182 CURVE SMOOTH",
"54 249 OFFCURVE",
"127 338 OFFCURVE",
"209 338 CURVE SMOOTH",
"218 338 OFFCURVE",
"226 336 OFFCURVE",
"233 334 CURVE SMOOTH",
"240 333 OFFCURVE",
"244 331 OFFCURVE",
"244 331 CURVE",
"257 327 OFFCURVE",
"264 344 OFFCURVE",
"252 349 CURVE SMOOTH"
);
},
{
closed = 1;
nodes = (
"417 357 OFFCURVE",
"339 412 OFFCURVE",
"275 318 CURVE SMOOTH",
"244 272 OFFCURVE",
"134 74 OFFCURVE",
"76 74 CURVE SMOOTH",
"64 74 OFFCURVE",
"57 87 OFFCURVE",
"57 106 CURVE SMOOTH",
"57 166 OFFCURVE",
"159 293 OFFCURVE",
"218 289 CURVE SMOOTH",
"231 288 OFFCURVE",
"233 308 OFFCURVE",
"219 309 CURVE SMOOTH",
"145 314 OFFCURVE",
"37 173 OFFCURVE",
"37 106 CURVE SMOOTH",
"37 88 OFFCURVE",
"44 54 OFFCURVE",
"76 54 CURVE SMOOTH",
"114 54 OFFCURVE",
"153 99 OFFCURVE",
"189 149 CURVE SMOOTH",
"225 200 OFFCURVE",
"261 262 OFFCURVE",
"291 306 CURVE SMOOTH",
"338 375 OFFCURVE",
"387 348 OFFCURVE",
"362 310 CURVE SMOOTH",
"354 298 OFFCURVE",
"371 287 OFFCURVE",
"378 298 CURVE SMOOTH"
);
},
{
closed = 1;
nodes = (
"562 192 OFFCURVE",
"546 204 OFFCURVE",
"538 194 CURVE SMOOTH",
"489 135 OFFCURVE",
"393 76 OFFCURVE",
"315 76 CURVE SMOOTH",
"284 76 OFFCURVE",
"263 89 OFFCURVE",
"263 118 CURVE SMOOTH",
"263 178 OFFCURVE",
"380 282 OFFCURVE",
"438 301 CURVE SMOOTH",
"450 305 OFFCURVE",
"444 324 OFFCURVE",
"431 320 CURVE SMOOTH",
"371 300 OFFCURVE",
"243 192 OFFCURVE",
"243 118 CURVE SMOOTH",
"243 73 OFFCURVE",
"279 56 OFFCURVE",
"315 56 CURVE SMOOTH",
"400 56 OFFCURVE",
"501 119 OFFCURVE",
"553 181 CURVE SMOOTH"
);
},
{
closed = 1;
nodes = (
"504 340 OFFCURVE",
"478 362 OFFCURVE",
"442 362 CURVE SMOOTH",
"428 362 OFFCURVE",
"428 342 OFFCURVE",
"442 342 CURVE SMOOTH",
"468 342 OFFCURVE",
"484 327 OFFCURVE",
"484 301 CURVE SMOOTH",
"484 244 OFFCURVE",
"394 169 OFFCURVE",
"337 169 CURVE SMOOTH",
"330 169 OFFCURVE",
"322 171 OFFCURVE",
"316 174 CURVE SMOOTH",
"304 180 OFFCURVE",
"295 163 OFFCURVE",
"307 157 CURVE SMOOTH",
"317 151 OFFCURVE",
"327 149 OFFCURVE",
"337 149 CURVE SMOOTH",
"402 149 OFFCURVE",
"504 230 OFFCURVE",
"504 301 CURVE SMOOTH"
);
}
);
width = 544;
}
);
note = ae;
unicode = 00E6;
},
{
glyphname = b;
lastChange = "2021-09-30 04:36:09 +0000";
layers = (
{
background = {
paths = (
{
closed = 1;
nodes = (
"555 610 OFFCURVE",
"503 624 OFFCURVE",
"480 624 CURVE SMOOTH",
"321 624 OFFCURVE",
"92 307 OFFCURVE",
"-8 194 CURVE SMOOTH",
"-16 184 OFFCURVE",
"-1 171 OFFCURVE",
"8 181 CURVE SMOOTH",
"101 287 OFFCURVE",
"332 604 OFFCURVE",
"480 604 CURVE SMOOTH",
"504 604 OFFCURVE",
"535 590 OFFCURVE",
"535 571 CURVE SMOOTH",
"535 552 OFFCURVE",
"506 554 OFFCURVE",
"494 554 CURVE SMOOTH",
"402 554 OFFCURVE",
"302 451 OFFCURVE",
"254 388 CURVE SMOOTH",
"246 377 OFFCURVE",
"262 365 OFFCURVE",
"270 376 CURVE SMOOTH",
"319 440 OFFCURVE",
"413 534 OFFCURVE",
"494 534 CURVE SMOOTH",
"519 534 OFFCURVE",
"555 535 OFFCURVE",
"555 571 CURVE SMOOTH"
);
}
);
};
hints = (
{
horizontal = 1;
place = "{-4, 20}";
type = Stem;
},
{
horizontal = 1;
place = "{48, 20}";
type = Stem;
},
{
horizontal = 1;
place = "{287, 20}";
type = Stem;
},
{
horizontal = 1;
place = "{362, -20}";
target = down;
type = TopGhost;
},
{
horizontal = 1;
place = "{554, -20}";
target = down;
type = TopGhost;
},
{
horizontal = 1;
place = "{624, -20}";
target = down;
type = TopGhost;
},
{
place = "{-21, 20}";
type = Stem;
},
{
place = "{18, 20}";
type = Stem;
},
{
place = "{73, 20}";
type = Stem;
},
{
place = "{271, 20}";
type = Stem;
},
{
place = "{342, 20}";
type = Stem;
},
{
place = "{504, 20}";
type = Stem;
}
);
layerId = "6B4F01CB-8044-4D82-912B-2C5A8D883AAC";
paths = (
{
closed = 1;
nodes = (
"291 286 OFFCURVE",
"274 307 OFFCURVE",
"243 307 CURVE SMOOTH",
"169 307 OFFCURVE",
"65 190 OFFCURVE",
"73 116 CURVE SMOOTH",
"74 103 OFFCURVE",
"94 105 OFFCURVE",
"93 118 CURVE SMOOTH",
"86 181 OFFCURVE",
"181 287 OFFCURVE",
"243 287 CURVE SMOOTH",
"261 287 OFFCURVE",
"271 276 OFFCURVE",
"271 257 CURVE SMOOTH",
"271 190 OFFCURVE",
"175 68 OFFCURVE",
"103 68 CURVE SMOOTH",
"53 68 OFFCURVE",
"36 108 OFFCURVE",
"38 151 CURVE SMOOTH",
"39 164 OFFCURVE",
"19 165 OFFCURVE",
"18 152 CURVE SMOOTH",
"15 98 OFFCURVE",
"41 48 OFFCURVE",
"103 48 CURVE SMOOTH",
"190 48 OFFCURVE",
"291 182 OFFCURVE",
"291 257 CURVE SMOOTH"
);
},
{
closed = 1;
nodes = (
"362 314 OFFCURVE",
"328 362 OFFCURVE",
"266 362 CURVE SMOOTH",
"228 362 OFFCURVE",
"192 345 OFFCURVE",
"162 325 CURVE SMOOTH",
"151 318 OFFCURVE",
"162 302 OFFCURVE",
"173 309 CURVE SMOOTH",
"202 328 OFFCURVE",
"234 342 OFFCURVE",
"266 342 CURVE SMOOTH",
"314 342 OFFCURVE",
"342 306 OFFCURVE",
"342 258 CURVE SMOOTH",
"342 130 OFFCURVE",
"211 16 OFFCURVE",
"86 16 CURVE SMOOTH",
"48 16 OFFCURVE",
"-3 32 OFFCURVE",
"-1 80 CURVE SMOOTH",
"-1 93 OFFCURVE",
"-21 94 OFFCURVE",
"-21 81 CURVE SMOOTH",
"-23 19 OFFCURVE",
"37 -4 OFFCURVE",
"86 -4 CURVE SMOOTH",
"221 -4 OFFCURVE",
"362 118 OFFCURVE",
"362 258 CURVE SMOOTH"
);
},
{
closed = 1;
nodes = (
"555 610 OFFCURVE",
"503 624 OFFCURVE",
"480 624 CURVE SMOOTH",
"321 624 OFFCURVE",
"92 307 OFFCURVE",
"-8 194 CURVE SMOOTH",
"-16 184 OFFCURVE",
"-1 171 OFFCURVE",
"8 181 CURVE SMOOTH",
"101 287 OFFCURVE",
"332 604 OFFCURVE",
"480 604 CURVE SMOOTH",
"504 604 OFFCURVE",
"535 590 OFFCURVE",
"535 571 CURVE SMOOTH",
"535 552 OFFCURVE",
"506 554 OFFCURVE",
"494 554 CURVE SMOOTH",
"402 554 OFFCURVE",
"302 451 OFFCURVE",
"254 388 CURVE SMOOTH",
"246 377 OFFCURVE",
"262 365 OFFCURVE",
"270 376 CURVE SMOOTH",
"319 440 OFFCURVE",
"413 534 OFFCURVE",
"494 534 CURVE SMOOTH",
"519 534 OFFCURVE",
"555 535 OFFCURVE",
"555 571 CURVE SMOOTH"
);
}
);
width = 396;
}
);
note = b;
unicode = 0062;
},
{
glyphname = c;
lastChange = "2021-09-30 04:04:15 +0000";
layers = (
{
hints = (
{
horizontal = 1;
place = "{-4, 20}";
type = Stem;
},
{
horizontal = 1;
place = "{55, 20}";
type = Stem;
},
{
horizontal = 1;
place = "{243, -20}";
target = down;
type = TopGhost;
},
{
horizontal = 1;
place = "{308, -20}";
target = down;
type = TopGhost;
},
{
horizontal = 1;
place = "{362, -20}";
target = down;
type = TopGhost;
},
{
place = "{-19, 20}";
type = Stem;
},
{
place = "{30, 20}";
type = Stem;
},
{
place = "{278, 20}";
type = Stem;
}
);
layerId = "6B4F01CB-8044-4D82-912B-2C5A8D883AAC";
paths = (
{
closed = 1;
nodes = (
"258 59 OFFCURVE",
"246 74 OFFCURVE",
"235 66 CURVE SMOOTH",
"195 36 OFFCURVE",
"147 16 OFFCURVE",
"97 16 CURVE SMOOTH",
"80 16 OFFCURVE",
"55 20 OFFCURVE",
"34 30 CURVE SMOOTH",
"10 41 OFFCURVE",
"0 54 OFFCURVE",
"1 80 CURVE SMOOTH",
"1 94 OFFCURVE",
"-19 94 OFFCURVE",
"-19 81 CURVE SMOOTH",
"-20 18 OFFCURVE",
"45 -4 OFFCURVE",
"97 -4 CURVE SMOOTH",
"152 -4 OFFCURVE",
"205 18 OFFCURVE",
"247 50 CURVE SMOOTH"
);
},
{
closed = 1;
nodes = (
"330 191 OFFCURVE",
"315 204 OFFCURVE",
"307 194 CURVE SMOOTH",
"257 125 OFFCURVE",
"178 75 OFFCURVE",
"95 75 CURVE SMOOTH",
"68 75 OFFCURVE",
"49 91 OFFCURVE",
"49 117 CURVE SMOOTH",
"49 169 OFFCURVE",
"159 288 OFFCURVE",
"210 288 CURVE SMOOTH",
"215 288 OFFCURVE",
"220 287 OFFCURVE",
"225 284 CURVE SMOOTH",
"228 282 OFFCURVE",
"250 246 OFFCURVE",
"250 278 CURVE SMOOTH",
"250 299 OFFCURVE",
"228 308 OFFCURVE",
"210 308 CURVE SMOOTH",
"146 308 OFFCURVE",
"29 179 OFFCURVE",
"29 117 CURVE SMOOTH",
"29 77 OFFCURVE",
"60 55 OFFCURVE",
"95 55 CURVE SMOOTH",
"187 55 OFFCURVE",
"271 111 OFFCURVE",
"322 181 CURVE SMOOTH"
);
},
{
closed = 1;
nodes = (
"297 336 OFFCURVE",
"265 362 OFFCURVE",
"227 362 CURVE SMOOTH",
"122 362 OFFCURVE",
"49 268 OFFCURVE",
"-6 196 CURVE SMOOTH",
"-21 175 OFFCURVE",
"-10 159 OFFCURVE",
"8 182 CURVE SMOOTH",
"63 255 OFFCURVE",
"134 342 OFFCURVE",
"227 342 CURVE SMOOTH",
"256 342 OFFCURVE",
"277 323 OFFCURVE",
"277 295 CURVE SMOOTH",
"277 269 OFFCURVE",
"259 243 OFFCURVE",
"235 243 CURVE SMOOTH",
"228 243 OFFCURVE",
"208 248 OFFCURVE",
"210 258 CURVE SMOOTH",
"212 272 OFFCURVE",
"192 275 OFFCURVE",
"190 261 CURVE SMOOTH",
"187 236 OFFCURVE",
"215 223 OFFCURVE",
"235 223 CURVE SMOOTH",
"274 223 OFFCURVE",
"297 263 OFFCURVE",
"297 295 CURVE SMOOTH"
);
}
);
width = 315;
}
);
note = c;
unicode = 0063;
},
{
glyphname = d;
lastChange = "2021-09-30 04:10:33 +0000";
layers = (
{
hints = (
{
horizontal = 1;
place = "{-16, 20}";
type = Stem;
},
{
horizontal = 1;
place = "{55, 20}";
type = Stem;
},
{
horizontal = 1;
place = "{313, -20}";
target = down;
type = TopGhost;
},
{
horizontal = 1;
place = "{362, -20}";
target = down;
type = TopGhost;
},
{
horizontal = 1;
place = "{591, -20}";
target = down;
type = TopGhost;
},
{
place = "{-20, 20}";
type = Stem;
},
{
place = "{36, 20}";
type = Stem;
},
{
place = "{167, 20}";
type = Stem;
},
{
place = "{240, 20}";
type = Stem;
},
{
place = "{560, 21}";
type = Stem;
}
);
layerId = "6B4F01CB-8044-4D82-912B-2C5A8D883AAC";
paths = (
{
closed = 1;
nodes = (
"148 6 OFFCURVE",
"138 24 OFFCURVE",
"126 17 CURVE SMOOTH",
"111 9 OFFCURVE",
"94 4 OFFCURVE",
"76 4 CURVE SMOOTH",
"34 4 OFFCURVE",
"-2 37 OFFCURVE",
"0 80 CURVE SMOOTH",
"1 93 OFFCURVE",
"-19 94 OFFCURVE",
"-20 81 CURVE SMOOTH",
"-22 27 OFFCURVE",
"23 -16 OFFCURVE",
"76 -16 CURVE SMOOTH",
"97 -16 OFFCURVE",
"117 -11 OFFCURVE",
"136 -1 CURVE SMOOTH"
);
},
{
closed = 1;
nodes = (
"414 58 OFFCURVE",
"401 74 OFFCURVE",
"391 66 CURVE SMOOTH",
"349 35 OFFCURVE",
"296 4 OFFCURVE",
"245 4 CURVE SMOOTH",
"206 4 OFFCURVE",
"187 20 OFFCURVE",
"187 59 CURVE SMOOTH",
"187 76 OFFCURVE",
"191 92 OFFCURVE",
"199 106 CURVE SMOOTH",
"205 118 OFFCURVE",
"187 127 OFFCURVE",
"181 116 CURVE SMOOTH",
"171 99 OFFCURVE",
"167 79 OFFCURVE",
"167 59 CURVE SMOOTH",
"167 7 OFFCURVE",
"197 -16 OFFCURVE",
"245 -16 CURVE SMOOTH",
"303 -16 OFFCURVE",
"362 17 OFFCURVE",
"403 50 CURVE SMOOTH"
);
},
{
closed = 1;
nodes = (
"252 358 OFFCURVE",
"229 362 OFFCURVE",
"209 362 CURVE SMOOTH",
"115 362 OFFCURVE",
"42 256 OFFCURVE",
"-10 191 CURVE SMOOTH",
"-18 180 OFFCURVE",
"-1 170 OFFCURVE",
"8 181 CURVE SMOOTH",
"63 248 OFFCURVE",
"127 342 OFFCURVE",
"209 342 CURVE SMOOTH",
"227 342 OFFCURVE",
"245 338 OFFCURVE",
"258 328 CURVE SMOOTH",
"268 320 OFFCURVE",
"281 336 OFFCURVE",
"270 344 CURVE SMOOTH"
);
},
{
closed = 1;
nodes = (
"616 588 OFFCURVE",
"525 614 OFFCURVE",
"485 566 CURVE SMOOTH",
"441 514 OFFCURVE",
"339 378 OFFCURVE",
"299 331 CURVE SMOOTH",
"266 293 OFFCURVE",
"236 249 OFFCURVE",
"204 207 CURVE SMOOTH",
"188 185 OFFCURVE",
"107 74 OFFCURVE",
"76 74 CURVE SMOOTH",
"64 74 OFFCURVE",
"57 87 OFFCURVE",
"57 106 CURVE SMOOTH",
"57 166 OFFCURVE",
"159 296 OFFCURVE",
"218 293 CURVE SMOOTH",
"231 292 OFFCURVE",
"232 312 OFFCURVE",
"219 313 CURVE SMOOTH",
"144 317 OFFCURVE",
"37 173 OFFCURVE",
"37 106 CURVE SMOOTH",
"37 88 OFFCURVE",
"44 54 OFFCURVE",
"76 54 CURVE SMOOTH",
"95 54 OFFCURVE",
"109 67 OFFCURVE",
"119 76 CURVE SMOOTH",
"194 148 OFFCURVE",
"247 239 OFFCURVE",
"315 319 CURVE SMOOTH",
"354 365 OFFCURVE",
"457 502 OFFCURVE",
"501 554 CURVE SMOOTH",
"520 576 OFFCURVE",
"583 582 OFFCURVE",
"551 545 CURVE SMOOTH",
"503 491 OFFCURVE",
"241 178 OFFCURVE",
"241 99 CURVE SMOOTH",
"241 76 OFFCURVE",
"252 55 OFFCURVE",
"280 55 CURVE SMOOTH",
"337 55 OFFCURVE",
"423 122 OFFCURVE",
"467 182 CURVE SMOOTH",
"475 193 OFFCURVE",
"459 204 OFFCURVE",
"451 194 CURVE SMOOTH",
"406 133 OFFCURVE",
"327 75 OFFCURVE",
"280 75 CURVE SMOOTH",
"267 75 OFFCURVE",
"261 83 OFFCURVE",
"261 99 CURVE SMOOTH",
"261 168 OFFCURVE",
"515 472 OFFCURVE",
"567 531 CURVE SMOOTH"
);
}
);
width = 459;
}
);
note = d;
unicode = 0064;
},
{
glyphname = eth;
lastChange = "2021-09-30 19:04:09 +0000";
layers = (
{
hints = (
{
horizontal = 1;
place = "{452.856, 17.321}";
type = Stem;
},
{
horizontal = 1;
place = "{536.86, -20}";
target = down;
type = TopGhost;
},
{
place = "{301.856, 17.321}";
type = Stem;
},
{
place = "{680.31, 17.321}";
type = Stem;
}
);
layerId = "6B4F01CB-8044-4D82-912B-2C5A8D883AAC";
paths = (
{
closed = 1;
nodes = (
"388 686 LINE",
"347 729 OFFCURVE",
"281 753 OFFCURVE",
"201 753 CURVE SMOOTH",
"159 753 OFFCURVE",
"146 733 OFFCURVE",
"146 713 CURVE SMOOTH",
"146 692 OFFCURVE",
"159 672 OFFCURVE",
"200 672 CURVE SMOOTH",
"233 672 OFFCURVE",
"271 661 OFFCURVE",
"297 635 CURVE SMOOTH",
"298 634 LINE",
"266 617 OFFCURVE",
"224 593 OFFCURVE",
"182 569 CURVE SMOOTH",
"155 553 OFFCURVE",
"153 523 OFFCURVE",
"165 503 CURVE SMOOTH",
"177 483 OFFCURVE",
"203 469 OFFCURVE",
"231 485 CURVE SMOOTH",
"248 494 OFFCURVE",
"291 520 OFFCURVE",
"345 552 CURVE",
"360 488 OFFCURVE",
"343 400 OFFCURVE",
"265 288 CURVE SMOOTH",
"204 201 OFFCURVE",
"151 140 OFFCURVE",
"114 105 CURVE SMOOTH",
"100 93 OFFCURVE",
"86 86 OFFCURVE",
"74 86 CURVE SMOOTH",
"53 88 OFFCURVE",
"49 116 OFFCURVE",
"69 153 CURVE SMOOTH",
"79 174 OFFCURVE",
"98 203 OFFCURVE",
"118 228 CURVE SMOOTH",
"149 267 OFFCURVE",
"190 293 OFFCURVE",
"218 293 CURVE SMOOTH",
"232 293 OFFCURVE",
"232 313 OFFCURVE",
"219 313 CURVE SMOOTH",
"185 313 OFFCURVE",
"137 284 OFFCURVE",
"102 240 CURVE SMOOTH",
"82 215 OFFCURVE",
"62 185 OFFCURVE",
"51 163 CURVE SMOOTH",
"25 112 OFFCURVE",
"35 69 OFFCURVE",
"74 66 CURVE SMOOTH",
"91 66 OFFCURVE",
"109 74 OFFCURVE",
"128 91 CURVE SMOOTH",
"165 126 OFFCURVE",
"220 189 OFFCURVE",
"281 276 CURVE SMOOTH",
"368 400 OFFCURVE",
"385 503 OFFCURVE",
"361 564 CURVE SMOOTH",
"359 569 OFFCURVE",
"354 579 OFFCURVE",
"339 571 CURVE",
"286 541 OFFCURVE",
"239 512 OFFCURVE",
"221 502 CURVE SMOOTH",
"204 493 OFFCURVE",
"190 500 OFFCURVE",
"182 513 CURVE SMOOTH",
"175 526 OFFCURVE",
"176 542 OFFCURVE",
"192 552 CURVE SMOOTH",
"238 578 OFFCURVE",
"283 604 OFFCURVE",
"316 622 CURVE SMOOTH",
"321 625 OFFCURVE",
"322 630 OFFCURVE",
"320 635 CURVE SMOOTH",
"318 640 OFFCURVE",
"311 646 OFFCURVE",
"306 650 CURVE SMOOTH",
"288 667 OFFCURVE",
"267 678 OFFCURVE",
"245 685 CURVE SMOOTH",
"219 693 OFFCURVE",
"196 691 OFFCURVE",
"185 694 CURVE SMOOTH",
"172 697 OFFCURVE",
"166 705 OFFCURVE",
"166 713 CURVE SMOOTH",
"167 723 OFFCURVE",
"173 733 OFFCURVE",
"201 733 CURVE SMOOTH",
"276 733 OFFCURVE",
"339 711 OFFCURVE",
"376 669 CURVE SMOOTH",
"381 662 OFFCURVE",
"389 663 OFFCURVE",
"395 667 CURVE SMOOTH",
"430 687 OFFCURVE",
"468 710 OFFCURVE",
"503 731 CURVE SMOOTH",
"547 756 OFFCURVE",
"573 705 OFFCURVE",
"532 682 CURVE SMOOTH",
"521 675 OFFCURVE",
"531 658 OFFCURVE",
"542 664 CURVE SMOOTH",
"609 703 OFFCURVE",
"562 789 OFFCURVE",
"493 748 CURVE SMOOTH"
);
},
{
closed = 1;
nodes = (
"472 647 OFFCURVE",
"439 629 OFFCURVE",
"416 612 CURVE SMOOTH",
"410 609 OFFCURVE",
"408 603 OFFCURVE",
"410 598 CURVE",
"438 513 OFFCURVE",
"416 396 OFFCURVE",
"337 278 CURVE SMOOTH",
"292 210 OFFCURVE",
"244 141 OFFCURVE",
"242 93 CURVE SMOOTH",
"241 70 OFFCURVE",
"256 56 OFFCURVE",
"280 56 CURVE SMOOTH",
"305 56 OFFCURVE",
"337 68 OFFCURVE",
"367 89 CURVE SMOOTH",
"405 112 OFFCURVE",
"446 150 OFFCURVE",
"467 182 CURVE SMOOTH",
"475 193 OFFCURVE",
"459 204 OFFCURVE",
"451 194 CURVE SMOOTH",
"431 164 OFFCURVE",
"393 128 OFFCURVE",
"357 105 CURVE SMOOTH",
"329 86 OFFCURVE",
"301 76 OFFCURVE",
"280 76 CURVE SMOOTH",
"267 76 OFFCURVE",
"261 81 OFFCURVE",
"262 91 CURVE SMOOTH",
"264 135 OFFCURVE",
"308 198 OFFCURVE",
"353 266 CURVE SMOOTH",
"434 387 OFFCURVE",
"457 508 OFFCURVE",
"431 599 CURVE",
"454 614 OFFCURVE",
"483 631 OFFCURVE",
"494 637 CURVE SMOOTH",
"505 643 OFFCURVE",
"495 661 OFFCURVE",
"484 654 CURVE SMOOTH"
);
},
{
closed = 1;
nodes = (
"63 248 OFFCURVE",
"127 342 OFFCURVE",
"209 342 CURVE SMOOTH",
"227 342 OFFCURVE",
"245 338 OFFCURVE",
"258 328 CURVE SMOOTH",
"268 320 OFFCURVE",
"281 336 OFFCURVE",
"270 344 CURVE SMOOTH",
"252 358 OFFCURVE",
"229 362 OFFCURVE",
"209 362 CURVE SMOOTH",
"115 362 OFFCURVE",
"42 256 OFFCURVE",
"-10 191 CURVE SMOOTH",
"-18 180 OFFCURVE",
"-1 170 OFFCURVE",
"8 181 CURVE SMOOTH"
);
},
{
closed = 1;
nodes = (
"349 35 OFFCURVE",
"296 4 OFFCURVE",
"245 4 CURVE SMOOTH",
"206 4 OFFCURVE",
"187 20 OFFCURVE",
"187 59 CURVE SMOOTH",
"187 76 OFFCURVE",
"191 92 OFFCURVE",
"199 106 CURVE SMOOTH",
"205 118 OFFCURVE",
"187 127 OFFCURVE",
"181 116 CURVE SMOOTH",
"171 99 OFFCURVE",
"167 79 OFFCURVE",
"167 59 CURVE SMOOTH",
"167 7 OFFCURVE",
"197 -16 OFFCURVE",
"245 -16 CURVE SMOOTH",
"303 -16 OFFCURVE",
"362 17 OFFCURVE",
"403 50 CURVE SMOOTH",
"414 58 OFFCURVE",
"401 74 OFFCURVE",
"391 66 CURVE SMOOTH"
);
},
{
closed = 1;
nodes = (
"111 9 OFFCURVE",
"94 4 OFFCURVE",
"76 4 CURVE SMOOTH",
"34 4 OFFCURVE",
"-2 37 OFFCURVE",
"0 80 CURVE SMOOTH",
"1 93 OFFCURVE",
"-19 94 OFFCURVE",
"-20 81 CURVE SMOOTH",
"-22 27 OFFCURVE",
"23 -16 OFFCURVE",
"76 -16 CURVE SMOOTH",
"97 -16 OFFCURVE",
"117 -11 OFFCURVE",
"136 -1 CURVE SMOOTH",
"148 6 OFFCURVE",
"138 24 OFFCURVE",
"126 17 CURVE SMOOTH"
);
}
);
width = 459;
}
);
unicode = 00F0;
},
{
glyphname = e;
lastChange = "2021-09-30 04:05:18 +0000";
layers = (
{
hints = (
{
horizontal = 1;
place = "{-4, 20}";
type = Stem;
},
{
horizontal = 1;
place = "{56, 20}";
type = Stem;
},
{
horizontal = 1;
place = "{149, 20}";
type = Stem;
},
{
horizontal = 1;
place = "{362, -20}";
target = down;
type = TopGhost;
},
{
place = "{-20, 20}";
type = Stem;
},
{
place = "{30, 20}";
type = Stem;
},
{
place = "{271, 20}";
type = Stem;
}
);
layerId = "6B4F01CB-8044-4D82-912B-2C5A8D883AAC";
paths = (
{
closed = 1;
nodes = (
"258 59 OFFCURVE",
"245 74 OFFCURVE",
"235 66 CURVE SMOOTH",
"195 36 OFFCURVE",
"146 16 OFFCURVE",
"97 16 CURVE SMOOTH",
"80 16 OFFCURVE",
"54 21 OFFCURVE",
"34 30 CURVE SMOOTH",
"9 42 OFFCURVE",
"0 54 OFFCURVE",
"0 80 CURVE SMOOTH",
"0 94 OFFCURVE",
"-20 94 OFFCURVE",
"-20 81 CURVE SMOOTH",
"-21 18 OFFCURVE",
"45 -4 OFFCURVE",
"97 -4 CURVE SMOOTH",
"152 -4 OFFCURVE",
"204 18 OFFCURVE",
"247 50 CURVE SMOOTH"
);
},
{
closed = 1;
nodes = (
"349 193 OFFCURVE",
"333 205 OFFCURVE",
"325 195 CURVE SMOOTH",
"267 120 OFFCURVE",
"180 76 OFFCURVE",
"102 76 CURVE SMOOTH",
"71 76 OFFCURVE",
"50 89 OFFCURVE",
"50 118 CURVE SMOOTH",
"50 178 OFFCURVE",
"167 282 OFFCURVE",
"225 301 CURVE SMOOTH",
"237 305 OFFCURVE",
"231 324 OFFCURVE",
"219 320 CURVE SMOOTH",
"158 300 OFFCURVE",
"30 192 OFFCURVE",
"30 118 CURVE SMOOTH",
"30 73 OFFCURVE",
"66 56 OFFCURVE",
"102 56 CURVE SMOOTH",
"187 56 OFFCURVE",
"280 104 OFFCURVE",
"340 182 CURVE SMOOTH"
);
},
{
closed = 1;
nodes = (
"291 340 OFFCURVE",
"265 362 OFFCURVE",
"229 362 CURVE SMOOTH",
"124 362 OFFCURVE",
"43 268 OFFCURVE",
"-8 193 CURVE SMOOTH",
"-16 182 OFFCURVE",
"1 171 OFFCURVE",
"8 182 CURVE SMOOTH",
"60 257 OFFCURVE",
"135 342 OFFCURVE",
"229 342 CURVE SMOOTH",
"255 342 OFFCURVE",
"271 327 OFFCURVE",
"271 301 CURVE SMOOTH",
"271 244 OFFCURVE",
"181 169 OFFCURVE",
"125 169 CURVE SMOOTH",
"117 169 OFFCURVE",
"110 171 OFFCURVE",
"103 174 CURVE SMOOTH",
"91 180 OFFCURVE",
"82 163 OFFCURVE",
"94 157 CURVE SMOOTH",
"104 151 OFFCURVE",
"114 149 OFFCURVE",
"125 149 CURVE SMOOTH",
"190 149 OFFCURVE",
"291 230 OFFCURVE",
"291 301 CURVE SMOOTH"
);
}
);
width = 332;
}
);
note = e;
unicode = 0065;
},
{
glyphname = schwa;
lastChange = "2021-09-30 07:00:59 +0000";
layers = (
{
hints = (
{
horizontal = 1;
place = "{354, -20}";
type = Stem;
},
{
horizontal = 1;
place = "{294, -20}";
type = Stem;
},
{
horizontal = 1;
place = "{201, -20}";
type = Stem;
},
{
horizontal = 1;
place = "{-12, 21}";
target = up;
type = BottomGhost;
},
{
place = "{352, -20}";
type = Stem;
},
{
place = "{302, -20}";
type = Stem;
},
{
place = "{61, -20}";
type = Stem;
}
);
layerId = "6B4F01CB-8044-4D82-912B-2C5A8D883AAC";
paths = (
{
closed = 1;
nodes = (
"73 315 OFFCURVE",
"86 300 OFFCURVE",
"96 308 CURVE SMOOTH",
"136 338 OFFCURVE",
"185 358 OFFCURVE",
"234 358 CURVE SMOOTH",
"251 358 OFFCURVE",
"277 353 OFFCURVE",
"297 344 CURVE SMOOTH",
"322 332 OFFCURVE",
"331 314 OFFCURVE",
"331 294 CURVE SMOOTH",
"331 280 OFFCURVE",
"351 280 OFFCURVE",
"351 293 CURVE SMOOTH",
"352 356 OFFCURVE",
"286 378 OFFCURVE",
"234 378 CURVE SMOOTH",
"179 378 OFFCURVE",
"127 356 OFFCURVE",
"84 324 CURVE SMOOTH"
);
},
{
closed = 1;
nodes = (
"-18 181 OFFCURVE",
"-2 169 OFFCURVE",
"6 179 CURVE SMOOTH",
"64 254 OFFCURVE",
"151 298 OFFCURVE",
"219 298 CURVE SMOOTH",
"260 298 OFFCURVE",
"274 275 OFFCURVE",
"274 255 CURVE SMOOTH",
"274 176 OFFCURVE",
"157 72 OFFCURVE",
"99 53 CURVE SMOOTH",
"87 49 OFFCURVE",
"93 30 OFFCURVE",
"105 34 CURVE SMOOTH",
"166 54 OFFCURVE",
"294 162 OFFCURVE",
"294 255 CURVE SMOOTH",
"294 297 OFFCURVE",
"265 318 OFFCURVE",
"218 318 CURVE SMOOTH",
"144 318 OFFCURVE",
"51 270 OFFCURVE",
"-9 192 CURVE SMOOTH"
);
},
{
closed = 1;
nodes = (
"33 14 OFFCURVE",
"59 -8 OFFCURVE",
"95 -8 CURVE SMOOTH",
"200 -8 OFFCURVE",
"281 86 OFFCURVE",
"332 161 CURVE SMOOTH",
"340 172 OFFCURVE",
"323 183 OFFCURVE",
"316 172 CURVE SMOOTH",
"264 97 OFFCURVE",
"189 12 OFFCURVE",
"95 12 CURVE SMOOTH",
"69 12 OFFCURVE",
"53 27 OFFCURVE",
"53 53 CURVE SMOOTH",
"53 110 OFFCURVE",
"143 185 OFFCURVE",
"199 185 CURVE SMOOTH",
"207 185 OFFCURVE",
"214 183 OFFCURVE",
"221 180 CURVE SMOOTH",
"233 174 OFFCURVE",
"242 191 OFFCURVE",
"230 197 CURVE SMOOTH",
"220 203 OFFCURVE",
"210 205 OFFCURVE",
"199 205 CURVE SMOOTH",
"134 205 OFFCURVE",
"33 124 OFFCURVE",
"33 53 CURVE SMOOTH"
);
}
);
width = 381;
}
);
unicode = 0259;
},
{
glyphname = f;
lastChange = "2021-09-30 04:05:42 +0000";
layers = (
{
hints = (
{
horizontal = 1;
place = "{-319, 20}";
type = Stem;
},
{
horizontal = 1;
place = "{-219, 20}";
type = Stem;
},
{
horizontal = 1;
place = "{75, 20}";
type = Stem;
},
{
horizontal = 1;
place = "{171, -20}";
target = down;
type = TopGhost;
},
{
horizontal = 1;
place = "{554, -20}";
target = down;
type = TopGhost;
},
{
horizontal = 1;
place = "{624, -20}";
target = down;
type = TopGhost;
},
{
place = "{-194, 19}";
type = Stem;
},
{
place = "{-115, 20}";
type = Stem;
},
{
place = "{148, 20}";
type = Stem;
},
{
place = "{535, 20}";
type = Stem;
}
);
layerId = "6B4F01CB-8044-4D82-912B-2C5A8D883AAC";
paths = (
{
closed = 1;
nodes = (
"131 -62 OFFCURVE",
"19 -199 OFFCURVE",
"-57 -199 CURVE SMOOTH",
"-70 -199 OFFCURVE",
"-70 -219 OFFCURVE",
"-57 -219 CURVE SMOOTH",
"79 -219 OFFCURVE",
"246 95 OFFCURVE",
"125 95 CURVE SMOOTH",
"46 95 OFFCURVE",
"-105 -64 OFFCURVE",
"-115 -258 CURVE SMOOTH",
"-116 -272 OFFCURVE",
"-96 -273 OFFCURVE",
"-95 -260 CURVE SMOOTH",
"-85 -70 OFFCURVE",
"62 75 OFFCURVE",
"125 75 CURVE SMOOTH",
"141 75 OFFCURVE",
"151 63 OFFCURVE",
"146 33 CURVE SMOOTH"
);
},
{
closed = 1;
nodes = (
"369 48 OFFCURVE",
"357 64 OFFCURVE",
"347 56 CURVE SMOOTH",
"313 30 OFFCURVE",
"251 11 OFFCURVE",
"208 11 CURVE SMOOTH",
"202 11 OFFCURVE",
"198 6 OFFCURVE",
"198 1 CURVE SMOOTH",
"198 -131 OFFCURVE",
"29 -299 OFFCURVE",
"-102 -299 CURVE SMOOTH",
"-268 -299 OFFCURVE",
"-104 -11 OFFCURVE",
"-49 57 CURVE SMOOTH",
"-40 67 OFFCURVE",
"-54 81 OFFCURVE",
"-63 71 CURVE SMOOTH",
"-129 -8 OFFCURVE",
"-298 -319 OFFCURVE",
"-102 -319 CURVE SMOOTH",
"37 -319 OFFCURVE",
"210 -150 OFFCURVE",
"217 -9 CURVE",
"264 -6 OFFCURVE",
"323 13 OFFCURVE",
"359 40 CURVE SMOOTH"
);
},
{
closed = 1;
nodes = (
"431 193 OFFCURVE",
"414 204 OFFCURVE",
"407 194 CURVE SMOOTH",
"382 159 OFFCURVE",
"324 84 OFFCURVE",
"278 84 CURVE SMOOTH",
"222 84 OFFCURVE",
"237 171 OFFCURVE",
"165 171 CURVE SMOOTH",
"152 171 OFFCURVE",
"152 151 OFFCURVE",
"165 151 CURVE SMOOTH",
"222 151 OFFCURVE",
"207 64 OFFCURVE",
"278 64 CURVE SMOOTH",
"334 64 OFFCURVE",
"394 141 OFFCURVE",
"423 182 CURVE SMOOTH"
);
},
{
closed = 1;
nodes = (
"555 610 OFFCURVE",
"503 624 OFFCURVE",
"480 624 CURVE SMOOTH",
"321 624 OFFCURVE",
"92 307 OFFCURVE",
"-8 194 CURVE SMOOTH",
"-16 184 OFFCURVE",
"-1 171 OFFCURVE",
"8 181 CURVE SMOOTH",
"101 287 OFFCURVE",
"332 604 OFFCURVE",
"480 604 CURVE SMOOTH",
"504 604 OFFCURVE",
"535 590 OFFCURVE",
"535 571 CURVE SMOOTH",
"535 552 OFFCURVE",
"506 554 OFFCURVE",
"494 554 CURVE SMOOTH",
"362 554 OFFCURVE",
"123 248 OFFCURVE",
"74 149 CURVE SMOOTH",
"68 138 OFFCURVE",
"86 129 OFFCURVE",
"92 141 CURVE SMOOTH",
"142 241 OFFCURVE",
"376 534 OFFCURVE",
"494 534 CURVE SMOOTH",
"519 534 OFFCURVE",
"555 535 OFFCURVE",
"555 571 CURVE SMOOTH"
);
}
);
width = 415;
}
);
note = f;
unicode = 0066;
},
{
glyphname = g;
lastChange = "2021-09-30 04:07:36 +0000";
layers = (
{
hints = (
{
horizontal = 1;
place = "{-306, 20}";
type = Stem;
},
{
horizontal = 1;
place = "{-236, 20}";
type = Stem;
},
{
horizontal = 1;
place = "{-11, 20}";
type = Stem;
},
{
horizontal = 1;
place = "{74, -20}";
target = down;
type = TopGhost;
},
{
horizontal = 1;
place = "{314, -20}";
target = down;
type = TopGhost;
},
{
horizontal = 1;
place = "{363, -20}";
target = down;
type = TopGhost;
},
{
place = "{-18, 20}";
type = Stem;
},
{
place = "{57, 20}";
type = Stem;
}
);
layerId = "6B4F01CB-8044-4D82-912B-2C5A8D883AAC";
paths = (
{
closed = 1;
nodes = (
"308 233 OFFCURVE",
"288 236 OFFCURVE",
"286 223 CURVE SMOOTH",
"259 59 OFFCURVE",
"77 -210 OFFCURVE",
"-41 -216 CURVE SMOOTH",
"-58 -217 OFFCURVE",
"-65 -209 OFFCURVE",
"-62 -197 CURVE SMOOTH",
"-50 -149 OFFCURVE",
"71 -80 OFFCURVE",
"120 -48 CURVE SMOOTH",
"131 -41 OFFCURVE",
"120 -24 OFFCURVE",
"109 -31 CURVE SMOOTH",
"54 -66 OFFCURVE",
"-66 -135 OFFCURVE",
"-81 -192 CURVE SMOOTH",
"-89 -225 OFFCURVE",
"-61 -237 OFFCURVE",
"-40 -236 CURVE SMOOTH",
"93 -229 OFFCURVE",
"279 55 OFFCURVE",
"306 219 CURVE SMOOTH"
);
},
{
closed = 1;
nodes = (
"470 195 OFFCURVE",
"456 208 OFFCURVE",
"447 197 CURVE SMOOTH",
"400 137 OFFCURVE",
"353 115 OFFCURVE",
"324 102 CURVE SMOOTH",
"309 95 OFFCURVE",
"311 93 OFFCURVE",
"306 79 CURVE SMOOTH",
"251 -67 OFFCURVE",
"111 -286 OFFCURVE",
"-48 -286 CURVE SMOOTH",
"-76 -286 OFFCURVE",
"-95 -274 OFFCURVE",
"-92 -249 CURVE SMOOTH",
"-91 -236 OFFCURVE",
"-110 -234 OFFCURVE",
"-111 -247 CURVE SMOOTH",
"-116 -290 OFFCURVE",
"-80 -306 OFFCURVE",
"-48 -306 CURVE SMOOTH",
"129 -306 OFFCURVE",
"275 -64 OFFCURVE",
"327 80 CURVE",
"378 107 OFFCURVE",
"423 131 OFFCURVE",
"463 185 CURVE SMOOTH"
);
},
{
closed = 1;
nodes = (
"228 105 OFFCURVE",
"212 116 OFFCURVE",
"205 104 CURVE SMOOTH",
"160 32 OFFCURVE",
"103 6 OFFCURVE",
"62 9 CURVE SMOOTH",
"23 12 OFFCURVE",
"-5 43 OFFCURVE",
"4 94 CURVE SMOOTH",
"6 107 OFFCURVE",
"-14 111 OFFCURVE",
"-16 98 CURVE SMOOTH",
"-28 35 OFFCURVE",
"9 -7 OFFCURVE",
"61 -11 CURVE SMOOTH",
"111 -15 OFFCURVE",
"173 18 OFFCURVE",
"221 94 CURVE SMOOTH"
);
},
{
closed = 1;
nodes = (
"267 361 OFFCURVE",
"252 363 OFFCURVE",
"233 363 CURVE SMOOTH",
"139 363 OFFCURVE",
"63 278 OFFCURVE",
"-10 191 CURVE SMOOTH",
"-19 180 OFFCURVE",
"-3 169 OFFCURVE",
"7 181 CURVE SMOOTH",
"80 267 OFFCURVE",
"150 343 OFFCURVE",
"233 343 CURVE SMOOTH",
"252 343 OFFCURVE",
"261 341 OFFCURVE",
"266 337 CURVE SMOOTH",
"277 329 OFFCURVE",
"289 345 OFFCURVE",
"278 353 CURVE SMOOTH"
);
},
{
closed = 1;
nodes = (
"408 363 OFFCURVE",
"390 374 OFFCURVE",
"373 374 CURVE SMOOTH",
"327 374 OFFCURVE",
"271 296 OFFCURVE",
"220 219 CURVE SMOOTH",
"170 146 OFFCURVE",
"125 74 OFFCURVE",
"96 74 CURVE SMOOTH",
"84 74 OFFCURVE",
"77 87 OFFCURVE",
"77 106 CURVE SMOOTH",
"77 166 OFFCURVE",
"182 297 OFFCURVE",
"241 294 CURVE SMOOTH",
"255 293 OFFCURVE",
"256 313 OFFCURVE",
"243 314 CURVE SMOOTH",
"167 318 OFFCURVE",
"57 173 OFFCURVE",
"57 106 CURVE SMOOTH",
"57 88 OFFCURVE",
"64 54 OFFCURVE",
"96 54 CURVE SMOOTH",
"134 54 OFFCURVE",
"185 130 OFFCURVE",
"235 205 CURVE SMOOTH",
"274 264 OFFCURVE",
"314 322 OFFCURVE",
"347 344 CURVE SMOOTH",
"356 351 OFFCURVE",
"365 354 OFFCURVE",
"373 354 CURVE SMOOTH",
"383 354 OFFCURVE",
"388 348 OFFCURVE",
"388 341 CURVE SMOOTH",
"388 338 OFFCURVE",
"333 165 OFFCURVE",
"328 152 CURVE SMOOTH",
"323 140 OFFCURVE",
"341 132 OFFCURVE",
"346 144 CURVE SMOOTH",
"351 157 OFFCURVE",
"408 333 OFFCURVE",
"408 341 CURVE SMOOTH"
);
}
);
width = 453;
}
);
note = g;
unicode = 0067;
},
{
glyphname = h;
layers = (
{
hints = (
{
horizontal = 1;
place = "{-9, 20}";
type = Stem;
},
{
horizontal = 1;
place = "{64, 20}";
type = Stem;
},
{
horizontal = 1;
place = "{368, -20}";
target = down;
type = TopGhost;
},
{
horizontal = 1;
place = "{554, -20}";
target = down;
type = TopGhost;
},
{
horizontal = 1;
place = "{624, -20}";
target = down;
type = TopGhost;
},
{
place = "{-7, 20}";
type = Stem;
},
{
place = "{207, 20}";
type = Stem;
},
{
place = "{307, 20}";
type = Stem;
},
{
place = "{403, 20}";
type = Stem;
},
{
place = "{535, 20}";
type = Stem;
}
);
layerId = "6B4F01CB-8044-4D82-912B-2C5A8D883AAC";
paths = (
{
closed = 1;
nodes = (
"358 300 OFFCURVE",
"353 319 OFFCURVE",
"340 316 CURVE SMOOTH",
"134 264 OFFCURVE",
"98 12 OFFCURVE",
"33 12 CURVE SMOOTH",
"20 12 OFFCURVE",
"13 21 OFFCURVE",
"13 36 CURVE SMOOTH",
"13 62 OFFCURVE",
"47 120 OFFCURVE",
"59 145 CURVE SMOOTH",
"65 157 OFFCURVE",
"47 166 OFFCURVE",
"41 154 CURVE SMOOTH",
"26 124 OFFCURVE",
"-7 68 OFFCURVE",
"-7 36 CURVE SMOOTH",
"-7 15 OFFCURVE",
"5 -8 OFFCURVE",
"33 -8 CURVE SMOOTH",
"63 -8 OFFCURVE",
"83 18 OFFCURVE",
"93 37 CURVE SMOOTH",
"152 148 OFFCURVE",
"220 265 OFFCURVE",
"345 297 CURVE SMOOTH"
);
},
{
closed = 1;
nodes = (
"440 48 OFFCURVE",
"428 64 OFFCURVE",
"417 56 CURVE SMOOTH",
"383 30 OFFCURVE",
"341 11 OFFCURVE",
"298 11 CURVE SMOOTH",
"257 11 OFFCURVE",
"226 23 OFFCURVE",
"226 62 CURVE SMOOTH",
"226 116 OFFCURVE",
"282 200 OFFCURVE",
"320 245 CURVE SMOOTH",
"328 255 OFFCURVE",
"313 268 OFFCURVE",
"304 258 CURVE SMOOTH",
"267 213 OFFCURVE",
"206 125 OFFCURVE",
"206 62 CURVE SMOOTH",
"206 4 OFFCURVE",
"257 -9 OFFCURVE",
"298 -9 CURVE SMOOTH",
"347 -9 OFFCURVE",
"392 12 OFFCURVE",
"429 40 CURVE SMOOTH"
);
},
{
closed = 1;
nodes = (
"502 193 OFFCURVE",
"485 204 OFFCURVE",
"478 194 CURVE SMOOTH",
"453 159 OFFCURVE",
"395 84 OFFCURVE",
"349 84 CURVE SMOOTH",
"336 84 OFFCURVE",
"327 93 OFFCURVE",
"327 105 CURVE SMOOTH",
"327 134 OFFCURVE",
"422 260 OFFCURVE",
"422 301 CURVE SMOOTH",
"422 349 OFFCURVE",
"373 368 OFFCURVE",
"338 368 CURVE SMOOTH",
"251 368 OFFCURVE",
"168 287 OFFCURVE",
"120 229 CURVE SMOOTH",
"111 219 OFFCURVE",
"126 207 OFFCURVE",
"135 217 CURVE SMOOTH",
"183 276 OFFCURVE",
"261 348 OFFCURVE",
"338 348 CURVE SMOOTH",
"371 348 OFFCURVE",
"402 331 OFFCURVE",
"402 301 CURVE SMOOTH",
"402 268 OFFCURVE",
"307 142 OFFCURVE",
"307 105 CURVE SMOOTH",
"307 80 OFFCURVE",
"326 64 OFFCURVE",
"349 64 CURVE SMOOTH",
"405 64 OFFCURVE",
"465 141 OFFCURVE",
"494 182 CURVE SMOOTH"
);
},
{
closed = 1;
nodes = (
"555 610 OFFCURVE",
"503 624 OFFCURVE",
"480 624 CURVE SMOOTH",
"321 624 OFFCURVE",
"92 307 OFFCURVE",
"-8 194 CURVE SMOOTH",
"-16 184 OFFCURVE",
"-1 171 OFFCURVE",
"8 181 CURVE SMOOTH",
"101 287 OFFCURVE",
"332 604 OFFCURVE",
"480 604 CURVE SMOOTH",
"504 604 OFFCURVE",
"535 590 OFFCURVE",
"535 571 CURVE SMOOTH",
"535 552 OFFCURVE",
"506 554 OFFCURVE",
"494 554 CURVE SMOOTH",
"402 554 OFFCURVE",
"302 451 OFFCURVE",
"254 388 CURVE SMOOTH",
"246 377 OFFCURVE",
"262 365 OFFCURVE",
"270 376 CURVE SMOOTH",
"319 440 OFFCURVE",
"413 534 OFFCURVE",
"494 534 CURVE SMOOTH",
"519 534 OFFCURVE",
"555 535 OFFCURVE",
"555 571 CURVE SMOOTH"
);
}
);
width = 486;
}
);
note = h;
unicode = 0068;
},
{
glyphname = i;
lastChange = "2021-09-30 04:08:48 +0000";
layers = (
{
hints = (
{
horizontal = 1;
place = "{-10, 19}";
type = Stem;
},
{
horizontal = 1;
place = "{49, 22}";
type = Stem;
},
{
horizontal = 1;
place = "{366, 21}";
target = up;
type = BottomGhost;
},
{
horizontal = 1;
place = "{417, -20}";
target = down;
type = TopGhost;
},
{
horizontal = 1;
place = "{514, -20}";
target = down;
type = TopGhost;
},
{
place = "{35, 20}";
type = Stem;
},
{
place = "{106, 19}";
type = Stem;
},
{
place = "{223, 22}";
type = Stem;
},
{
place = "{314, 20}";
type = Stem;
}
);
layerId = "6B4F01CB-8044-4D82-912B-2C5A8D883AAC";
paths = (
{
closed = 1;
nodes = (
"314 434 OFFCURVE",
"297 417 OFFCURVE",
"275 417 CURVE SMOOTH",
"254 417 OFFCURVE",
"237 434 OFFCURVE",
"237 455 CURVE SMOOTH",
"237 477 OFFCURVE",
"254 494 OFFCURVE",
"275 494 CURVE SMOOTH",
"297 494 OFFCURVE",
"314 477 OFFCURVE",
"314 455 CURVE SMOOTH"
);
},
{
closed = 1;
nodes = (
"297 70 OFFCURVE",
"283 85 OFFCURVE",
"273 77 CURVE SMOOTH",
"130 -49 OFFCURVE",
"48 25 OFFCURVE",
"55 106 CURVE SMOOTH",
"57 132 OFFCURVE",
"82 209 OFFCURVE",
"106 241 CURVE SMOOTH",
"114 252 OFFCURVE",
"98 264 OFFCURVE",
"90 253 CURVE SMOOTH",
"64 217 OFFCURVE",
"37 137 OFFCURVE",
"35 108 CURVE SMOOTH",
"26 -2 OFFCURVE",
"138 -69 OFFCURVE",
"287 61 CURVE SMOOTH"
);
},
{
closed = 1;
nodes = (
"325 192 OFFCURVE",
"309 204 OFFCURVE",
"301 194 CURVE SMOOTH",
"250 129 OFFCURVE",
"207 93 OFFCURVE",
"166 76 CURVE SMOOTH",
"139 65 OFFCURVE",
"118 68 OFFCURVE",
"128 114 CURVE SMOOTH",
"136 155 OFFCURVE",
"162 208 OFFCURVE",
"182 247 CURVE SMOOTH",
"191 263 OFFCURVE",
"206 276 OFFCURVE",
"220 288 CURVE SMOOTH",
"225 292 LINE SMOOTH",
"287 342 OFFCURVE",
"193 418 OFFCURVE",
"141 373 CURVE SMOOTH",
"120 354 OFFCURVE",
"100 329 OFFCURVE",
"76 299 CURVE SMOOTH",
"53 269 OFFCURVE",
"26 233 OFFCURVE",
"-8 194 CURVE SMOOTH",
"-16 184 OFFCURVE",
"-1 171 OFFCURVE",
"8 181 CURVE SMOOTH",
"42 221 OFFCURVE",
"68 256 OFFCURVE",
"92 287 CURVE SMOOTH",
"115 317 OFFCURVE",
"135 341 OFFCURVE",
"154 358 CURVE SMOOTH",
"180 380 OFFCURVE",
"249 356 OFFCURVE",
"213 308 CURVE",
"206 303 OFFCURVE",
"200 298 OFFCURVE",
"194 292 CURVE SMOOTH",
"155 256 OFFCURVE",
"118 167 OFFCURVE",
"108 118 CURVE SMOOTH",
"100 77 OFFCURVE",
"110 20 OFFCURVE",
"198 72 CURVE SMOOTH",
"244 99 OFFCURVE",
"275 129 OFFCURVE",
"317 182 CURVE SMOOTH"
);
},
{
closed = 1;
nodes = (
"334 488 OFFCURVE",
"308 514 OFFCURVE",
"275 514 CURVE SMOOTH",
"243 514 OFFCURVE",
"217 488 OFFCURVE",
"217 455 CURVE SMOOTH",
"217 423 OFFCURVE",
"243 397 OFFCURVE",
"275 397 CURVE SMOOTH",
"308 397 OFFCURVE",
"334 423 OFFCURVE",
"334 455 CURVE SMOOTH"
);
}
);
width = 309;
}
);
note = i;
unicode = 0069;
},
{
glyphname = idotless;
lastChange = "2021-09-30 19:14:59 +0000";
layers = (
{
hints = (
{
horizontal = 1;
place = "{-10, 19}";
type = Stem;
},
{
horizontal = 1;
place = "{49, 22}";
type = Stem;
},
{
horizontal = 1;
place = "{366, 21}";
target = up;
type = BottomGhost;
},
{
place = "{35, 20}";
type = Stem;
},
{
place = "{106, 19}";
type = Stem;
},
{
place = "{223, 22}";
type = Stem;
}
);
layerId = "6B4F01CB-8044-4D82-912B-2C5A8D883AAC";
paths = (
{
closed = 1;
nodes = (
"297 70 OFFCURVE",
"283 85 OFFCURVE",
"273 77 CURVE SMOOTH",
"130 -49 OFFCURVE",
"48 25 OFFCURVE",
"55 106 CURVE SMOOTH",
"57 132 OFFCURVE",
"82 209 OFFCURVE",
"106 241 CURVE SMOOTH",
"114 252 OFFCURVE",
"98 264 OFFCURVE",
"90 253 CURVE SMOOTH",
"64 217 OFFCURVE",
"37 137 OFFCURVE",
"35 108 CURVE SMOOTH",
"26 -2 OFFCURVE",
"138 -69 OFFCURVE",
"287 61 CURVE SMOOTH"
);
},
{
closed = 1;
nodes = (
"325 189 OFFCURVE",
"310 203 OFFCURVE",
"302 193 CURVE SMOOTH",
"268 155 OFFCURVE",
"248 134 OFFCURVE",
"232 120 CURVE SMOOTH",
"207 98 OFFCURVE",
"109 25 OFFCURVE",
"128 114 CURVE SMOOTH",
"136 155 OFFCURVE",
"162 208 OFFCURVE",
"182 247 CURVE SMOOTH",
"191 263 OFFCURVE",
"206 276 OFFCURVE",
"220 288 CURVE SMOOTH",
"225 292 LINE SMOOTH",
"287 342 OFFCURVE",
"193 418 OFFCURVE",
"141 373 CURVE SMOOTH",
"120 354 OFFCURVE",
"100 329 OFFCURVE",
"76 299 CURVE SMOOTH",
"53 269 OFFCURVE",
"26 233 OFFCURVE",
"-8 194 CURVE SMOOTH",
"-16 184 OFFCURVE",
"-1 171 OFFCURVE",
"8 181 CURVE SMOOTH",
"42 221 OFFCURVE",
"68 256 OFFCURVE",
"92 287 CURVE SMOOTH",
"115 317 OFFCURVE",
"135 341 OFFCURVE",
"154 358 CURVE SMOOTH",
"180 380 OFFCURVE",
"249 356 OFFCURVE",
"213 308 CURVE",
"206 303 OFFCURVE",
"200 298 OFFCURVE",
"194 292 CURVE SMOOTH",
"155 256 OFFCURVE",
"118 167 OFFCURVE",
"108 118 CURVE SMOOTH",
"100 77 OFFCURVE",
"118 20 OFFCURVE",
"192 68 CURVE SMOOTH",
"244 102 OFFCURVE",
"274 132 OFFCURVE",
"316 179 CURVE SMOOTH"
);
}
);
width = 309;
}
);
note = dotlessi;
unicode = 0131;
},
{
glyphname = j;
lastChange = "2021-09-30 04:09:47 +0000";
layers = (
{
hints = (
{
horizontal = 1;
place = "{-306, 20}";
type = Stem;
},
{
horizontal = 1;
place = "{-236, 20}";
type = Stem;
},
{
horizontal = 1;
place = "{337, -20}";
target = down;
type = TopGhost;
},
{
horizontal = 1;
place = "{416, -20}";
target = down;
type = TopGhost;
},
{
horizontal = 1;
place = "{514, -20}";
target = down;
type = TopGhost;
},
{
place = "{-285, 20}";
type = Stem;
},
{
place = "{124, 20}";
type = Stem;
},
{
place = "{222, 20}";
type = Stem;
}
);
layerId = "6B4F01CB-8044-4D82-912B-2C5A8D883AAC";
paths = (
{
closed = 1;
nodes = (
"222 434 OFFCURVE",
"205 416 OFFCURVE",
"183 416 CURVE SMOOTH",
"162 416 OFFCURVE",
"144 434 OFFCURVE",
"144 455 CURVE SMOOTH",
"144 476 OFFCURVE",
"162 494 OFFCURVE",
"183 494 CURVE SMOOTH",
"205 494 OFFCURVE",
"222 476 OFFCURVE",
"222 455 CURVE SMOOTH"
);
},
{
closed = 1;
nodes = (
"196 77 OFFCURVE",
"181 90 OFFCURVE",
"171 80 CURVE SMOOTH",
"138 44 OFFCURVE",
"97 10 OFFCURVE",
"59 10 CURVE SMOOTH",
"56 10 OFFCURVE",
"51 6 OFFCURVE",
"50 4 CURVE SMOOTH",
"25 -58 OFFCURVE",
"-10 -126 OFFCURVE",
"-57 -182 CURVE SMOOTH",
"-92 -223 OFFCURVE",
"-164 -286 OFFCURVE",
"-217 -286 CURVE SMOOTH",
"-245 -286 OFFCURVE",
"-265 -273 OFFCURVE",
"-265 -248 CURVE SMOOTH",
"-265 -235 OFFCURVE",
"-285 -235 OFFCURVE",
"-285 -248 CURVE SMOOTH",
"-285 -290 OFFCURVE",
"-249 -306 OFFCURVE",
"-217 -306 CURVE SMOOTH",
"-154 -306 OFFCURVE",
"-76 -235 OFFCURVE",
"-42 -194 CURVE SMOOTH",
"5 -139 OFFCURVE",
"41 -71 OFFCURVE",
"66 -10 CURVE",
"112 -6 OFFCURVE",
"156 35 OFFCURVE",
"187 68 CURVE SMOOTH"
);
},
{
closed = 1;
nodes = (
"73 208 OFFCURVE",
"53 214 OFFCURVE",
"49 201 CURVE SMOOTH",
"20 107 OFFCURVE",
"-101 -210 OFFCURVE",
"-216 -216 CURVE SMOOTH",
"-233 -217 OFFCURVE",
"-243 -209 OFFCURVE",
"-241 -196 CURVE SMOOTH",
"-233 -149 OFFCURVE",
"-120 -79 OFFCURVE",
"-74 -48 CURVE SMOOTH",
"-63 -40 OFFCURVE",
"-75 -24 OFFCURVE",
"-86 -31 CURVE SMOOTH",
"-137 -67 OFFCURVE",
"-252 -136 OFFCURVE",
"-261 -192 CURVE SMOOTH",
"-266 -225 OFFCURVE",
"-237 -237 OFFCURVE",
"-216 -236 CURVE SMOOTH",
"-82 -229 OFFCURVE",
"42 109 OFFCURVE",
"69 195 CURVE SMOOTH"
);
},
{
closed = 1;
nodes = (
"228 192 OFFCURVE",
"213 205 OFFCURVE",
"204 194 CURVE SMOOTH",
"174 156 OFFCURVE",
"128 112 OFFCURVE",
"80 77 CURVE SMOOTH",
"69 69 OFFCURVE",
"82 54 OFFCURVE",
"92 62 CURVE SMOOTH",
"140 97 OFFCURVE",
"188 141 OFFCURVE",
"220 182 CURVE SMOOTH"
);
},
{
closed = 1;
nodes = (
"175 326 OFFCURVE",
"157 337 OFFCURVE",
"140 337 CURVE SMOOTH",
"84 337 OFFCURVE",
"19 232 OFFCURVE",
"-9 193 CURVE SMOOTH",
"-16 182 OFFCURVE",
"0 170 OFFCURVE",
"8 181 CURVE SMOOTH",
"29 212 OFFCURVE",
"96 317 OFFCURVE",
"140 317 CURVE SMOOTH",
"150 317 OFFCURVE",
"155 311 OFFCURVE",
"155 304 CURVE SMOOTH",
"155 301 OFFCURVE",
"100 149 OFFCURVE",
"93 133 CURVE SMOOTH",
"88 121 OFFCURVE",
"106 113 OFFCURVE",
"111 125 CURVE SMOOTH",
"119 144 OFFCURVE",
"175 296 OFFCURVE",
"175 304 CURVE SMOOTH"
);
},
{
closed = 1;
nodes = (
"242 487 OFFCURVE",
"216 514 OFFCURVE",
"183 514 CURVE SMOOTH",
"151 514 OFFCURVE",
"124 487 OFFCURVE",
"124 455 CURVE SMOOTH",
"124 423 OFFCURVE",
"151 396 OFFCURVE",
"183 396 CURVE SMOOTH",
"216 396 OFFCURVE",
"242 423 OFFCURVE",
"242 455 CURVE SMOOTH"
);
}
);
width = 212;
}
);
note = j;
unicode = 006A;
},
{
glyphname = jdotless;
lastChange = "2021-09-30 19:14:59 +0000";
layers = (
{
hints = (
{
horizontal = 1;
place = "{-306, 20}";
type = Stem;
},
{
horizontal = 1;
place = "{-236, 20}";
type = Stem;
},
{
horizontal = 1;
place = "{337, -20}";
target = down;
type = TopGhost;
},
{
horizontal = 1;
place = "{416, -20}";
target = down;
type = TopGhost;
},
{
horizontal = 1;
place = "{514, -20}";
target = down;
type = TopGhost;
},
{
place = "{-285, 20}";
type = Stem;
},
{
place = "{124, 20}";
type = Stem;
},
{
place = "{222, 20}";
type = Stem;
}
);
layerId = "6B4F01CB-8044-4D82-912B-2C5A8D883AAC";
paths = (
{
closed = 1;
nodes = (
"196 77 OFFCURVE",
"181 90 OFFCURVE",
"171 80 CURVE SMOOTH",
"138 44 OFFCURVE",
"97 10 OFFCURVE",
"59 10 CURVE SMOOTH",
"56 10 OFFCURVE",
"51 6 OFFCURVE",
"50 4 CURVE SMOOTH",
"25 -58 OFFCURVE",
"-10 -126 OFFCURVE",
"-57 -182 CURVE SMOOTH",
"-92 -223 OFFCURVE",
"-164 -286 OFFCURVE",
"-217 -286 CURVE SMOOTH",
"-245 -286 OFFCURVE",
"-265 -273 OFFCURVE",
"-265 -248 CURVE SMOOTH",
"-265 -235 OFFCURVE",
"-285 -235 OFFCURVE",
"-285 -248 CURVE SMOOTH",
"-285 -290 OFFCURVE",
"-249 -306 OFFCURVE",
"-217 -306 CURVE SMOOTH",
"-154 -306 OFFCURVE",
"-76 -235 OFFCURVE",
"-42 -194 CURVE SMOOTH",
"5 -139 OFFCURVE",
"41 -71 OFFCURVE",
"66 -10 CURVE",
"112 -6 OFFCURVE",
"156 35 OFFCURVE",
"187 68 CURVE SMOOTH"
);
},
{
closed = 1;
nodes = (
"73 208 OFFCURVE",
"53 214 OFFCURVE",
"49 201 CURVE SMOOTH",
"20 107 OFFCURVE",
"-101 -210 OFFCURVE",
"-216 -216 CURVE SMOOTH",
"-233 -217 OFFCURVE",
"-243 -209 OFFCURVE",
"-241 -196 CURVE SMOOTH",
"-233 -149 OFFCURVE",
"-120 -79 OFFCURVE",
"-74 -48 CURVE SMOOTH",
"-63 -40 OFFCURVE",
"-75 -24 OFFCURVE",
"-86 -31 CURVE SMOOTH",
"-137 -67 OFFCURVE",
"-252 -136 OFFCURVE",
"-261 -192 CURVE SMOOTH",
"-266 -225 OFFCURVE",
"-237 -237 OFFCURVE",
"-216 -236 CURVE SMOOTH",
"-82 -229 OFFCURVE",
"42 109 OFFCURVE",
"69 195 CURVE SMOOTH"
);
},
{
closed = 1;
nodes = (
"228 192 OFFCURVE",
"213 205 OFFCURVE",
"204 194 CURVE SMOOTH",
"174 156 OFFCURVE",
"128 112 OFFCURVE",
"80 77 CURVE SMOOTH",
"69 69 OFFCURVE",
"82 54 OFFCURVE",
"92 62 CURVE SMOOTH",
"140 97 OFFCURVE",
"188 141 OFFCURVE",
"220 182 CURVE SMOOTH"
);
},
{
closed = 1;
nodes = (
"175 326 OFFCURVE",
"157 337 OFFCURVE",
"140 337 CURVE SMOOTH",
"84 337 OFFCURVE",
"19 232 OFFCURVE",
"-9 193 CURVE SMOOTH",
"-16 182 OFFCURVE",
"0 170 OFFCURVE",
"8 181 CURVE SMOOTH",
"29 212 OFFCURVE",
"96 317 OFFCURVE",
"140 317 CURVE SMOOTH",
"150 317 OFFCURVE",
"155 311 OFFCURVE",
"155 304 CURVE SMOOTH",
"155 301 OFFCURVE",
"100 149 OFFCURVE",
"93 133 CURVE SMOOTH",
"88 121 OFFCURVE",
"106 113 OFFCURVE",
"111 125 CURVE SMOOTH",
"119 144 OFFCURVE",
"175 296 OFFCURVE",
"175 304 CURVE SMOOTH"
);
}
);
width = 212;
}
);
unicode = 0237;
},
{
glyphname = k;
lastChange = "2021-09-30 04:11:27 +0000";
layers = (
{
hints = (
{
horizontal = 1;
place = "{-9, 20}";
type = Stem;
},
{
horizontal = 1;
place = "{60, 20}";
type = Stem;
},
{
horizontal = 1;
place = "{368, -20}";
target = down;
type = TopGhost;
},
{
horizontal = 1;
place = "{554, -20}";
target = down;
type = TopGhost;
},
{
horizontal = 1;
place = "{624, -20}";
target = down;
type = TopGhost;
},
{
place = "{-7, 20}";
type = Stem;
},
{
place = "{207, 20}";
type = Stem;
},
{
place = "{291, 20}";
type = Stem;
},
{
place = "{412, 20}";
type = Stem;
},
{
place = "{535, 20}";
type = Stem;
}
);
layerId = "6B4F01CB-8044-4D82-912B-2C5A8D883AAC";
paths = (
{
closed = 1;
nodes = (
"358 300 OFFCURVE",
"353 319 OFFCURVE",
"340 316 CURVE SMOOTH",
"134 264 OFFCURVE",
"98 12 OFFCURVE",
"33 12 CURVE SMOOTH",
"20 12 OFFCURVE",
"13 21 OFFCURVE",
"13 36 CURVE SMOOTH",
"13 62 OFFCURVE",
"47 120 OFFCURVE",
"59 145 CURVE SMOOTH",
"65 157 OFFCURVE",
"47 166 OFFCURVE",
"41 154 CURVE SMOOTH",
"26 124 OFFCURVE",
"-7 68 OFFCURVE",
"-7 36 CURVE SMOOTH",
"-7 15 OFFCURVE",
"5 -8 OFFCURVE",
"33 -8 CURVE SMOOTH",
"63 -8 OFFCURVE",
"83 18 OFFCURVE",
"93 37 CURVE SMOOTH",
"152 148 OFFCURVE",
"220 265 OFFCURVE",
"345 297 CURVE SMOOTH"
);
},
{
closed = 1;
nodes = (
"440 48 OFFCURVE",
"428 64 OFFCURVE",
"417 56 CURVE SMOOTH",
"383 30 OFFCURVE",
"341 11 OFFCURVE",
"298 11 CURVE SMOOTH",
"257 11 OFFCURVE",
"226 23 OFFCURVE",
"226 62 CURVE SMOOTH",
"226 75 OFFCURVE",
"234 149 OFFCURVE",
"236 177 CURVE",
"249 179 OFFCURVE",
"287 187 OFFCURVE",
"308 194 CURVE SMOOTH",
"374 216 OFFCURVE",
"413 249 OFFCURVE",
"426 281 CURVE SMOOTH",
"446 330 OFFCURVE",
"406 368 OFFCURVE",
"338 368 CURVE SMOOTH",
"251 368 OFFCURVE",
"168 287 OFFCURVE",
"120 229 CURVE SMOOTH",
"111 219 OFFCURVE",
"126 207 OFFCURVE",
"135 217 CURVE SMOOTH",
"183 276 OFFCURVE",
"261 348 OFFCURVE",
"338 348 CURVE SMOOTH",
"402 348 OFFCURVE",
"419 317 OFFCURVE",
"408 289 CURVE SMOOTH",
"386 235 OFFCURVE",
"313 214 OFFCURVE",
"283 205 CURVE SMOOTH",
"237 191 OFFCURVE",
"217 196 OFFCURVE",
"216 180 CURVE SMOOTH",
"216 168 OFFCURVE",
"206 76 OFFCURVE",
"206 62 CURVE SMOOTH",
"206 4 OFFCURVE",
"257 -9 OFFCURVE",
"298 -9 CURVE SMOOTH",
"347 -9 OFFCURVE",
"392 12 OFFCURVE",
"429 40 CURVE SMOOTH"
);
},
{
closed = 1;
nodes = (
"502 193 OFFCURVE",
"485 204 OFFCURVE",
"478 194 CURVE SMOOTH",
"451 156 OFFCURVE",
"378 80 OFFCURVE",
"333 80 CURVE SMOOTH",
"307 80 OFFCURVE",
"310 105 OFFCURVE",
"312 153 CURVE SMOOTH",
"312 167 OFFCURVE",
"292 167 OFFCURVE",
"292 154 CURVE SMOOTH",
"290 104 OFFCURVE",
"286 60 OFFCURVE",
"333 60 CURVE SMOOTH",
"390 60 OFFCURVE",
"469 147 OFFCURVE",
"494 182 CURVE SMOOTH"
);
},
{
closed = 1;
nodes = (
"555 610 OFFCURVE",
"503 624 OFFCURVE",
"480 624 CURVE SMOOTH",
"321 624 OFFCURVE",
"92 307 OFFCURVE",
"-8 194 CURVE SMOOTH",
"-16 184 OFFCURVE",
"-1 171 OFFCURVE",
"8 181 CURVE SMOOTH",
"101 287 OFFCURVE",
"332 604 OFFCURVE",
"480 604 CURVE SMOOTH",
"504 604 OFFCURVE",
"535 590 OFFCURVE",
"535 571 CURVE SMOOTH",
"535 552 OFFCURVE",
"506 554 OFFCURVE",
"494 554 CURVE SMOOTH",
"402 554 OFFCURVE",
"302 451 OFFCURVE",
"254 388 CURVE SMOOTH",
"246 377 OFFCURVE",
"262 365 OFFCURVE",
"270 376 CURVE SMOOTH",
"319 440 OFFCURVE",
"413 534 OFFCURVE",
"494 534 CURVE SMOOTH",
"519 534 OFFCURVE",
"555 535 OFFCURVE",
"555 571 CURVE SMOOTH"
);
}
);
width = 486;
}
);
note = k;
unicode = 006B;
},
{
glyphname = kgreenlandic;
lastChange = "2021-09-30 06:14:58 +0000";
layers = (
{
hints = (
{
horizontal = 1;
place = "{-9, 20}";
type = Stem;
},
{
horizontal = 1;
place = "{60, 20}";
type = Stem;
},
{
horizontal = 1;
place = "{368, -20}";
target = down;
type = TopGhost;
},
{
horizontal = 1;
place = "{554, -20}";
target = down;
type = TopGhost;
},
{
horizontal = 1;
place = "{624, -20}";
target = down;
type = TopGhost;
},
{
place = "{-7, 20}";
type = Stem;
},
{
place = "{207, 20}";
type = Stem;
},
{
place = "{291, 20}";
type = Stem;
},
{
place = "{412, 20}";
type = Stem;
},
{
place = "{535, 20}";
type = Stem;
}
);
layerId = "6B4F01CB-8044-4D82-912B-2C5A8D883AAC";
paths = (
{
closed = 1;
nodes = (
"502 193 OFFCURVE",
"485 204 OFFCURVE",
"478 194 CURVE SMOOTH",
"451 156 OFFCURVE",
"378 80 OFFCURVE",
"333 80 CURVE SMOOTH",
"307 80 OFFCURVE",
"310 105 OFFCURVE",
"312 153 CURVE SMOOTH",
"312 167 OFFCURVE",
"292 167 OFFCURVE",
"292 154 CURVE SMOOTH",
"290 104 OFFCURVE",
"286 60 OFFCURVE",
"333 60 CURVE SMOOTH",
"390 60 OFFCURVE",
"469 147 OFFCURVE",
"494 182 CURVE SMOOTH"
);
},
{
closed = 1;
nodes = (
"463 527 OFFCURVE",
"411 541 OFFCURVE",
"388 541 CURVE SMOOTH",
"229 541 OFFCURVE",
"92 307 OFFCURVE",
"-8 194 CURVE SMOOTH",
"-16 184 OFFCURVE",
"-6 166 OFFCURVE",
"3 176 CURVE SMOOTH",
"96 282 OFFCURVE",
"240 521 OFFCURVE",
"388 521 CURVE SMOOTH",
"412 521 OFFCURVE",
"443 507 OFFCURVE",
"443 488 CURVE SMOOTH",
"443 469 OFFCURVE",
"414 471 OFFCURVE",
"402 471 CURVE SMOOTH",
"310 471 OFFCURVE",
"255 417 OFFCURVE",
"207 354 CURVE SMOOTH",
"199 343 OFFCURVE",
"215 331 OFFCURVE",
"223 342 CURVE SMOOTH",
"272 406 OFFCURVE",
"321 451 OFFCURVE",
"402 451 CURVE SMOOTH",
"427 451 OFFCURVE",
"463 452 OFFCURVE",
"463 488 CURVE SMOOTH"
);
},
{
closed = 1;
nodes = (
"130 182 OFFCURVE",
"79 12 OFFCURVE",
"33 12 CURVE SMOOTH",
"20 12 OFFCURVE",
"13 21 OFFCURVE",
"13 36 CURVE SMOOTH",
"13 62 OFFCURVE",
"47 120 OFFCURVE",
"59 145 CURVE SMOOTH",
"65 157 OFFCURVE",
"47 166 OFFCURVE",
"41 154 CURVE SMOOTH",
"26 124 OFFCURVE",
"-7 68 OFFCURVE",
"-7 36 CURVE SMOOTH",
"-7 15 OFFCURVE",
"5 -8 OFFCURVE",
"33 -8 CURVE SMOOTH",
"63 -8 OFFCURVE",
"83 18 OFFCURVE",
"93 37 CURVE SMOOTH",
"126 100 OFFCURVE",
"153 176 OFFCURVE",
"178 232 CURVE SMOOTH",
"183 245 OFFCURVE",
"169 258 OFFCURVE",
"163 245 CURVE SMOOTH"
);
},
{
closed = 1;
nodes = (
"383 30 OFFCURVE",
"341 11 OFFCURVE",
"298 11 CURVE SMOOTH",
"257 11 OFFCURVE",
"226 23 OFFCURVE",
"226 62 CURVE SMOOTH",
"226 75 OFFCURVE",
"235 160 OFFCURVE",
"239 199 CURVE SMOOTH",
"242 215 OFFCURVE",
"340 301 OFFCURVE",
"384 324 CURVE SMOOTH",
"420 344 OFFCURVE",
"439 310 OFFCURVE",
"403 282 CURVE SMOOTH",
"391 273 OFFCURVE",
"401 257 OFFCURVE",
"415 268 CURVE SMOOTH",
"470 306 OFFCURVE",
"433 373 OFFCURVE",
"374 342 CURVE SMOOTH",
"323 315 OFFCURVE",
"216 217 OFFCURVE",
"219 203 CURVE",
"215 165 OFFCURVE",
"206 76 OFFCURVE",
"206 62 CURVE SMOOTH",
"206 4 OFFCURVE",
"257 -9 OFFCURVE",
"298 -9 CURVE SMOOTH",
"347 -9 OFFCURVE",
"392 12 OFFCURVE",
"429 40 CURVE SMOOTH",
"440 48 OFFCURVE",
"428 64 OFFCURVE",
"417 56 CURVE SMOOTH"
);
}
);
width = 486;
}
);
unicode = 0138;
},
{
glyphname = l;
lastChange = "2021-09-30 04:11:45 +0000";
layers = (
{
hints = (
{
horizontal = 1;
place = "{-4, 20}";
type = Stem;
},
{
horizontal = 1;
place = "{57, 20}";
type = Stem;
},
{
horizontal = 1;
place = "{631, -20}";
target = down;
type = TopGhost;
},
{
place = "{-25, 20}";
type = Stem;
},
{
place = "{47, 19}";
type = Stem;
},
{
place = "{445, 19}";
type = Stem;
}
);
layerId = "6B4F01CB-8044-4D82-912B-2C5A8D883AAC";
paths = (
{
closed = 1;
nodes = (
"296 77 OFFCURVE",
"283 92 OFFCURVE",
"273 84 CURVE SMOOTH",
"145 -24 OFFCURVE",
"-5 11 OFFCURVE",
"-5 80 CURVE SMOOTH",
"-5 94 OFFCURVE",
"-25 94 OFFCURVE",
"-25 80 CURVE SMOOTH",
"-25 -27 OFFCURVE",
"165 -34 OFFCURVE",
"285 68 CURVE SMOOTH"
);
},
{
closed = 1;
nodes = (
"371 500 OFFCURVE",
"359 516 OFFCURVE",
"348 508 CURVE SMOOTH",
"284 462 OFFCURVE",
"125 273 OFFCURVE",
"76 186 CURVE SMOOTH",
"51 142 OFFCURVE",
"15 57 OFFCURVE",
"103 57 CURVE SMOOTH",
"164 57 OFFCURVE",
"257 99 OFFCURVE",
"321 182 CURVE SMOOTH",
"330 193 OFFCURVE",
"314 205 OFFCURVE",
"306 195 CURVE SMOOTH",
"244 116 OFFCURVE",
"156 77 OFFCURVE",
"103 77 CURVE SMOOTH",
"37 77 OFFCURVE",
"76 146 OFFCURVE",
"93 176 CURVE SMOOTH",
"141 261 OFFCURVE",
"298 448 OFFCURVE",
"360 492 CURVE SMOOTH"
);
},
{
closed = 1;
nodes = (
"486 599 OFFCURVE",
"445 665 OFFCURVE",
"350 612 CURVE SMOOTH",
"241 551 OFFCURVE",
"133 399 OFFCURVE",
"62 292 CURVE SMOOTH",
"40 259 OFFCURVE",
"18 225 OFFCURVE",
"-8 194 CURVE SMOOTH",
"-16 184 OFFCURVE",
"-1 171 OFFCURVE",
"8 181 CURVE SMOOTH",
"34 212 OFFCURVE",
"56 248 OFFCURVE",
"79 281 CURVE SMOOTH",
"148 384 OFFCURVE",
"255 536 OFFCURVE",
"360 594 CURVE SMOOTH",
"433 635 OFFCURVE",
"463 595 OFFCURVE",
"435 529 CURVE SMOOTH",
"425 507 OFFCURVE",
"190 248 OFFCURVE",
"166 229 CURVE SMOOTH",
"156 220 OFFCURVE",
"169 204 OFFCURVE",
"179 213 CURVE SMOOTH",
"203 232 OFFCURVE",
"441 494 OFFCURVE",
"453 521 CURVE SMOOTH"
);
}
);
width = 313;
}
);
note = l;
unicode = 006C;
},
{
glyphname = m;
layers = (
{
hints = (
{
horizontal = 1;
place = "{-9, 20}";
type = Stem;
},
{
horizontal = 1;
place = "{64, 20}";
type = Stem;
},
{
horizontal = 1;
place = "{368, -20}";
target = down;
type = TopGhost;
},
{
place = "{-7, 20}";
type = Stem;
},
{
place = "{195, 20}";
type = Stem;
},
{
place = "{408, 20}";
type = Stem;
},
{
place = "{508, 20}";
type = Stem;
},
{
place = "{604, 20}";
type = Stem;
}
);
layerId = "6B4F01CB-8044-4D82-912B-2C5A8D883AAC";
paths = (
{
closed = 1;
nodes = (
"358 300 OFFCURVE",
"353 319 OFFCURVE",
"340 316 CURVE SMOOTH",
"134 264 OFFCURVE",
"98 12 OFFCURVE",
"33 12 CURVE SMOOTH",
"20 12 OFFCURVE",
"13 21 OFFCURVE",
"13 36 CURVE SMOOTH",
"13 62 OFFCURVE",
"47 120 OFFCURVE",
"59 145 CURVE SMOOTH",
"65 157 OFFCURVE",
"47 166 OFFCURVE",
"41 154 CURVE SMOOTH",
"26 124 OFFCURVE",
"-7 68 OFFCURVE",
"-7 36 CURVE SMOOTH",
"-7 15 OFFCURVE",
"5 -8 OFFCURVE",
"33 -8 CURVE SMOOTH",
"63 -8 OFFCURVE",
"83 18 OFFCURVE",
"93 37 CURVE SMOOTH",
"152 148 OFFCURVE",
"220 265 OFFCURVE",
"345 297 CURVE SMOOTH"
);
},
{
closed = 1;
nodes = (
"303 413 OFFCURVE",
"226 461 OFFCURVE",
"175 407 CURVE SMOOTH",
"110 339 OFFCURVE",
"54 264 OFFCURVE",
"-8 194 CURVE SMOOTH",
"-16 184 OFFCURVE",
"-1 171 OFFCURVE",
"8 181 CURVE SMOOTH",
"69 251 OFFCURVE",
"125 326 OFFCURVE",
"189 393 CURVE SMOOTH",
"208 412 OFFCURVE",
"229 414 OFFCURVE",
"244 409 CURVE SMOOTH",
"261 403 OFFCURVE",
"259 394 OFFCURVE",
"256 392 CURVE",
"247 382 OFFCURVE",
"262 368 OFFCURVE",
"271 378 CURVE SMOOTH"
);
},
{
closed = 1;
nodes = (
"559 300 OFFCURVE",
"554 319 OFFCURVE",
"541 316 CURVE SMOOTH",
"335 264 OFFCURVE",
"299 12 OFFCURVE",
"234 12 CURVE SMOOTH",
"222 12 OFFCURVE",
"214 21 OFFCURVE",
"214 36 CURVE SMOOTH",
"214 62 OFFCURVE",
"248 120 OFFCURVE",
"260 145 CURVE SMOOTH",
"266 157 OFFCURVE",
"248 166 OFFCURVE",
"242 154 CURVE SMOOTH",
"228 124 OFFCURVE",
"194 68 OFFCURVE",
"194 36 CURVE SMOOTH",
"194 15 OFFCURVE",
"207 -8 OFFCURVE",
"234 -8 CURVE SMOOTH",
"264 -8 OFFCURVE",
"284 18 OFFCURVE",
"294 37 CURVE SMOOTH",
"353 148 OFFCURVE",
"421 265 OFFCURVE",
"546 297 CURVE SMOOTH"
);
},
{
closed = 1;
nodes = (
"377 363 OFFCURVE",
"356 368 OFFCURVE",
"338 368 CURVE SMOOTH",
"251 368 OFFCURVE",
"168 287 OFFCURVE",
"120 229 CURVE SMOOTH",
"111 219 OFFCURVE",
"126 207 OFFCURVE",
"135 217 CURVE SMOOTH",
"183 276 OFFCURVE",
"261 348 OFFCURVE",
"338 348 CURVE SMOOTH",
"353 348 OFFCURVE",
"370 344 OFFCURVE",
"382 336 CURVE SMOOTH",
"394 328 OFFCURVE",
"405 345 OFFCURVE",
"394 352 CURVE SMOOTH"
);
},
{
closed = 1;
nodes = (
"642 48 OFFCURVE",
"630 64 OFFCURVE",
"619 56 CURVE SMOOTH",
"584 30 OFFCURVE",
"543 11 OFFCURVE",
"500 11 CURVE SMOOTH",
"459 11 OFFCURVE",
"428 23 OFFCURVE",
"428 62 CURVE SMOOTH",
"428 116 OFFCURVE",
"484 200 OFFCURVE",
"521 245 CURVE SMOOTH",
"530 255 OFFCURVE",
"514 268 OFFCURVE",
"506 258 CURVE SMOOTH",
"469 213 OFFCURVE",
"408 125 OFFCURVE",
"408 62 CURVE SMOOTH",
"408 4 OFFCURVE",
"458 -9 OFFCURVE",
"500 -9 CURVE SMOOTH",
"548 -9 OFFCURVE",
"594 12 OFFCURVE",
"631 40 CURVE SMOOTH"
);
},
{
closed = 1;
nodes = (
"703 193 OFFCURVE",
"686 204 OFFCURVE",
"679 194 CURVE SMOOTH",
"654 159 OFFCURVE",
"597 84 OFFCURVE",
"551 84 CURVE SMOOTH",
"537 84 OFFCURVE",
"528 93 OFFCURVE",
"528 105 CURVE SMOOTH",
"528 134 OFFCURVE",
"624 260 OFFCURVE",
"624 301 CURVE SMOOTH",
"624 349 OFFCURVE",
"575 368 OFFCURVE",
"539 368 CURVE SMOOTH",
"452 368 OFFCURVE",
"369 287 OFFCURVE",
"321 229 CURVE SMOOTH",
"313 219 OFFCURVE",
"328 206 OFFCURVE",
"337 217 CURVE SMOOTH",
"385 275 OFFCURVE",
"463 348 OFFCURVE",
"539 348 CURVE SMOOTH",
"572 348 OFFCURVE",
"604 331 OFFCURVE",
"604 301 CURVE SMOOTH",
"604 268 OFFCURVE",
"508 142 OFFCURVE",
"508 105 CURVE SMOOTH",
"508 80 OFFCURVE",
"528 64 OFFCURVE",
"551 64 CURVE SMOOTH",
"606 64 OFFCURVE",
"666 141 OFFCURVE",
"695 182 CURVE SMOOTH"
);
}
);
width = 687;
}
);
note = m;
unicode = 006D;
},
{
glyphname = n;
layers = (
{
hints = (
{
horizontal = 1;
place = "{-9, 20}";
type = Stem;
},
{
horizontal = 1;
place = "{64, 20}";
type = Stem;
},
{
horizontal = 1;
place = "{368, -20}";
target = down;
type = TopGhost;
},
{
horizontal = 1;
place = "{402, -20}";
target = down;
type = TopGhost;
},
{
place = "{-7, 20}";
type = Stem;
},
{
place = "{306, 20}";
type = Stem;
},
{
place = "{403, 20}";
type = Stem;
}
);
layerId = "6B4F01CB-8044-4D82-912B-2C5A8D883AAC";
paths = (
{
closed = 1;
nodes = (
"358 300 OFFCURVE",
"353 319 OFFCURVE",
"340 316 CURVE SMOOTH",
"129 263 OFFCURVE",
"112 12 OFFCURVE",
"33 12 CURVE SMOOTH",
"20 12 OFFCURVE",
"13 21 OFFCURVE",
"13 36 CURVE SMOOTH",
"13 62 OFFCURVE",
"84 167 OFFCURVE",
"99 199 CURVE SMOOTH",
"105 211 OFFCURVE",
"87 219 OFFCURVE",
"81 207 CURVE SMOOTH",
"63 170 OFFCURVE",
"-7 71 OFFCURVE",
"-7 36 CURVE SMOOTH",
"-7 15 OFFCURVE",
"5 -8 OFFCURVE",
"33 -8 CURVE SMOOTH",
"134 -8 OFFCURVE",
"139 245 OFFCURVE",
"345 297 CURVE SMOOTH"
);
},
{
closed = 1;
nodes = (
"263 382 OFFCURVE",
"177 435 OFFCURVE",
"133 374 CURVE SMOOTH",
"84 305 OFFCURVE",
"54 264 OFFCURVE",
"-8 194 CURVE SMOOTH",
"-16 184 OFFCURVE",
"-1 171 OFFCURVE",
"8 181 CURVE SMOOTH",
"69 251 OFFCURVE",
"100 293 OFFCURVE",
"149 362 CURVE SMOOTH",
"164 383 OFFCURVE",
"185 385 OFFCURVE",
"200 379 CURVE SMOOTH",
"220 372 OFFCURVE",
"218 362 OFFCURVE",
"216 360 CURVE SMOOTH",
"207 350 OFFCURVE",
"221 336 OFFCURVE",
"230 346 CURVE SMOOTH"
);
},
{
closed = 1;
nodes = (
"440 48 OFFCURVE",
"428 64 OFFCURVE",
"417 56 CURVE SMOOTH",
"383 30 OFFCURVE",
"341 11 OFFCURVE",
"298 11 CURVE SMOOTH",
"262 11 OFFCURVE",
"235 34 OFFCURVE",
"241 78 CURVE SMOOTH",
"245 105 OFFCURVE",
"262 141 OFFCURVE",
"279 172 CURVE SMOOTH",
"295 202 OFFCURVE",
"311 224 OFFCURVE",
"311 224 CURVE",
"318 236 OFFCURVE",
"302 247 OFFCURVE",
"295 236 CURVE SMOOTH",
"268 197 OFFCURVE",
"227 126 OFFCURVE",
"221 80 CURVE SMOOTH",
"213 22 OFFCURVE",
"252 -9 OFFCURVE",
"298 -9 CURVE SMOOTH",
"347 -9 OFFCURVE",
"392 12 OFFCURVE",
"429 40 CURVE SMOOTH"
);
},
{
closed = 1;
nodes = (
"502 193 OFFCURVE",
"485 204 OFFCURVE",
"478 194 CURVE SMOOTH",
"453 159 OFFCURVE",
"395 84 OFFCURVE",
"349 84 CURVE SMOOTH",
"336 84 OFFCURVE",
"320 87 OFFCURVE",
"329 103 CURVE SMOOTH",
"350 143 OFFCURVE",
"422 262 OFFCURVE",
"422 301 CURVE SMOOTH",
"422 349 OFFCURVE",
"373 368 OFFCURVE",
"338 368 CURVE SMOOTH",
"251 368 OFFCURVE",
"187 290 OFFCURVE",
"136 229 CURVE SMOOTH",
"128 219 OFFCURVE",
"143 206 OFFCURVE",
"152 217 CURVE SMOOTH",
"197 272 OFFCURVE",
"260 348 OFFCURVE",
"338 348 CURVE SMOOTH",
"371 348 OFFCURVE",
"402 331 OFFCURVE",
"402 301 CURVE SMOOTH",
"402 270 OFFCURVE",
"330 148 OFFCURVE",
"311 113 CURVE SMOOTH",
"294 81 OFFCURVE",
"321 64 OFFCURVE",
"349 64 CURVE SMOOTH",
"405 64 OFFCURVE",
"465 141 OFFCURVE",
"494 182 CURVE SMOOTH"
);
}
);
width = 486;
}
);
note = n;
unicode = 006E;
},
{
glyphname = eng;
lastChange = "2021-09-30 06:34:51 +0000";
layers = (
{
hints = (
{
horizontal = 1;
place = "{-9, 20}";
type = Stem;
},
{
horizontal = 1;
place = "{64, 20}";
type = Stem;
},
{
horizontal = 1;
place = "{368, -20}";
target = down;
type = TopGhost;
},
{
horizontal = 1;
place = "{402, -20}";
target = down;
type = TopGhost;
},
{
place = "{-7, 20}";
type = Stem;
},
{
place = "{306, 20}";
type = Stem;
},
{
place = "{403, 20}";
type = Stem;
}
);
layerId = "6B4F01CB-8044-4D82-912B-2C5A8D883AAC";
paths = (
{
closed = 1;
nodes = (
"358 300 OFFCURVE",
"353 319 OFFCURVE",
"340 316 CURVE SMOOTH",
"129 263 OFFCURVE",
"112 12 OFFCURVE",
"33 12 CURVE SMOOTH",
"20 12 OFFCURVE",
"13 21 OFFCURVE",
"13 36 CURVE SMOOTH",
"13 62 OFFCURVE",
"84 167 OFFCURVE",
"99 199 CURVE SMOOTH",
"105 211 OFFCURVE",
"87 219 OFFCURVE",
"81 207 CURVE SMOOTH",
"63 170 OFFCURVE",
"-7 71 OFFCURVE",
"-7 36 CURVE SMOOTH",
"-7 15 OFFCURVE",
"5 -8 OFFCURVE",
"33 -8 CURVE SMOOTH",
"134 -8 OFFCURVE",
"139 245 OFFCURVE",
"345 297 CURVE SMOOTH"
);
},
{
closed = 1;
nodes = (
"263 382 OFFCURVE",
"177 435 OFFCURVE",
"133 374 CURVE SMOOTH",
"84 305 OFFCURVE",
"54 264 OFFCURVE",
"-8 194 CURVE SMOOTH",
"-16 184 OFFCURVE",
"-1 171 OFFCURVE",
"8 181 CURVE SMOOTH",
"69 251 OFFCURVE",
"100 293 OFFCURVE",
"149 362 CURVE SMOOTH",
"164 383 OFFCURVE",
"185 385 OFFCURVE",
"200 379 CURVE SMOOTH",
"220 372 OFFCURVE",
"218 362 OFFCURVE",
"216 360 CURVE SMOOTH",
"207 350 OFFCURVE",
"221 336 OFFCURVE",
"230 346 CURVE SMOOTH"
);
},
{
closed = 1;
nodes = (
"422 349 OFFCURVE",
"373 368 OFFCURVE",
"338 368 CURVE SMOOTH",
"251 368 OFFCURVE",
"187 290 OFFCURVE",
"136 229 CURVE SMOOTH",
"128 219 OFFCURVE",
"143 206 OFFCURVE",
"152 217 CURVE SMOOTH",
"197 272 OFFCURVE",
"260 348 OFFCURVE",
"338 348 CURVE SMOOTH",
"371 348 OFFCURVE",
"402 331 OFFCURVE",
"402 301 CURVE SMOOTH",
"402 259 OFFCURVE",
"266 30 OFFCURVE",
"203 -51 CURVE SMOOTH",
"122 -158 OFFCURVE",
"46 -216 OFFCURVE",
"-45 -263 CURVE SMOOTH",
"-195 -340 OFFCURVE",
"-317 -296 OFFCURVE",
"-265 -187 CURVE SMOOTH",
"-241 -136 OFFCURVE",
"-169 -86 OFFCURVE",
"-117 -86 CURVE SMOOTH",
"-91 -86 OFFCURVE",
"-97 -110 OFFCURVE",
"-115 -117 CURVE SMOOTH",
"-147 -130 OFFCURVE",
"-186 -157 OFFCURVE",
"-206 -180 CURVE SMOOTH",
"-252 -234 OFFCURVE",
"-200 -280 OFFCURVE",
"-123 -255 CURVE SMOOTH",
"-55 -233 OFFCURVE",
"139 -139 OFFCURVE",
"289 156 CURVE SMOOTH",
"296 171 OFFCURVE",
"279 171 OFFCURVE",
"274 162 CURVE SMOOTH",
"114 -124 OFFCURVE",
"-61 -215 OFFCURVE",
"-128 -235 CURVE SMOOTH",
"-184 -254 OFFCURVE",
"-221 -226 OFFCURVE",
"-194 -194 CURVE SMOOTH",
"-175 -173 OFFCURVE",
"-138 -148 OFFCURVE",
"-100 -132 CURVE SMOOTH",
"-61 -115 OFFCURVE",
"-66 -66 OFFCURVE",
"-117 -66 CURVE SMOOTH",
"-176 -66 OFFCURVE",
"-255 -120 OFFCURVE",
"-281 -177 CURVE SMOOTH",
"-334 -289 OFFCURVE",
"-222 -376 OFFCURVE",
"-38 -281 CURVE SMOOTH",
"55 -233 OFFCURVE",
"133 -174 OFFCURVE",
"217 -67 CURVE SMOOTH",
"286 22 OFFCURVE",
"422 250 OFFCURVE",
"422 301 CURVE SMOOTH"
);
}
);
width = 442;
}
);
unicode = 014B;
},
{
glyphname = o;
lastChange = "2021-09-30 04:13:05 +0000";
layers = (
{
hints = (
{
horizontal = 1;
place = "{-15, 19}";
type = Stem;
},
{
horizontal = 1;
place = "{49, 20}";
type = Stem;
},
{
horizontal = 1;
place = "{132, 20}";
type = Stem;
},
{
horizontal = 1;
place = "{309, -20}";
target = down;
type = TopGhost;
},
{
horizontal = 1;
place = "{358, -20}";
target = down;
type = TopGhost;
},
{
place = "{-20, 20}";
type = Stem;
},
{
place = "{167, 20}";
type = Stem;
},
{
place = "{280, 20}";
type = Stem;
}
);
layerId = "6B4F01CB-8044-4D82-912B-2C5A8D883AAC";
paths = (
{
closed = 1;
nodes = (
"234 109 OFFCURVE",
"216 118 OFFCURVE",
"211 106 CURVE SMOOTH",
"204 94 OFFCURVE",
"179 65 OFFCURVE",
"179 65 CURVE",
"90 -49 OFFCURVE",
"-5 22 OFFCURVE",
"0 79 CURVE SMOOTH",
"1 93 OFFCURVE",
"-19 95 OFFCURVE",
"-20 81 CURVE SMOOTH",
"-29 -4 OFFCURVE",
"99 -71 OFFCURVE",
"194 52 CURVE SMOOTH",
"205 67 OFFCURVE",
"220 81 OFFCURVE",
"228 97 CURVE SMOOTH"
);
},
{
closed = 1;
nodes = (
"148 314 OFFCURVE",
"25 171 OFFCURVE",
"36 89 CURVE SMOOTH",
"40 57 OFFCURVE",
"64 39 OFFCURVE",
"104 53 CURVE SMOOTH",
"138 65 OFFCURVE",
"171 97 OFFCURVE",
"185 122 CURVE SMOOTH",
"192 133 OFFCURVE",
"175 143 OFFCURVE",
"168 132 CURVE SMOOTH",
"156 111 OFFCURVE",
"126 82 OFFCURVE",
"98 72 CURVE SMOOTH",
"68 62 OFFCURVE",
"58 73 OFFCURVE",
"56 91 CURVE SMOOTH",
"47 162 OFFCURVE",
"161 293 OFFCURVE",
"218 289 CURVE SMOOTH",
"231 288 OFFCURVE",
"233 308 OFFCURVE",
"219 309 CURVE SMOOTH"
);
},
{
closed = 1;
nodes = (
"311 241 OFFCURVE",
"322 341 OFFCURVE",
"232 356 CURVE SMOOTH",
"141 372 OFFCURVE",
"67 294 OFFCURVE",
"-7 195 CURVE SMOOTH",
"-15 184 OFFCURVE",
"-1 170 OFFCURVE",
"7 180 CURVE SMOOTH",
"82 279 OFFCURVE",
"152 350 OFFCURVE",
"228 337 CURVE SMOOTH",
"291 327 OFFCURVE",
"295 253 OFFCURVE",
"250 188 CURVE SMOOTH",
"242 177 OFFCURVE",
"259 165 OFFCURVE",
"266 176 CURVE SMOOTH"
);
},
{
closed = 1;
nodes = (
"358 191 OFFCURVE",
"343 205 OFFCURVE",
"335 194 CURVE SMOOTH",
"270 111 OFFCURVE",
"149 146 OFFCURVE",
"198 248 CURVE SMOOTH",
"204 260 OFFCURVE",
"186 268 OFFCURVE",
"180 256 CURVE SMOOTH",
"121 134 OFFCURVE",
"267 79 OFFCURVE",
"351 182 CURVE SMOOTH"
);
}
);
width = 343;
}
);
note = o;
unicode = 006F;
},
{
glyphname = oslash;
lastChange = "2021-09-30 06:59:08 +0000";
layers = (
{
hints = (
{
horizontal = 1;
place = "{-15, 19}";
type = Stem;
},
{
horizontal = 1;
place = "{49, 20}";
type = Stem;
},
{
horizontal = 1;
place = "{132, 20}";
type = Stem;
},
{
horizontal = 1;
place = "{309, -20}";
target = down;
type = TopGhost;
},
{
horizontal = 1;
place = "{358, -20}";
target = down;
type = TopGhost;
},
{
place = "{-20, 20}";
type = Stem;
},
{
place = "{167, 20}";
type = Stem;
},
{
place = "{280, 20}";
type = Stem;
}
);
layerId = "6B4F01CB-8044-4D82-912B-2C5A8D883AAC";
paths = (
{
closed = 1;
nodes = (
"82 279 OFFCURVE",
"152 350 OFFCURVE",
"228 337 CURVE SMOOTH",
"291 327 OFFCURVE",
"295 253 OFFCURVE",
"250 188 CURVE SMOOTH",
"242 177 OFFCURVE",
"259 165 OFFCURVE",
"266 176 CURVE SMOOTH",
"301 227 OFFCURVE",
"316 299 OFFCURVE",
"277 335 CURVE",
"320 418 LINE SMOOTH",
"356 491 OFFCURVE",
"260 515 OFFCURVE",
"226 443 CURVE SMOOTH",
"219 427 OFFCURVE",
"203 397 OFFCURVE",
"182 355 CURVE",
"113 342 OFFCURVE",
"53 275 OFFCURVE",
"-7 195 CURVE SMOOTH",
"-15 184 OFFCURVE",
"-1 170 OFFCURVE",
"7 180 CURVE SMOOTH"
);
},
{
closed = 1;
nodes = (
"267 481 OFFCURVE",
"327 477 OFFCURVE",
"302 427 CURVE SMOOTH",
"290 405 OFFCURVE",
"277 378 OFFCURVE",
"261 347 CURVE",
"253 351 OFFCURVE",
"243 354 OFFCURVE",
"232 356 CURVE SMOOTH",
"223 358 OFFCURVE",
"214 358 OFFCURVE",
"206 358 CURVE",
"223 393 OFFCURVE",
"237 419 OFFCURVE",
"244 434 CURVE SMOOTH"
);
},
{
closed = 1;
nodes = (
"231 288 OFFCURVE",
"233 308 OFFCURVE",
"219 309 CURVE SMOOTH",
"148 314 OFFCURVE",
"25 171 OFFCURVE",
"36 89 CURVE SMOOTH",
"40 57 OFFCURVE",
"64 39 OFFCURVE",
"104 53 CURVE SMOOTH",
"138 65 OFFCURVE",
"171 97 OFFCURVE",
"185 122 CURVE SMOOTH",
"192 133 OFFCURVE",
"175 143 OFFCURVE",
"168 132 CURVE SMOOTH",
"156 111 OFFCURVE",
"126 82 OFFCURVE",
"98 72 CURVE SMOOTH",
"68 62 OFFCURVE",
"58 73 OFFCURVE",
"56 91 CURVE SMOOTH",
"47 162 OFFCURVE",
"161 293 OFFCURVE",
"218 289 CURVE SMOOTH"
);
},
{
closed = 1;
nodes = (
"270 111 OFFCURVE",
"149 146 OFFCURVE",
"198 248 CURVE SMOOTH",
"204 260 OFFCURVE",
"186 268 OFFCURVE",
"180 256 CURVE SMOOTH",
"121 134 OFFCURVE",
"267 79 OFFCURVE",
"351 182 CURVE SMOOTH",
"358 191 OFFCURVE",
"343 205 OFFCURVE",
"335 194 CURVE SMOOTH"
);
},
{
closed = 1;
nodes = (
"204 94 OFFCURVE",
"179 65 OFFCURVE",
"179 65 CURVE",
"90 -49 OFFCURVE",
"-5 22 OFFCURVE",
"0 79 CURVE SMOOTH",
"1 93 OFFCURVE",
"-19 95 OFFCURVE",
"-20 81 CURVE SMOOTH",
"-22 60 OFFCURVE",
"-16 40 OFFCURVE",
"-4 24 CURVE",
"-32 -28 OFFCURVE",
"-54 -71 OFFCURVE",
"-67 -97 CURVE SMOOTH",
"-103 -170 OFFCURVE",
"-7 -194 OFFCURVE",
"27 -122 CURVE SMOOTH",
"34 -107 OFFCURVE",
"54 -68 OFFCURVE",
"81 -15 CURVE",
"117 -14 OFFCURVE",
"158 5 OFFCURVE",
"194 52 CURVE SMOOTH",
"205 67 OFFCURVE",
"220 81 OFFCURVE",
"228 97 CURVE SMOOTH",
"234 109 OFFCURVE",
"216 118 OFFCURVE",
"211 106 CURVE SMOOTH"
);
},
{
closed = 1;
nodes = (
"-14 -160 OFFCURVE",
"-74 -156 OFFCURVE",
"-49 -106 CURVE SMOOTH",
"-36 -82 OFFCURVE",
"-16 -41 OFFCURVE",
"10 9 CURVE",
"23 -3 OFFCURVE",
"40 -11 OFFCURVE",
"59 -14 CURVE",
"35 -62 OFFCURVE",
"16 -98 OFFCURVE",
"9 -113 CURVE SMOOTH"
);
}
);
width = 343;
}
);
unicode = 00F8;
},
{
glyphname = oe;
layers = (
{
hints = (
{
horizontal = 1;
place = "{-16, 20}";
type = Stem;
},
{
horizontal = 1;
place = "{49, 20}";
type = Stem;
},
{
horizontal = 1;
place = "{149, 20}";
type = Stem;
},
{
horizontal = 1;
place = "{309, -20}";
target = down;
type = TopGhost;
},
{
horizontal = 1;
place = "{358, -20}";
target = down;
type = TopGhost;
},
{
place = "{-20, 20}";
type = Stem;
},
{
place = "{230, 20}";
type = Stem;
},
{
place = "{279, 20}";
type = Stem;
},
{
place = "{472, 20}";
type = Stem;
}
);
layerId = "6B4F01CB-8044-4D82-912B-2C5A8D883AAC";
paths = (
{
closed = 1;
nodes = (
"203 62 OFFCURVE",
"187 75 OFFCURVE",
"179 65 CURVE SMOOTH",
"174 59 OFFCURVE",
"169 53 OFFCURVE",
"164 48 CURVE SMOOTH",
"82 -42 OFFCURVE",
"-5 24 OFFCURVE",
"0 79 CURVE SMOOTH",
"1 93 OFFCURVE",
"-19 95 OFFCURVE",
"-20 81 CURVE SMOOTH",
"-28 2 OFFCURVE",
"87 -65 OFFCURVE",
"179 34 CURVE SMOOTH",
"184 39 OFFCURVE",
"189 46 OFFCURVE",
"194 52 CURVE SMOOTH"
);
},
{
closed = 1;
nodes = (
"148 314 OFFCURVE",
"25 171 OFFCURVE",
"36 89 CURVE SMOOTH",
"40 57 OFFCURVE",
"64 39 OFFCURVE",
"104 53 CURVE SMOOTH",
"138 65 OFFCURVE",
"171 97 OFFCURVE",
"185 122 CURVE SMOOTH",
"192 133 OFFCURVE",
"175 143 OFFCURVE",
"168 132 CURVE SMOOTH",
"156 111 OFFCURVE",
"126 82 OFFCURVE",
"98 72 CURVE SMOOTH",
"68 62 OFFCURVE",
"58 73 OFFCURVE",
"56 91 CURVE SMOOTH",
"47 162 OFFCURVE",
"161 293 OFFCURVE",
"218 289 CURVE SMOOTH",
"231 288 OFFCURVE",
"233 308 OFFCURVE",
"219 309 CURVE SMOOTH"
);
},
{
closed = 1;
nodes = (
"458 59 OFFCURVE",
"446 74 OFFCURVE",
"435 66 CURVE SMOOTH",
"395 36 OFFCURVE",
"347 16 OFFCURVE",
"297 16 CURVE SMOOTH",
"266 16 OFFCURVE",
"230 25 OFFCURVE",
"212 46 CURVE SMOOTH",
"204 56 OFFCURVE",
"188 44 OFFCURVE",
"197 33 CURVE SMOOTH",
"220 5 OFFCURVE",
"264 -4 OFFCURVE",
"297 -4 CURVE SMOOTH",
"352 -4 OFFCURVE",
"405 18 OFFCURVE",
"447 50 CURVE SMOOTH"
);
},
{
closed = 1;
nodes = (
"304 305 OFFCURVE",
"285 347 OFFCURVE",
"232 356 CURVE SMOOTH",
"141 372 OFFCURVE",
"60 292 OFFCURVE",
"-8 193 CURVE SMOOTH",
"-16 182 OFFCURVE",
"1 171 OFFCURVE",
"8 182 CURVE SMOOTH",
"77 281 OFFCURVE",
"152 349 OFFCURVE",
"228 337 CURVE SMOOTH",
"269 330 OFFCURVE",
"283 300 OFFCURVE",
"279 263 CURVE SMOOTH",
"278 249 OFFCURVE",
"298 247 OFFCURVE",
"299 261 CURVE SMOOTH"
);
},
{
closed = 1;
nodes = (
"550 192 OFFCURVE",
"534 204 OFFCURVE",
"525 194 CURVE SMOOTH",
"476 135 OFFCURVE",
"380 76 OFFCURVE",
"302 76 CURVE SMOOTH",
"271 76 OFFCURVE",
"250 89 OFFCURVE",
"250 118 CURVE SMOOTH",
"250 178 OFFCURVE",
"367 282 OFFCURVE",
"425 301 CURVE SMOOTH",
"438 305 OFFCURVE",
"432 324 OFFCURVE",
"419 320 CURVE SMOOTH",
"359 300 OFFCURVE",
"230 192 OFFCURVE",
"230 118 CURVE SMOOTH",
"230 73 OFFCURVE",
"267 56 OFFCURVE",
"302 56 CURVE SMOOTH",
"388 56 OFFCURVE",
"490 118 OFFCURVE",
"541 181 CURVE SMOOTH"
);
},
{
closed = 1;
nodes = (
"492 340 OFFCURVE",
"466 362 OFFCURVE",
"429 362 CURVE SMOOTH",
"381 362 OFFCURVE",
"339 342 OFFCURVE",
"302 314 CURVE SMOOTH",
"291 306 OFFCURVE",
"303 290 OFFCURVE",
"314 298 CURVE SMOOTH",
"349 324 OFFCURVE",
"387 342 OFFCURVE",
"429 342 CURVE SMOOTH",
"456 342 OFFCURVE",
"472 327 OFFCURVE",
"472 301 CURVE SMOOTH",
"472 244 OFFCURVE",
"382 169 OFFCURVE",
"325 169 CURVE SMOOTH",
"317 169 OFFCURVE",
"310 171 OFFCURVE",
"304 174 CURVE SMOOTH",
"292 180 OFFCURVE",
"283 163 OFFCURVE",
"295 157 CURVE SMOOTH",
"304 151 OFFCURVE",
"315 149 OFFCURVE",
"325 149 CURVE SMOOTH",
"390 149 OFFCURVE",
"492 230 OFFCURVE",
"492 301 CURVE SMOOTH"
);
}
);
width = 534;
}
);
note = oe;
unicode = 0153;
},
